<svg width="60" height="132" viewBox="0 0 60 132" fill="none" xmlns="http://www.w3.org/2000/svg">
<path d="M4.88713 7.73125L3.64136 9.04928C2.54041 8.23831 1.37372 7.52074 0.15329 6.90406L1.49122 5.5661C2.69823 6.16278 3.83684 6.88875 4.88713 7.73125V7.73125ZM5.14504 12.9635C4.273 14.7686 3.35742 16.4429 2.40441 18.0201C2.40441 18.5072 2.23494 18.7675 1.8936 18.7675L0.237994 17.3623C1.66631 15.5156 2.9176 13.5386 3.97531 11.4574L5.14504 12.9635ZM5.80153 2.82914L4.54831 4.1671C3.50163 3.36166 2.39467 2.63781 1.2371 2.00195L2.5726 0.682683C3.724 1.2763 4.80672 1.99442 5.80153 2.82416V2.82914ZM10.9852 14.066C11.1098 14.1719 11.1983 14.2778 11.1983 14.365C11.1983 14.4896 11.0737 14.5755 10.8582 14.6141C9.76692 16.2502 8.4906 17.755 7.05476 19.0989L5.3108 17.7585C6.9919 16.4866 8.44968 14.9441 9.62477 13.194L10.9852 14.066ZM8.94713 4.33777V0L10.6464 0.147001C10.9441 0.190603 11.1135 0.271578 11.1135 0.423562C11.1135 0.50952 10.9889 0.656522 10.7734 0.828439V4.33279H14.2616V0L15.9596 0.147001C16.2574 0.190603 16.4268 0.271578 16.4268 0.423562C16.4268 0.50952 16.3022 0.656522 16.0892 0.828439V4.33279H18.7439V6.07687H16.0892V10.386H19.4229V12.1301H5.38182V10.386H8.95094V6.07562H6.14795V4.33155L8.94713 4.33777ZM14.2579 6.08185H10.7697V10.386H14.2579V6.08185ZM19.505 17.6812L17.6788 19.0192C16.2405 17.6115 15.0357 15.9836 14.1097 14.1968L15.5946 13.2002C16.5535 14.9607 17.8886 16.4881 19.505 17.6737V17.6812Z" fill="black"/>
<path d="M31.5442 1.3377V0.17041L33.2882 0.318656C33.6083 0.34108 33.7754 0.423302 33.7754 0.592727C33.7754 0.699863 33.672 0.870531 33.4577 1.08356V1.33271H37.854V4.15688H39.7463V5.81499H37.8503V8.64165H33.4539V9.95967H38.0845V11.6141H33.4539V12.9545H38.5965V14.6986H33.4539V17.0369C34.5813 17.0792 35.8557 17.1004 37.2572 17.1004C37.8926 17.1004 38.7235 17.0793 39.7425 17.0132L38.8281 19.0974C35.9639 19.1281 33.1001 19.0146 30.2473 18.7573C28.8837 18.6377 27.5375 18.3674 26.2334 17.9513C25.5029 17.7007 24.8039 17.3663 24.1505 16.9547C23.4539 17.9107 22.5817 18.7254 21.5805 19.3553L20.179 17.8454C21.1481 17.348 21.985 16.6272 22.6206 15.7425C21.7692 14.808 21.056 13.7563 20.5029 12.6194L22.009 12.0476C22.4805 12.7733 23.0065 13.4621 23.5825 14.1081C24.18 12.545 24.5166 10.8944 24.579 9.22218H22.8349L22.1549 10.6224L20.4991 10.0506L23.7481 3.25245H20.5838V1.50836H24.1517L24.6613 1.34019C24.837 1.34759 25.0066 1.40603 25.1496 1.50836L26.1911 2.1462C26.2448 2.17384 26.2916 2.21295 26.3285 2.26075C26.3653 2.30854 26.3911 2.36386 26.4042 2.42276C26.4042 2.61461 26.2347 2.80522 25.8934 2.99706L23.6845 7.48184H26.4042C26.4227 10.0444 26.0134 12.5921 25.1932 15.02C25.1511 15.1305 25.1011 15.2379 25.0438 15.3414C26.003 15.9455 27.0711 16.356 28.188 16.5498C29.2923 16.7852 30.4156 16.9212 31.5442 16.9559V14.6986H26.4042V12.9545H31.5442V11.6178H27.0593V9.96341H31.5442V8.64165H27.5514V6.98477H31.5442V5.81624H25.8135V4.15688H31.5442V2.98959H27.5514V1.33271L31.5442 1.3377ZM33.4551 4.16186H36.0251V2.99457H33.4551V4.16186ZM33.4551 6.98851H36.0251V5.81998H33.4551V6.98851Z" fill="black"/>
<path d="M44.4952 2.42007V0.592529H51.9512C52.8345 2.20308 54.0416 3.61338 55.4966 4.73471C56.8675 5.75613 58.3499 6.61873 59.9153 7.30599L58.4291 9.05006C57.8349 8.70872 57.283 8.38856 56.7747 8.07213V9.63807H51.2074V12.2928H56.1993V14.0369H51.2074V16.8399H59.3435V18.5839H40.9273V16.8399H49.2317V14.0369H44.4977V12.2928H49.2317V9.63807H43.8299V8.00736C43.278 8.3462 42.6825 8.66637 42.0858 8.96286L40.3419 7.39195C42.1634 6.67117 43.9065 5.76619 45.5441 4.69111C46.5007 4.03745 47.3787 3.27538 48.1603 2.42007H44.4952ZM56.4757 7.88029C55.4435 7.25259 54.4692 6.53427 53.5643 5.73382C52.469 4.75871 51.5059 3.6447 50.6991 2.42007H50.1049C49.1551 3.71097 48.066 4.89328 46.8572 5.9456C45.9764 6.6654 45.0386 7.31243 44.053 7.88029H56.4757Z" fill="black"/>
<path d="M5.05912 23.2343V21.1514H5.97231V23.2343H13.6823V21.1514H14.598V23.2343H18.5918V24.0615H14.598V31.4539H19.332V32.2798H13.3834C15.1569 34.1294 17.289 35.5978 19.6495 36.5952L18.902 37.4236C16.3606 36.2156 14.1188 34.4588 12.3382 32.2798H7.304C6.48277 33.3184 5.51796 34.2349 4.43867 35.0018C3.17134 35.9086 1.81969 36.6912 0.402381 37.3389L0 36.5914C1.35158 35.9987 2.63307 35.2575 3.8208 34.3815C4.70038 33.7834 5.50037 33.0759 6.20148 32.2761H0.147053V31.4501H5.0541V24.0615H0.914407V23.2343H5.05912ZM9.28595 35.3432V33.1967H10.2004V35.3432H14.7686V36.1903H10.1941V39.0817H17.9902V39.9102H1.56968V39.0842H9.27971V36.1903H4.88089V35.3432H9.28595ZM13.6823 25.8056V24.0615H5.97231V25.8056H13.6823ZM13.6823 28.5463V26.6315H5.97231V28.5425L13.6823 28.5463ZM13.6823 31.4576V29.3747H5.97231V31.4539L13.6823 31.4576Z" fill="black"/>
<path d="M31.1231 21.6637C30.8927 21.9365 30.6571 22.1931 30.4453 22.4286C31.8787 23.8069 33.4358 25.0504 35.0971 26.1434C36.5909 27.171 38.1755 28.06 39.831 28.7994L39.258 29.796C37.568 29.0006 35.9602 28.0409 34.4581 26.9308C32.8047 25.781 31.2615 24.4803 29.8486 23.0452C28.6971 24.1886 27.4694 25.2525 26.1737 26.2294C24.4156 27.5741 22.5469 28.7677 20.5876 29.7973L20.0993 28.8854C22.0336 27.9655 23.8633 26.8403 25.557 25.5293C27.3132 24.2199 28.9289 22.732 30.3781 21.0894L31.1231 21.6637ZM35.0311 27.4602V28.3734H30.4666V31.6236H38.1767V32.538H30.4666V38.6771H39.5134V39.5903H20.5041V38.6771H29.4738V32.538H21.7611V31.6236H29.4738V28.3734H24.8943V27.4602H35.0311ZM27.3222 37.3392L26.4714 38.1689C25.5427 36.6798 24.4614 35.2916 23.2449 34.0267L23.9026 33.3677C25.1616 34.5827 26.3047 35.9123 27.3172 37.3392H27.3222ZM36.774 33.6853C35.9025 35.27 34.8083 36.7216 33.5249 37.9957L32.6952 37.3392C34.0064 36.1531 35.1059 34.7523 35.9467 33.197L36.774 33.6853Z" fill="black"/>
<path d="M51.038 21.5772C50.9109 21.7059 50.7834 21.833 50.6555 21.9584C52.1044 23.1818 53.6619 24.2705 55.3084 25.2111C56.7999 26.1274 58.3699 26.9091 60 27.5469L59.5141 28.4601C58.8033 28.1695 58.1078 27.8431 57.43 27.4822V32.3693H42.7523V27.4822C42.031 27.8659 41.3733 28.1848 40.7591 28.4601L40.2695 27.6304C42.1534 26.8681 43.9544 25.9147 45.6438 24.7851C47.3447 23.6868 48.9306 22.4201 50.3777 21.0042L51.038 21.5772ZM56.624 27.0586C55.9887 26.7173 55.3496 26.3585 54.7554 25.976C53.104 24.9476 51.5469 23.7749 50.1024 22.4717C49.0938 23.3806 48.0227 24.2177 46.8971 24.9769C46.6628 25.1463 46.4286 25.3183 46.2181 25.4416C45.2613 26.0645 44.3681 26.5914 43.5185 27.0611L56.624 27.0586ZM49.5518 31.5434V27.8883H43.6692V31.5396L49.5518 31.5434ZM48.0631 30.6302L47.4912 31.2045C46.7318 30.3004 45.8926 29.4665 44.9835 28.713L45.5791 28.2259C46.4705 28.9586 47.302 29.7613 48.0656 30.6265L48.0631 30.6302ZM53.0338 24.9807V25.8103H46.8971V24.9807H53.0338ZM50.4637 31.5434H56.5182V27.8883H50.4637V31.5434ZM55.2849 28.6332C54.5761 29.6502 53.7088 30.5469 52.7161 31.2892L52.0371 30.7137C52.9972 30.0477 53.8432 29.2307 54.5423 28.2944L55.2849 28.6332Z" fill="black"/>
<path d="M7.84233 54.8599V50.0823H3.55178V54.8599H1.50125V44.231H3.55178V48.3819H7.84233V44.231H9.914V54.8599H7.84233Z" fill="black"/>
<path d="M22.4636 51.8101C22.2919 52.3981 21.9895 52.9398 21.5792 53.3947C21.1433 53.9263 20.5885 54.3479 19.9596 54.6255C18.5381 55.1091 16.9994 55.127 15.567 54.6766C14.9705 54.4395 14.4352 54.0707 14.0011 53.5977C13.5171 53.0689 13.1386 52.4524 12.8862 51.7814C12.6292 51.0464 12.5053 50.2714 12.52 49.4929C12.436 48.0368 12.9205 46.6049 13.8716 45.499C14.347 45.0079 14.922 44.6242 15.5581 44.3739C16.1941 44.1236 16.8764 44.0123 17.559 44.0477C18.3598 44.0274 19.1549 44.1866 19.8862 44.5136C20.5225 44.81 21.0876 45.24 21.543 45.7743C21.9536 46.2439 22.2586 46.7962 22.4375 47.3938C22.6383 48.1082 22.734 48.8481 22.7215 49.5901C22.7388 50.3385 22.6519 51.0856 22.4636 51.8101ZM20.331 48.1226C20.2663 47.713 20.1322 47.3174 19.9347 46.9528C19.717 46.5444 19.37 46.2198 18.948 46.0297C18.4888 45.8362 17.9938 45.7423 17.4956 45.7544C17.0597 45.7518 16.6276 45.8365 16.2249 46.0035C15.8693 46.1378 15.5614 46.3745 15.3403 46.6837C15.1262 47.0108 14.9777 47.3763 14.9031 47.7601C14.8077 48.2693 14.7635 48.7868 14.7711 49.3048C14.7644 49.9122 14.8223 50.5186 14.9441 51.1137C15.0353 51.5823 15.2105 52.0305 15.4612 52.4367C15.6676 52.7613 15.9735 53.0104 16.3332 53.1468C16.7726 53.319 17.2416 53.4037 17.7135 53.3959C18.232 53.4129 18.7465 53.298 19.2085 53.0621C19.6026 52.843 19.9082 52.4938 20.0731 52.0742C20.0868 52.0343 20.1016 51.9919 20.1228 51.9496C20.1442 51.8995 20.1618 51.8479 20.1752 51.7951C20.2713 51.5148 20.3393 51.2256 20.3783 50.9318C20.4218 50.5597 20.4418 50.1852 20.438 49.8106C20.4484 49.2459 20.4126 48.6814 20.331 48.1226V48.1226Z" fill="black"/>
<path d="M31.5368 54.8599L28.0622 49.3511L27.9377 49.1393C27.8891 49.0658 27.8443 48.9935 27.8057 48.9263C27.7671 48.859 27.7458 48.8179 27.7134 48.7618C27.681 48.7058 27.6499 48.6534 27.6212 48.5999C27.5265 48.4255 27.4294 48.2548 27.3285 48.1016C27.2276 47.9483 27.1354 47.7802 27.0532 47.6294C27.0794 47.8624 27.0979 48.1277 27.1042 48.4143C27.1104 48.7008 27.1142 49.0371 27.1142 49.4208L27.2176 54.8661H25.0997V44.231H27.3148L30.829 49.8593C30.8577 49.9017 30.8839 49.9428 30.9113 49.9839C30.9387 50.025 30.9661 50.0711 30.9936 50.1247C31.1269 50.3265 31.2538 50.5346 31.3672 50.7476C31.4806 50.9606 31.5889 51.1475 31.6849 51.3256C31.6699 51.069 31.6551 50.7874 31.6339 50.4847C31.6128 50.182 31.6028 49.8706 31.6028 49.5604L31.5416 44.2347H33.5748V54.8599H31.5368Z" fill="black"/>
<path d="M43.4464 54.7662C42.8195 54.9113 42.1776 54.9824 41.5341 54.978C40.7529 54.9928 39.9756 54.8662 39.2395 54.6043C38.5978 54.3687 38.0108 54.005 37.5141 53.5354C37.0114 53.0537 36.6253 52.4636 36.3854 51.81C36.1218 51.0666 35.9951 50.2815 36.0116 49.4929C35.9868 48.5755 36.1633 47.6638 36.5287 46.822C36.8758 46.0817 37.4213 45.4521 38.1046 45.0031C38.5563 44.7084 39.0491 44.4821 39.5671 44.3317C40.1296 44.1763 40.7113 44.1012 41.2949 44.1087C41.618 44.1067 41.9408 44.1296 42.2604 44.1772C42.5665 44.2269 42.8683 44.2993 43.1636 44.3939C43.4753 44.4931 43.7783 44.6182 44.0693 44.7677C44.4008 44.9436 44.7223 45.1378 45.0322 45.3495L43.9971 46.67L43.3979 46.3349C43.2247 46.2373 43.0438 46.154 42.8571 46.0857C42.6258 46.0029 42.3884 45.9379 42.1471 45.8914C41.8787 45.8425 41.6063 45.8183 41.3335 45.8191C40.7605 45.804 40.1915 45.919 39.6693 46.1555C39.234 46.3521 38.8867 46.7026 38.6939 47.1396C38.5381 47.5053 38.4219 47.8866 38.3475 48.277C38.2628 48.7192 38.2211 49.1685 38.2229 49.6187C38.2009 50.3199 38.3182 51.0186 38.568 51.6742C38.7744 52.1884 39.1561 52.613 39.6455 52.8727C39.8841 52.9977 40.1344 53.0987 40.393 53.1741C40.6577 53.2572 40.9304 53.3123 41.2066 53.3386C41.2807 53.3369 41.3547 53.3407 41.4283 53.3498C41.498 53.3498 41.5654 53.3598 41.6327 53.3598C41.9012 53.3593 42.1692 53.3393 42.4348 53.3C42.677 53.2667 42.9129 53.1978 43.135 53.0956V50.6726H40.8615L40.494 48.9435H45.1469V54.0873C44.6157 54.3943 44.043 54.623 43.4464 54.7662V54.7662Z" fill="black"/>
<path d="M57.1823 53.2404C56.8475 53.7593 56.3777 54.1771 55.8232 54.4488C55.4229 54.6605 54.9933 54.8116 54.5487 54.8973C54.0439 54.9956 53.5306 55.0432 53.0164 55.0393C52.3008 55.0372 51.5877 54.9536 50.8911 54.7901C50.1614 54.6232 49.4605 54.3495 48.8107 53.9779L49.6827 52.3522C50.0818 52.5648 50.4923 52.7553 50.9124 52.9227C51.2839 53.0672 51.6686 53.1753 52.061 53.2454C52.2367 53.2747 52.4139 53.2946 52.5917 53.3052C52.7661 53.3226 52.9417 53.3264 53.1174 53.3264C53.418 53.3324 53.7184 53.3052 54.0131 53.2454C54.2582 53.1923 54.4918 53.0961 54.7032 52.9613C54.9151 52.8438 55.0985 52.6809 55.2402 52.4842C55.3707 52.303 55.4392 52.0846 55.4357 51.8613C55.4363 51.6908 55.396 51.5226 55.3182 51.3709C55.2404 51.2192 55.1273 51.0883 54.9885 50.9893C54.5507 50.6995 54.06 50.4988 53.5446 50.3988L51.9787 50.0151C51.2303 49.8554 50.5451 49.4799 50.0078 48.935C49.5396 48.4664 49.2766 47.831 49.2767 47.1685C49.2712 46.7193 49.3734 46.2753 49.5747 45.8737C49.7761 45.472 50.0707 45.1245 50.4339 44.8601C51.2989 44.2279 52.3534 43.9089 53.4238 43.9557C53.5733 43.9557 53.7215 43.9619 53.8723 43.9656C54.023 43.9694 54.1713 43.9856 54.3195 43.9968C54.8794 44.0648 55.4307 44.19 55.9651 44.3705C56.4927 44.5446 56.9924 44.7938 57.4489 45.1105L56.4922 46.573C56.052 46.3238 55.5899 46.1154 55.1118 45.9501C54.6963 45.8149 54.2657 45.7312 53.8299 45.701C53.7773 45.6879 53.7235 45.6808 53.6693 45.6798H53.5073C52.9987 45.6586 52.4934 45.7716 52.0423 46.0075C51.8708 46.09 51.7262 46.2195 51.6254 46.3809C51.5246 46.5423 51.4718 46.7291 51.4729 46.9194C51.4731 47.1231 51.55 47.3192 51.6884 47.4687C51.8611 47.6519 52.0745 47.7919 52.3113 47.8774L52.3948 47.916C52.4198 47.9316 52.4461 47.9454 52.4732 47.9571C52.516 47.9708 52.5577 47.9879 52.5978 48.0082C52.6381 48.0283 52.6798 48.0458 52.7225 48.0605C52.776 48.0717 52.8395 48.0866 52.9142 48.0979C52.989 48.1091 53.075 48.134 53.1721 48.1589L54.6334 48.5252C55.063 48.635 55.4804 48.7882 55.8792 48.9824C56.235 49.1514 56.567 49.3662 56.867 49.6214C57.1288 49.8745 57.3332 50.1808 57.4663 50.5196C57.6085 50.8675 57.6804 51.2401 57.678 51.6159C57.6772 52.1946 57.5047 52.7599 57.1823 53.2404V53.2404Z" fill="black"/>
<path d="M1.48727 59.0171H5.04773L4.92318 59.7708H2.40427V61.4451H4.47959V62.1926H2.40427V64.9507H1.48986L1.48727 59.0171Z" fill="black"/>
<path d="M6.75196 59.7048C7.00188 59.4318 7.30891 59.2173 7.65132 59.0767C7.99372 58.936 8.36301 58.8728 8.7327 58.8914C9.1619 58.8815 9.58777 58.9688 9.97847 59.1467C10.3242 59.3119 10.6293 59.5514 10.8717 59.8481C11.0974 60.1122 11.2612 60.4233 11.3514 60.7588C11.4567 61.1654 11.5064 61.5845 11.4995 62.0045C11.5084 62.4239 11.4628 62.8427 11.3637 63.2503C11.273 63.578 11.1133 63.8826 10.8953 64.1435C10.6635 64.4364 10.3644 64.669 10.0233 64.8212C9.63392 64.9749 9.21708 65.0469 8.7987 65.033C8.4133 65.0435 8.02915 64.984 7.665 64.8574C7.34012 64.729 7.05156 64.5233 6.8242 64.2581C6.55789 63.9586 6.35266 63.6099 6.22002 63.2316C6.0836 62.8153 6.01791 62.379 6.02567 61.941C5.98145 61.1313 6.24038 60.3341 6.75196 59.7048V59.7048ZM9.57989 59.8082C9.30208 59.6866 9.00106 59.6271 8.69787 59.6338C8.43145 59.6324 8.1679 59.689 7.9255 59.7995C7.70727 59.8914 7.51962 60.0435 7.38473 60.238C7.25367 60.4336 7.16463 60.6541 7.12317 60.8858C7.06469 61.1984 7.03749 61.5159 7.04212 61.8339C7.03816 62.2051 7.07243 62.5758 7.14431 62.9401C7.19818 63.222 7.30293 63.4917 7.45332 63.7362C7.57756 63.9357 7.7609 64.0916 7.97781 64.1821C8.24503 64.2956 8.53343 64.3504 8.82364 64.3428C9.13798 64.3533 9.44949 64.2807 9.72679 64.1323C9.97463 63.9924 10.1636 63.7677 10.2587 63.4995C10.2648 63.478 10.2727 63.4572 10.2825 63.4372C10.2899 63.4172 10.2974 63.3961 10.3036 63.3749C10.3664 63.1994 10.4106 63.0177 10.4356 62.833C10.4638 62.5961 10.4772 62.3577 10.4756 62.1192C10.4804 61.7811 10.4574 61.4432 10.407 61.1088C10.3696 60.864 10.2931 60.6267 10.1803 60.4062C10.0538 60.1445 9.8421 59.9337 9.57989 59.8082V59.8082Z" fill="black"/>
<path d="M13.0071 58.9844H13.9201V62.5597C13.9201 62.7964 13.9289 62.9995 13.9439 63.1714C13.9506 63.3004 13.9698 63.4285 14.0012 63.5539C14.0805 63.7798 14.2443 63.966 14.4583 64.0733C14.7137 64.2076 14.9997 64.2728 15.288 64.2627C15.5189 64.2678 15.749 64.2332 15.9682 64.1605C16.1395 64.1035 16.2888 63.9946 16.3956 63.8491C16.4104 63.8305 16.4234 63.8105 16.4342 63.7893C16.447 63.7708 16.4606 63.7529 16.4752 63.7357C16.5359 63.6184 16.5779 63.4923 16.5998 63.362C16.6261 63.1764 16.6375 62.9889 16.6336 62.8014V58.9844H17.5442V62.7753C17.5551 63.1167 17.5263 63.4583 17.4582 63.793C17.4002 64.0236 17.2794 64.2336 17.1094 64.3997C17.0957 64.4216 17.0784 64.4409 17.0583 64.457C17.0399 64.4714 17.0225 64.4867 17.006 64.5031C16.7951 64.6922 16.5449 64.8322 16.2734 64.913C15.9444 65.0027 15.6041 65.0447 15.2631 65.0376C14.7837 65.0684 14.3054 64.9634 13.8829 64.7348C13.5968 64.5678 13.3635 64.3234 13.2101 64.0297C13.1934 64.0022 13.1797 63.9729 13.1691 63.9425L13.1316 63.8491C13.0811 63.7164 13.0477 63.5779 13.032 63.4368C13.0098 63.217 13.0002 62.9961 13.0033 62.7753L13.0071 58.9844Z" fill="black"/>
<path d="M19.3718 58.9844H20.4232L22.3629 62.2234C22.3766 62.2446 22.3891 62.2682 22.4015 62.2844C22.4125 62.307 22.4258 62.3283 22.4414 62.348C22.6145 62.6544 22.7703 62.9347 22.9011 63.1913C23.0319 63.448 23.1115 63.5925 23.1252 63.6174C23.104 63.3944 23.0829 63.2013 23.0667 63.0331C23.0605 62.9086 23.0542 62.7615 23.0468 62.6058C23.0393 62.4501 23.0305 62.2906 23.0218 62.1312V61.9829L22.987 58.9931H23.8789V64.9504H22.9297L21.0149 61.7886C20.9838 61.7388 20.9526 61.679 20.9178 61.6179C20.8829 61.5569 20.8479 61.4933 20.8105 61.4385L20.7707 61.3563C20.7582 61.3327 20.7446 61.3065 20.7309 61.2766C20.5864 61.0162 20.402 60.6736 20.1828 60.2401C20.1914 60.2866 20.1967 60.3336 20.1989 60.3809C20.2039 60.4365 20.2064 60.5038 20.2064 60.5827C20.2151 60.7334 20.2226 60.9166 20.2351 61.1333C20.2476 61.3501 20.25 61.6042 20.25 61.8932L20.3073 64.9504H19.3718V58.9844Z" fill="black"/>
<path d="M25.8522 59.0293H27.1977C27.402 59.0293 27.5988 59.0293 27.7906 59.038C27.9825 59.0467 28.142 59.0592 28.2678 59.0741C28.5131 59.104 28.7532 59.1668 28.9817 59.261C29.2204 59.3612 29.4419 59.4983 29.6381 59.6671C29.9412 59.9202 30.1759 60.2453 30.3208 60.6127C30.4787 61.0518 30.5527 61.5166 30.5389 61.983C30.5684 62.5972 30.4162 63.2064 30.1015 63.7346C29.86 64.1219 29.5283 64.4451 29.1348 64.6764C29.0125 64.7413 28.8851 64.7959 28.7537 64.8396C28.6421 64.8801 28.5256 64.9057 28.4073 64.9156C28.3076 64.9218 28.1894 64.9318 28.0523 64.9367C27.9153 64.9417 27.7596 64.9504 27.5852 64.9504H25.8522V59.0293ZM26.7641 59.7768V64.1918H27.4917C27.6162 64.1918 27.7172 64.1918 27.8019 64.1918C27.8866 64.1918 27.9651 64.1806 28.0411 64.1718C28.071 64.1718 28.1059 64.1569 28.1433 64.1507L28.2566 64.127C28.623 64.0445 28.9486 63.8354 29.176 63.5365C29.4599 63.0921 29.5911 62.5673 29.5496 62.0416C29.5599 61.6873 29.5179 61.3334 29.4251 60.9914C29.3484 60.729 29.2066 60.4903 29.0128 60.2975C28.8376 60.1006 28.6111 59.9562 28.3588 59.8802C28.0853 59.8107 27.8038 59.7776 27.5216 59.7817L26.7641 59.7768Z" fill="black"/>
<path d="M34.8071 58.9844L37.0057 64.9479H35.978L35.3738 63.2922H32.9795L32.369 64.9504H31.446L33.6708 58.9869L34.8071 58.9844ZM33.2311 62.541H35.157C35.1495 62.5273 35.0972 62.3766 34.9988 62.1013C34.9004 61.826 34.7945 61.5183 34.6799 61.1832C34.5653 60.848 34.3972 60.3809 34.1991 59.8028L33.2311 62.541Z" fill="black"/>
<path d="M37.1998 58.9844H41.7481L41.646 59.758H39.8558V64.9504H38.9664V59.758H37.1998V58.9844Z" fill="black"/>
<path d="M43.1062 58.9844H44.018V64.9504H43.1062V58.9844Z" fill="black"/>
<path d="M46.4861 59.7046C46.7361 59.4321 47.043 59.2179 47.3851 59.0773C47.7272 58.9368 48.0961 58.8732 48.4656 58.8912C48.8948 58.8814 49.3206 58.9687 49.7113 59.1465C50.0569 59.3121 50.3617 59.5515 50.6045 59.8479C50.8287 60.1129 50.9924 60.4237 51.0841 60.7586C51.1901 61.1651 51.24 61.5843 51.2324 62.0043C51.2413 62.4237 51.1957 62.8425 51.0966 63.2501C51.0064 63.578 50.8467 63.8827 50.6282 64.1433C50.3963 64.4361 50.0972 64.6686 49.7562 64.821C49.3664 64.9747 48.9492 65.0467 48.5304 65.0328C48.1442 65.0429 47.7594 64.9834 47.3942 64.8572C47.071 64.7278 46.7836 64.5222 46.5569 64.2579C46.2902 63.9584 46.0846 63.6097 45.9515 63.2314C45.816 62.8149 45.7512 62.3787 45.7598 61.9408C45.716 61.1311 45.9749 60.3341 46.4861 59.7046V59.7046ZM49.3164 59.808C49.0376 59.6867 48.7358 59.6272 48.4318 59.6336C48.1658 59.6325 47.9029 59.689 47.6608 59.7993C47.4421 59.8898 47.2545 60.0422 47.1213 60.2378C46.9887 60.4327 46.8992 60.6535 46.8585 60.8856C46.7992 61.198 46.7725 61.5158 46.7788 61.8337C46.7741 62.2049 46.8075 62.5755 46.8784 62.9399C46.934 63.2213 47.0386 63.4908 47.1874 63.736C47.3124 63.9358 47.4966 64.0918 47.7143 64.182C47.9806 64.2955 48.2683 64.3504 48.5577 64.3427C48.8728 64.3527 49.185 64.2801 49.4633 64.1321C49.7101 63.992 49.8979 63.7672 49.9916 63.4993C49.9984 63.4777 50.0071 63.4569 50.0178 63.437C50.024 63.417 50.0315 63.3959 50.0377 63.3747C50.1005 63.1992 50.1447 63.0175 50.1697 62.8328C50.1979 62.5959 50.2112 62.3575 50.2095 62.119C50.2138 61.7809 50.1909 61.443 50.1411 61.1086C50.1026 60.864 50.0261 60.627 49.9144 60.406C49.7867 60.1443 49.5742 59.9335 49.3114 59.808H49.3164Z" fill="black"/>
<path d="M52.8206 58.9844H53.872L55.8091 62.2234C55.824 62.2446 55.8378 62.2682 55.8503 62.2844C55.8627 62.3006 55.8752 62.3268 55.8889 62.348C56.0646 62.6544 56.2202 62.9347 56.3523 63.1913C56.4843 63.448 56.5578 63.5925 56.5728 63.6174C56.5503 63.3944 56.5305 63.2013 56.518 63.0331C56.5093 62.9086 56.5018 62.7615 56.4919 62.6058C56.4819 62.4501 56.4781 62.2906 56.4706 62.1312V61.9829L56.437 58.9931H57.3252V64.9504H56.381L54.4625 61.7886C54.4338 61.7388 54.4001 61.679 54.3677 61.6179C54.3353 61.5569 54.2956 61.4933 54.2595 61.4385C54.2473 61.4101 54.2331 61.3827 54.217 61.3563C54.2071 61.3327 54.1934 61.3065 54.1772 61.2766C54.0352 61.0162 53.8521 60.6736 53.6316 60.2401C53.6414 60.2864 53.6464 60.3336 53.6465 60.3809C53.6525 60.448 53.655 60.5153 53.6539 60.5827C53.6601 60.7334 53.6702 60.9166 53.6814 61.1333C53.6926 61.3501 53.7 61.6042 53.7 61.8932L53.7573 64.9504H52.8206V58.9844Z" fill="black"/>
<path d="M43.987 33.6006V39.5902H47.0467V45.3469L51.9513 39.5902H56.1994V33.6006H43.987ZM55.285 38.7643H51.5539L47.8851 43.0672V38.7643H44.8952V34.429H55.28L55.285 38.7643Z" fill="black"/>
<path d="M45.8119 36.9363H51.2646L51.3754 36.1091H45.8119V36.9363Z" fill="black"/>
<path opacity="0.5" d="M16.7037 91.0497C17.4765 91.0497 17.6273 90.7713 17.7106 88.799C18.2503 89.1184 18.8376 89.3498 19.4501 89.4846C19.2341 92.1231 18.6772 92.7437 16.8974 92.7437H13.5526C11.2785 92.7437 10.7424 92.2232 10.7424 90.4487V88.3918H7.99729C7.35459 90.878 5.70481 92.2948 1.00816 93.065C0.773113 92.4656 0.431637 91.9138 0 91.4361C4.01102 90.9157 5.36135 90.0414 5.92078 88.3918H3.17312V79.472H3.6024C3.2535 78.5386 2.75382 77.6688 2.1232 76.8973L3.98626 76.3639C4.70763 77.1483 5.26929 78.0657 5.63984 79.0648L4.33232 79.472H13.403L12.9086 79.3224C13.7629 78.167 14.5035 76.9318 15.1203 75.634L17.332 76.2559C16.6268 77.3709 15.7891 78.5496 15.0827 79.472H16.1742V88.3918H12.6965V90.4292C12.6965 90.9639 12.8682 91.0497 13.7672 91.0497H16.7037ZM18.356 74.7754C12.7858 75.658 7.16086 76.1527 1.52208 76.2559C1.40758 75.7185 1.205 75.2037 0.922398 74.7324C6.1794 74.6256 11.4233 74.1671 16.619 73.3599L18.356 74.7754ZM5.06096 82.0233H14.1939V80.8446H5.06096V82.0233ZM5.06096 84.5108H14.1939V83.3087H5.06096V84.5108ZM5.06096 86.9971H14.1939V85.8184H5.06096V86.9971ZM9.02641 79.3861C8.81374 78.3372 8.41493 77.3348 7.84896 76.4264L9.7784 75.9346C10.38 76.8336 10.8292 77.8257 11.108 78.871L9.02641 79.3861Z" fill="black"/>
<path opacity="0.5" d="M29.6357 78.4843H20.7784V76.897H24.7466C24.3152 75.8903 23.7985 74.9223 23.2022 74.0036L24.7634 73.21C25.3772 74.0998 25.9146 75.0398 26.3701 76.0201L24.7842 76.897H29.6319L29.6357 78.4843ZM21.6995 79.7502H28.7328V81.3114H21.6995V79.7502ZM28.6677 84.1242H21.6995V82.5798H28.6677V84.1242ZM28.7536 91.7572H23.5431V92.7225H21.8283V85.4746H28.7536V91.7572ZM23.5431 90.1491H27.0194V87.0827H23.5431V90.1491ZM39.8162 82.5148H35.6152V93.001H33.5557V82.5148H29.5903V80.5633H33.5557V73.7239H35.6152V80.5633H39.8162V82.5148Z" fill="black"/>
<path opacity="0.5" d="M60 83.0081V84.3182H40.8752V83.0081H49.3019V82.0661H42.4586V80.9082H49.3019V79.9858H43.0179V78.8487H49.3019V77.8678H40.9193V76.689H49.3019V75.7666H43.148V74.6295H49.3019V73.3142H51.3171V74.623H57.6426V76.6825H59.9376V77.8613H57.6426V79.9832H51.3171V80.9056H58.5441V82.0635H51.3171V83.0055L60 83.0081ZM40.8752 91.0496H60V92.4222H40.8752V91.0496ZM57.7493 90.2339H43.2703V85.1599H57.744L57.7493 90.2339ZM45.2258 87.1687H49.4528V86.2033H45.2218L45.2258 87.1687ZM45.2258 89.184H49.4528V88.1978H45.2218L45.2258 89.184ZM51.3171 76.6851H55.6482V75.7627H51.3171V76.6851ZM51.3171 78.8487H55.6482V77.8678H51.3171V78.8487ZM55.7145 86.2033H51.3146V87.1674H55.7145V86.2033ZM55.7145 88.1978H51.3146V89.184H55.7145V88.1978Z" fill="black"/>
<path opacity="0.5" d="M1.59387 97.8335H4.36504C5.25334 97.7511 6.14546 97.9442 6.92021 98.3865C7.37752 98.6773 7.75133 99.0821 8.00476 99.5611C8.25819 100.04 8.38247 100.577 8.36559 101.119C8.39363 101.608 8.31151 102.097 8.1253 102.551C7.93909 103.004 7.65351 103.41 7.28961 103.739C6.50264 104.358 5.5139 104.664 4.51464 104.596H2.51754V109.353H1.59387V97.8335ZM4.46652 103.83C4.84105 103.866 5.21905 103.825 5.57711 103.71C5.93517 103.594 6.26564 103.406 6.54811 103.157C6.79557 102.914 6.99162 102.624 7.12461 102.303C7.25759 101.983 7.32475 101.639 7.32217 101.292C7.35202 100.897 7.28464 100.5 7.12588 100.137C6.96711 99.7746 6.72186 99.4561 6.41153 99.21C5.73073 98.7644 4.91883 98.563 4.10871 98.6389H2.51373V103.83H4.46652Z" fill="black"/>
<path opacity="0.5" d="M10.2963 97.832H12.6811C13.6912 97.719 14.708 97.976 15.5432 98.5553C15.9038 98.8489 16.1926 99.2208 16.3876 99.6429C16.5827 100.065 16.6789 100.526 16.6687 100.991C16.6963 101.407 16.6332 101.825 16.484 102.215C16.3349 102.605 16.1033 102.958 15.8048 103.251C15.5063 103.543 15.1481 103.767 14.7549 103.907C14.3617 104.048 13.9427 104.102 13.5268 104.065H13.4097C14.0363 104.456 14.5469 105.007 14.8889 105.661C15.6435 106.819 16.9537 108.887 17.2581 109.356H16.0637C15.2705 107.863 14.3664 106.43 13.3589 105.072C13.1983 104.786 12.9678 104.545 12.6888 104.372C12.4099 104.199 12.0917 104.1 11.7639 104.083H11.2279V109.352H10.3015L10.2963 97.832ZM12.6668 103.476C13.4475 103.544 14.2279 103.343 14.8784 102.906C15.1455 102.663 15.3538 102.363 15.4875 102.028C15.6212 101.693 15.6767 101.332 15.6499 100.973C15.6609 100.579 15.5651 100.19 15.3727 99.8461C15.1803 99.5026 14.8985 99.2175 14.5571 99.0211C13.9883 98.7267 13.3504 98.5918 12.7111 98.6308H11.2174V103.468L12.6668 103.476Z" fill="black"/>
<path opacity="0.5" d="M19.8519 107.878C19.0011 106.61 18.5832 105.101 18.6603 103.577C18.5999 102.126 18.9671 100.689 19.7165 99.4458C20.1041 98.8832 20.6256 98.4257 21.2339 98.1146C21.8421 97.8034 22.5181 97.6484 23.2011 97.6633C23.8841 97.6783 24.5527 97.8628 25.1468 98.2003C25.7408 98.5378 26.2416 99.0176 26.6042 99.5967C27.3157 100.853 27.6538 102.286 27.5787 103.727C27.6984 105.314 27.199 106.885 26.1852 108.112C25.8194 108.569 25.3534 108.935 24.8232 109.184C24.2931 109.432 23.7131 109.555 23.1279 109.543C22.4874 109.555 21.8537 109.41 21.2825 109.12C20.7112 108.83 20.22 108.404 19.8519 107.88V107.878ZM25.6818 107.477C26.3216 106.387 26.6087 105.125 26.504 103.865C26.5698 102.596 26.3521 101.327 25.8665 100.152C25.6241 99.6254 25.2315 99.1818 24.7381 98.877C24.2447 98.5722 23.6724 98.4198 23.0928 98.4388C22.5396 98.4247 21.9932 98.5628 21.5132 98.8381C21.0332 99.1135 20.6381 99.5154 20.371 100C19.8893 101.064 19.6664 102.227 19.7205 103.393C19.6665 104.739 19.9258 106.079 20.4777 107.308C20.7617 107.768 21.1595 108.148 21.6328 108.409C22.1061 108.671 22.6391 108.807 23.18 108.803C23.6766 108.816 24.1681 108.701 24.6071 108.468C25.0461 108.236 25.4176 107.894 25.6856 107.476" fill="black"/>
<path opacity="0.5" d="M29.0463 110.868C29.658 110.655 30.1832 110.248 30.5412 109.708C30.8225 108.981 30.9258 108.198 30.843 107.423V97.8328H31.8006V107.4C31.9153 108.311 31.7752 109.236 31.396 110.073C30.9554 110.746 30.2893 111.24 29.5174 111.466L29.0463 110.868Z" fill="black"/>
<path opacity="0.5" d="M35.3627 97.8313H41.3605L41.2303 98.621H36.3256V102.938H40.3404V103.761H36.3256V108.532H41.549V109.356H35.3667L35.3627 97.8313Z" fill="black"/>
<path opacity="0.5" d="M47.5636 109.524C46.9268 109.54 46.2953 109.405 45.7203 109.13C45.1452 108.856 44.6429 108.451 44.2539 107.946C43.3583 106.691 42.9134 105.169 42.9918 103.629C42.9585 102.243 43.3132 100.876 44.0157 99.6808C44.387 99.0734 44.9086 98.572 45.53 98.2247C46.1514 97.8774 46.8518 97.696 47.5636 97.698C48.5586 97.6741 49.531 97.9959 50.3153 98.6087L49.8156 99.2306C49.1732 98.7168 48.369 98.4483 47.5468 98.4734C46.9324 98.4618 46.3284 98.6347 45.8133 98.9698C45.2982 99.305 44.8955 99.7869 44.6571 100.353C44.1996 101.431 43.9807 102.595 44.0157 103.765C43.9753 104.799 44.1766 105.828 44.6038 106.771C44.8639 107.371 45.2979 107.879 45.8497 108.229C46.4015 108.579 47.0457 108.756 47.6989 108.736C48.5446 108.737 49.3661 108.454 50.0316 107.932L50.552 108.582C49.6724 109.191 48.6292 109.519 47.5597 109.523" fill="black"/>
<path opacity="0.5" d="M55.0693 98.6381H51.8792V97.8328H59.2871L59.2194 98.6381H55.9955V109.352H55.0693V98.6381Z" fill="black"/>
<path opacity="0.5" d="M6.81858 131.21C4.89121 131.189 2.9996 130.687 1.31659 129.747L2.5239 127.218C3.86599 128.023 5.39202 128.471 6.95643 128.519C8.81428 128.519 9.78874 127.751 9.78874 126.307C9.78874 125.267 9.11608 124.616 7.67586 124.226L5.8884 123.739C5.24941 123.626 4.63917 123.387 4.09331 123.036C3.54745 122.685 3.07675 122.23 2.7086 121.695C2.25978 120.954 2.02649 120.102 2.03475 119.235C2.03475 116.287 4.40255 114.243 7.81641 114.243C9.73456 114.227 11.6125 114.793 13.2014 115.868L11.6701 118.19C10.5615 117.425 9.25508 116.998 7.90884 116.961C6.58441 116.961 5.65669 117.726 5.65669 118.816C5.65669 119.653 6.09776 120.072 7.44431 120.441L9.39583 120.974C12.0447 121.695 13.4823 123.389 13.4823 125.78C13.4823 129.052 10.8373 131.212 6.82112 131.212" fill="black"/>
<path opacity="0.5" d="M18.4743 130.863V114.73H27.6646L27.2471 117.377H21.7697V121.113H26.3428V123.761H21.7697V128.079H27.8754V130.863H18.4743Z" fill="black"/>
<path opacity="0.5" d="M32.862 130.863V114.73H42.0537L41.6361 117.377H36.1588V121.113H40.7319V123.761H36.1588V128.079H42.2645V130.863H32.862Z" fill="black"/>
<path opacity="0.5" d="M55.4803 130.863L50.5807 122.436V130.863H47.2592V114.73H50.5807V122.089L55.1773 114.73H59.17L54.0166 122.205L59.7502 130.863H55.4803Z" fill="black"/>
</svg>
