<?xml version="1.0" encoding="UTF-8" standalone="no"?><!DOCTYPE svg PUBLIC "-//W3C//DTD SVG 1.1//EN" "http://www.w3.org/Graphics/SVG/1.1/DTD/svg11.dtd"><svg width="100%" height="100%" viewBox="0 0 208 347" version="1.1" xmlns="http://www.w3.org/2000/svg" xmlns:xlink="http://www.w3.org/1999/xlink" xml:space="preserve" xmlns:serif="http://www.serif.com/" style="fill-rule:evenodd;clip-rule:evenodd;stroke-linejoin:round;stroke-miterlimit:2;"><path d="M203.792,16.433l-23.513,0l0,1.65c0,7.15 2.75,11.962 11.896,11.962c8.592,0 11.617,-4.879 11.617,-11.962l0,-1.65Zm3.441,-14.371l0,15.538c0,16.504 -4.541,27.916 -15.129,27.916c-11.066,0 -15.262,-10.246 -15.262,-27.637l0,-1.446l-17.742,0l0,-14.371l48.133,0Z" style="fill:#fff;fill-rule:nonzero;"/><path d="M203.792,71.569l-20.075,0l0,2.475c0,7.012 3.162,11.687 9.9,11.687c6.671,0 10.175,-4.675 10.175,-11.621l0,-2.541Zm3.441,-14.371l0,19.942c0,13.062 -4.195,23.375 -13.479,23.375c-6.462,0 -10.521,-5.225 -12.375,-12.788l-22.279,16.775l0,-16.362l21.179,-15.746l0,-0.825l-21.179,0l0,-14.371l48.133,0Z" style="fill:#fff;fill-rule:nonzero;"/><path d="M161.645,139.56c0,9.488 6.942,13.409 21.45,13.409c14.096,0 21.521,-3.921 21.521,-13.409c0,-9.42 -7.287,-13.337 -21.383,-13.337c-14.783,0 -21.588,3.917 -21.588,13.337m-3.233,0c0,-16.983 9.696,-28.395 24.754,-28.395c14.992,0 24.684,11.412 24.684,28.395c0,17.05 -9.763,28.534 -24.755,28.534c-14.987,0 -24.683,-11.484 -24.683,-28.534" style="fill:#fff;fill-rule:nonzero;"/><path d="M146.314,168.565c1.716,9.421 3.85,11.896 25.304,11.896l35.612,0l0,14.371l-35.475,0c-18.566,0 -25.441,-11.138 -27.504,-25.992l2.063,-0.275Z" style="fill:#fff;fill-rule:nonzero;"/><path d="M207.232,212.015l0,34.859l-3.442,0l0,-20.625l-18.354,0l0,18.221l-3.438,0l0,-18.221l-19.458,0l0,21.383l-3.438,0l0,-35.617l48.13,0Z" style="fill:#fff;fill-rule:nonzero;"/><path d="M162.541,287.681c0,3.712 0.825,7.012 2.817,10.383l-1.717,1.238c-3.854,-5.225 -5.229,-10.729 -5.229,-17.054c0,-15.746 9.146,-27.225 24.754,-27.225c15.471,0 24.683,11.345 24.683,27.57c0,8.113 -2.266,12.1 -5.362,16.159l-1.584,-1.446c2.271,-3.438 2.821,-7.15 2.821,-10.242c0,-10.246 -7.425,-16.916 -20.487,-16.916c-13.271,0 -20.696,6.875 -20.696,17.533" style="fill:#fff;fill-rule:nonzero;"/><path d="M203.792,319.941l0,-13.546l3.441,0l0,40.225l-3.441,0l0,-12.308l-44.692,0l0,-14.371l44.692,0Z" style="fill:#fff;fill-rule:nonzero;"/><path d="M121.65,13.338c-9.213,0 -8.25,24.684 -24.821,24.684c-9.834,0 -15.609,-8.871 -15.609,-19.663c0,-8.321 3.163,-14.646 6.88,-18.358l1.579,1.512c-2.613,3.229 -5.021,9.213 -5.021,15.196c0,6.392 2.475,9.967 7.083,9.967c11.067,0 9.625,-24.888 25.713,-24.888c7.771,0 13.204,6.53 13.204,18.771c0,7.359 -2.754,11.413 -5.571,14.642l-1.442,-1.579c2.613,-3.438 3.575,-7.084 3.575,-12.1c0,-4.125 -1.375,-8.184 -5.57,-8.184" style="fill:#fff;fill-rule:nonzero;"/><path d="M130.038,49.169l0,34.859l-3.438,0l0,-20.625l-18.358,0l0,18.216l-3.437,0l0,-18.216l-19.459,0l0,21.383l-3.437,0l0,-35.617l48.129,0Z" style="fill:#fff;fill-rule:nonzero;"/><path d="M130.038,96.604l0,34.858l-3.438,0l0,-20.625l-18.358,0l0,18.217l-3.437,0l0,-18.217l-19.459,0l0,21.383l-3.437,0l0,-35.616l48.129,0Z" style="fill:#fff;fill-rule:nonzero;"/><path d="M130.038,186.79l-17.463,-16.775l-30.666,20.625l0,-16.57l20.146,-14.096l-3.096,-2.954l-17.05,0l0,-14.371l48.129,0l0,14.371l-26.608,0l26.608,25.575l0,4.195Z" style="fill:#fff;fill-rule:nonzero;"/><path d="M38.42,5.063l4.125,2.225c-1.587,2.454 -3.416,4.825 -5.5,7.125l-2.641,-1.45c1.55,-2.484 2.891,-5.117 4.016,-7.9m-17.704,3.17l3.859,-1.941c1.129,2.146 2.025,4.375 2.695,6.671l-2.641,1.17c-1.059,-1.962 -2.363,-3.929 -3.913,-5.9m16.546,23.588l-25.9,0l0,4.396l25.9,0l0,-4.396Zm0,-7.058l-25.9,0l0,4.17l25.9,0l0,-4.17Zm-25.9,-2.9l25.9,0l0,-4.005l-25.9,0l0,4.005Zm-4.229,-12.734l3.754,-2.454c1.304,2.046 2.413,4.175 3.329,6.4l-2.537,1.5c-1.234,-1.854 -2.746,-3.671 -4.546,-5.446m-3.542,-2.454l-0.737,-3.167c15.325,-0.22 28.766,-1.391 40.325,-3.508l1.796,4.121c-11.909,1.817 -25.705,2.667 -41.384,2.554m2.909,8.183l35.625,0l0,24.313l-9.092,0l0,5.783c0,1.079 0.4,1.667 1.212,1.779c1.196,0.15 2.505,0.221 3.913,0.221c1.375,0 2.587,-0.071 3.65,-0.221c0.596,-0.037 1.054,-0.22 1.371,-0.558c0.283,-0.367 0.496,-0.887 0.633,-1.554c0.142,-0.704 0.229,-2.021 0.267,-3.95l4.283,2.171c-0.075,2.446 -0.479,4.229 -1.221,5.337c-0.737,1.15 -2.058,1.784 -3.962,1.892c-1.446,0.15 -3.171,0.225 -5.179,0.225c-2.009,0 -3.805,-0.075 -5.392,-0.225c-2.892,-0.258 -4.329,-1.758 -4.329,-4.504l0,-6.396l-8.775,0c-0.6,6.454 -6.713,10.437 -18.342,11.958l-1.004,-3.279c9.021,-1.187 13.862,-4.083 14.533,-8.679l-8.191,0l0,-24.313Z" style="fill:#fff;fill-rule:nonzero;"/><path d="M49.733,84.621l-11.629,0l0,30.317l-4.858,0l0,-30.317l-11.525,0l0,-3.671l11.525,0l0,-17.304l4.858,0l0,17.304l11.629,0l0,3.671Zm-34.516,14.575l-8.984,0l0,7.567l8.984,0l0,-7.567Zm4.55,-3.337l0,18.191l-4.55,0l0,-3.954l-8.984,0l0,4.175l-4.491,0l0,-18.412l18.025,0Zm-18.238,-8.292l18.179,0l0,3.229l-18.179,0l0,-3.229Zm0,-7.787l18.179,0l0,3.229l-18.179,0l0,-3.229Zm19.767,-5.117l-21.296,0l0,-3.342l9.092,0c-0.85,-2.225 -1.838,-4.466 -2.963,-6.729l4.759,-1.117c0.775,2.675 1.408,5.292 1.9,7.846l8.508,0l0,3.342Z" style="fill:#fff;fill-rule:nonzero;"/><path d="M42.545,171.858l0,-44.896l4.438,0l0,46.346c0,1.741 -0.442,2.945 -1.321,3.612c-0.846,0.742 -2.396,1.117 -4.65,1.117c-1.904,0 -3.646,-0.171 -5.234,-0.504l-0.791,-4.063c1.866,0.3 3.525,0.45 4.971,0.45c1.02,0 1.708,-0.15 2.058,-0.45c0.354,-0.258 0.529,-0.792 0.529,-1.612m-8.087,-40.78l3.912,0l0,35.884l-3.912,0l0,-35.884Zm-15.538,37.055l6.446,0l0,-2.671l-6.446,0l0,2.671Zm0,-5.117l6.446,0l0,-2.563l-6.446,0l0,2.563Zm5.813,-23.7l-6.13,0l0,2.783l6.13,0l0,-2.783Zm0,-5.563l-6.13,0l0,2.78l6.13,0l0,-2.78Zm-10.255,31.709l-6.658,0l0,2.671l6.658,0l0,-2.671Zm0,-5.009l-6.658,0l0,2.563l6.658,0l0,-2.563Zm-10.991,-2.554l26.212,0l0,12.792l-26.212,0l0,-12.792Zm28.962,-2.287l-31.446,0l0,-2.775l12.946,0l0,-2.729l-11.254,0l0,-2.671l11.254,0l0,-2.563l-11.046,0l0,-2.775l11.046,0l0,-2.783l-13.371,0l0,-2.783l13.371,0l0,-2.78l-10.462,0l0,-2.729l10.462,0l0,-3.616l4.654,0l0,3.616l10.571,0l0,5.509l3.488,0l0,2.783l-3.488,0l0,5.558l-10.571,0l0,2.563l12.209,0l0,2.671l-12.209,0l0,2.729l13.846,0l0,2.775Zm-31.762,21.7l-0.475,-3.613c11.662,-0.15 22.529,-0.671 32.608,-1.562l0.317,2.783c-9.863,1.15 -20.684,1.946 -32.45,2.392" style="fill:#fff;fill-rule:nonzero;"/></svg>