<?xml version="1.0" encoding="UTF-8" standalone="no"?>
<!-- Created with Inkscape (http://www.inkscape.org/) -->

<svg
   version="1.1"
   id="svg2152"
   width="131.07574"
   height="176.93733"
   viewBox="0 0 131.07574 176.93733"
   sodipodi:docname="logo_RGB_ps.ai"
   xmlns:inkscape="http://www.inkscape.org/namespaces/inkscape"
   xmlns:sodipodi="http://sodipodi.sourceforge.net/DTD/sodipodi-0.dtd"
   xmlns="http://www.w3.org/2000/svg"
   xmlns:svg="http://www.w3.org/2000/svg">
  <defs
     id="defs2156">
    <clipPath
       clipPathUnits="userSpaceOnUse"
       id="clipPath2432">
      <path
         d="M 0,132.703 H 98.307 V 0 H 0 Z"
         id="path2430" />
    </clipPath>
  </defs>
  <sodipodi:namedview
     id="namedview2154"
     pagecolor="#ffffff"
     bordercolor="#000000"
     borderopacity="0.25"
     inkscape:showpageshadow="2"
     inkscape:pageopacity="0.0"
     inkscape:pagecheckerboard="0"
     inkscape:deskcolor="#d1d1d1"
     showgrid="false" />
  <g
     id="g2424"
     inkscape:groupmode="layer"
     inkscape:label="Page 5"
     transform="matrix(1.3333333,0,0,-1.3333333,-3.2392948e-5,176.93733)">
    <g
       id="g2426">
      <g
         id="g2428"
         clip-path="url(#clipPath2432)">
        <g
           id="g2434"
           transform="translate(72.7531,103.9535)">
          <path
             d="m 0,0 h -5.67 v -0.398 c 0,-1.724 0.663,-2.884 2.868,-2.884 2.072,0 2.802,1.177 2.802,2.884 z m 0.829,3.465 v -3.747 c 0,-3.979 -1.094,-6.73 -3.647,-6.73 -2.669,0 -3.681,2.47 -3.681,6.664 V 0 h -4.277 v 3.465 z"
             style="fill:#231815;fill-opacity:1;fill-rule:nonzero;stroke:none"
             id="path2436" />
        </g>
        <g
           id="g2438"
           transform="translate(72.7531,90.6596)">
          <path
             d="m 0,0 h -4.841 v -0.597 c 0,-1.691 0.763,-2.818 2.388,-2.818 1.607,0 2.453,1.127 2.453,2.801 z m 0.829,3.465 v -4.808 c 0,-3.15 -1.011,-5.637 -3.249,-5.637 -1.558,0 -2.537,1.26 -2.985,3.084 l -5.371,-4.045 v 3.946 l 5.106,3.796 V 0 h -5.106 v 3.465 z"
             style="fill:#231815;fill-opacity:1;fill-rule:nonzero;stroke:none"
             id="path2440" />
        </g>
        <g
           id="g2442"
           transform="translate(62.5908,74.2655)">
          <path
             d="m 0,0 c 0,-2.288 1.674,-3.233 5.172,-3.233 3.399,0 5.19,0.945 5.19,3.233 0,2.271 -1.758,3.216 -5.157,3.216 C 1.641,3.216 0,2.271 0,0 m -0.779,0 c 0,4.094 2.337,6.847 5.968,6.847 3.614,0 5.951,-2.753 5.951,-6.847 0,-4.111 -2.354,-6.88 -5.968,-6.88 -3.614,0 -5.951,2.769 -5.951,6.88"
             style="fill:#231815;fill-opacity:1;fill-rule:nonzero;stroke:none"
             id="path2444" />
        </g>
        <g
           id="g2446"
           transform="translate(58.8936,67.2714)">
          <path
             d="m 0,0 c 0.414,-2.271 0.928,-2.868 6.101,-2.868 h 8.588 V -6.333 H 6.134 c -4.476,0 -6.134,2.686 -6.631,6.267 z"
             style="fill:#231815;fill-opacity:1;fill-rule:nonzero;stroke:none"
             id="path2448" />
        </g>
        <g
           id="g2450"
           transform="translate(73.5821,56.7951)">
          <path
             d="m 0,0 v -8.405 h -0.829 v 4.973 h -4.426 v -4.393 h -0.829 v 4.393 h -4.692 v -5.156 h -0.829 V 0 Z"
             style="fill:#231815;fill-opacity:1;fill-rule:nonzero;stroke:none"
             id="path2452" />
        </g>
        <g
           id="g2454"
           transform="translate(62.8062,38.5507)">
          <path
             d="M 0,0 C 0,-0.896 0.199,-1.691 0.679,-2.504 L 0.265,-2.802 c -0.928,1.26 -1.26,2.586 -1.26,4.112 0,3.796 2.205,6.565 5.968,6.565 3.731,0 5.952,-2.736 5.952,-6.649 0,-1.956 -0.547,-2.917 -1.293,-3.895 L 9.25,-2.321 c 0.548,0.829 0.68,1.724 0.68,2.47 0,2.47 -1.79,4.078 -4.94,4.078 C 1.791,4.227 0,2.569 0,0"
             style="fill:#231815;fill-opacity:1;fill-rule:nonzero;stroke:none"
             id="path2456" />
        </g>
        <g
           id="g2458"
           transform="translate(72.7531,30.7721)">
          <path
             d="M 0,0 V 3.266 H 0.829 V -6.432 H 0 v 2.967 H -10.776 V 0 Z"
             style="fill:#231815;fill-opacity:1;fill-rule:nonzero;stroke:none"
             id="path2460" />
        </g>
        <g
           id="g2462"
           transform="translate(52.947,104.6996)">
          <path
             d="m 0,0 c -2.221,0 -1.989,-5.951 -5.985,-5.951 -2.371,0 -3.763,2.138 -3.763,4.741 0,2.006 0.762,3.531 1.658,4.426 l 0.381,-0.364 c -0.63,-0.78 -1.21,-2.222 -1.21,-3.664 0,-1.542 0.597,-2.404 1.707,-2.404 2.669,0 2.321,6.001 6.2,6.001 1.874,0 3.184,-1.575 3.184,-4.525 0,-1.774 -0.664,-2.753 -1.343,-3.532 L 0.481,-4.89 C 1.11,-4.061 1.343,-3.183 1.343,-1.972 1.343,-0.978 1.011,0 0,0"
             style="fill:#231815;fill-opacity:1;fill-rule:nonzero;stroke:none"
             id="path2464" />
        </g>
        <g
           id="g2466"
           transform="translate(54.9696,96.0606)">
          <path
             d="m 0,0 v -8.405 h -0.829 v 4.973 h -4.427 v -4.393 h -0.828 v 4.393 h -4.692 v -5.156 h -0.829 V 0 Z"
             style="fill:#231815;fill-opacity:1;fill-rule:nonzero;stroke:none"
             id="path2468" />
        </g>
        <g
           id="g2470"
           transform="translate(54.9696,84.6232)">
          <path
             d="m 0,0 v -8.405 h -0.829 v 4.973 h -4.427 v -4.393 h -0.828 v 4.393 h -4.692 v -5.156 h -0.829 V 0 Z"
             style="fill:#231815;fill-opacity:1;fill-rule:nonzero;stroke:none"
             id="path2472" />
        </g>
        <g
           id="g2474"
           transform="translate(54.9696,62.8769)">
          <path
             d="m 0,0 -4.211,4.045 -7.394,-4.973 v 3.995 l 4.857,3.399 -0.746,0.713 h -4.111 v 3.464 H 0 V 7.179 H -6.416 L 0,1.011 Z"
             style="fill:#231815;fill-opacity:1;fill-rule:nonzero;stroke:none"
             id="path2476" />
        </g>
        <g
           id="g2478"
           transform="translate(32.9743,106.9093)">
          <path
             d="M 0,0 0.993,-0.536 C 0.611,-1.126 0.17,-1.697 -0.331,-2.251 l -0.636,0.348 C -0.594,-1.304 -0.272,-0.67 0,0 m -4.264,-0.764 0.93,0.469 c 0.271,-0.518 0.487,-1.054 0.649,-1.608 l -0.637,-0.281 c -0.254,0.474 -0.568,0.947 -0.942,1.42 m 3.984,-5.68 h -6.236 v -1.058 h 6.236 z m 0,1.701 h -6.236 v -1.005 h 6.236 z m -6.236,0.697 h 6.236 v 0.965 h -6.236 z m -1.018,3.068 0.903,0.589 c 0.314,-0.491 0.581,-1.004 0.802,-1.54 L -6.44,-2.291 c -0.297,0.446 -0.662,0.884 -1.094,1.313 m -0.853,0.589 -0.178,0.764 c 3.69,0.054 6.927,0.335 9.711,0.844 L 1.578,0.228 C -1.29,-0.21 -4.612,-0.416 -8.387,-0.389 m 1.871,-1.969 h 6.236 0.585 0.586 v -5.145 -0.348 -0.362 h -2.189 v -1.393 c 0,-0.259 0.097,-0.401 0.292,-0.429 0.289,-0.035 0.603,-0.053 0.942,-0.053 0.331,0 0.624,0.018 0.878,0.053 0.145,0.01 0.255,0.054 0.332,0.135 0.067,0.089 0.118,0.214 0.152,0.375 0.034,0.169 0.055,0.487 0.064,0.951 l 1.031,-0.522 c -0.018,-0.59 -0.115,-1.019 -0.293,-1.287 -0.178,-0.276 -0.496,-0.428 -0.954,-0.455 -0.348,-0.036 -0.764,-0.054 -1.248,-0.054 -0.484,0 -0.916,0.018 -1.298,0.054 -0.696,0.063 -1.043,0.424 -1.043,1.085 v 1.54 h -2.113 c -0.145,-1.553 -1.617,-2.514 -4.417,-2.88 l -0.241,0.791 c 2.172,0.286 3.339,0.982 3.499,2.089 h -1.972 v 0.362 0.348 5.145 h 0.585 z"
             style="fill:#231815;fill-opacity:1;fill-rule:nonzero;stroke:none"
             id="path2480" />
        </g>
        <g
           id="g2482"
           transform="translate(35.6978,87.7517)">
          <path
             d="M 0,0 H -2.8 V -7.301 H -3.971 V 0 h -2.774 v 0.884 h 2.774 V 5.05 H -2.8 V 0.884 H 0 Z m -8.311,-3.51 h -2.163 v -1.822 h 2.163 z m 1.095,0.804 v -4.381 h -1.095 v 0.951 h -2.163 v -1.005 h -1.082 v 3.631 0.402 0.402 h 3.245 0.548 z m -4.391,1.996 h 4.378 v -0.777 h -4.378 z m 0,1.876 h 4.378 V 0.389 h -4.378 z m 4.76,1.232 h -5.129 v 0.804 h 2.189 c -0.203,0.536 -0.441,1.076 -0.712,1.621 l 1.145,0.268 c 0.186,-0.643 0.339,-1.273 0.458,-1.889 h 2.049 z"
             style="fill:#231815;fill-opacity:1;fill-rule:nonzero;stroke:none"
             id="path2484" />
        </g>
        <path
           d="m 33.076,68.179 h -2.749 v -0.777 h 2.749 z m -2.749,0.59 h 2.749 v 0.737 h -2.749 z m 2.698,5.921 h -2.8 v -0.67 h 2.8 z m 0,1.313 h -2.8 V 75.32 h 2.8 z m -3.843,-7.824 h -2.787 v -0.777 h 2.787 z m -2.787,0.59 h 2.787 v 0.737 h -2.787 z m 0,1.353 h 6.681 0.586 0.585 v -2.72 -0.308 -0.295 h -9.036 v 0.295 0.308 2.72 h 0.598 z M 23.951,66.143 H 35.443 V 65.446 H 23.951 Z m 11.428,4.608 H 23.938 v 0.616 h 5.091 v 0.724 h -4.238 v 0.616 h 4.238 v 0.683 h -4.035 v 0.63 h 4.035 v 0.67 h -5.027 v 0.63 h 5.027 v 0.683 h -4.035 v 0.629 h 4.035 v 0.925 h 1.196 v -0.925 h 2.8 0.573 0.585 V 75.32 h 1.209 V 74.69 H 34.183 V 74.02 73.712 73.39 h -3.958 v -0.683 h 4.314 v -0.616 h -4.314 v -0.724 h 5.154 z"
           style="fill:#231815;fill-opacity:1;fill-rule:nonzero;stroke:none"
           id="path2486" />
      </g>
    </g>
  </g>
</svg>
