<svg width="60" height="132" viewBox="0 0 60 132" fill="none" xmlns="http://www.w3.org/2000/svg">
<path d="M4.88713 7.73125L3.64136 9.04928C2.54041 8.23831 1.37372 7.52074 0.15329 6.90406L1.49122 5.5661C2.69823 6.16278 3.83684 6.88875 4.88713 7.73125V7.73125ZM5.14504 12.9635C4.273 14.7686 3.35742 16.4429 2.40441 18.0201C2.40441 18.5072 2.23494 18.7675 1.8936 18.7675L0.237994 17.3623C1.66631 15.5156 2.9176 13.5386 3.97531 11.4574L5.14504 12.9635ZM5.80153 2.82914L4.54831 4.1671C3.50163 3.36166 2.39467 2.63781 1.2371 2.00195L2.5726 0.682683C3.724 1.2763 4.80672 1.99442 5.80153 2.82416V2.82914ZM10.9852 14.066C11.1098 14.1719 11.1983 14.2778 11.1983 14.365C11.1983 14.4896 11.0737 14.5755 10.8582 14.6141C9.76692 16.2502 8.4906 17.755 7.05476 19.0989L5.3108 17.7585C6.9919 16.4866 8.44968 14.9441 9.62477 13.194L10.9852 14.066ZM8.94713 4.33777V0L10.6464 0.147001C10.9441 0.190603 11.1135 0.271578 11.1135 0.423562C11.1135 0.50952 10.9889 0.656522 10.7734 0.828439V4.33279H14.2616V0L15.9596 0.147001C16.2574 0.190603 16.4268 0.271578 16.4268 0.423562C16.4268 0.50952 16.3022 0.656522 16.0892 0.828439V4.33279H18.7439V6.07687H16.0892V10.386H19.4229V12.1301H5.38182V10.386H8.95094V6.07562H6.14795V4.33155L8.94713 4.33777ZM14.2579 6.08185H10.7697V10.386H14.2579V6.08185ZM19.505 17.6812L17.6788 19.0192C16.2405 17.6115 15.0357 15.9836 14.1097 14.1968L15.5946 13.2002C16.5535 14.9607 17.8886 16.4881 19.505 17.6737V17.6812Z" fill="white"/>
<path d="M4.88713 7.73125L3.64136 9.04928C2.54041 8.23831 1.37372 7.52074 0.15329 6.90406L1.49122 5.5661C2.69823 6.16278 3.83684 6.88875 4.88713 7.73125V7.73125ZM5.14504 12.9635C4.273 14.7686 3.35742 16.4429 2.40441 18.0201C2.40441 18.5072 2.23494 18.7675 1.8936 18.7675L0.237994 17.3623C1.66631 15.5156 2.9176 13.5386 3.97531 11.4574L5.14504 12.9635ZM5.80153 2.82914L4.54831 4.1671C3.50163 3.36166 2.39467 2.63781 1.2371 2.00195L2.5726 0.682683C3.724 1.2763 4.80672 1.99442 5.80153 2.82416V2.82914ZM10.9852 14.066C11.1098 14.1719 11.1983 14.2778 11.1983 14.365C11.1983 14.4896 11.0737 14.5755 10.8582 14.6141C9.76692 16.2502 8.4906 17.755 7.05476 19.0989L5.3108 17.7585C6.9919 16.4866 8.44968 14.9441 9.62477 13.194L10.9852 14.066ZM8.94713 4.33777V0L10.6464 0.147001C10.9441 0.190603 11.1135 0.271578 11.1135 0.423562C11.1135 0.50952 10.9889 0.656522 10.7734 0.828439V4.33279H14.2616V0L15.9596 0.147001C16.2574 0.190603 16.4268 0.271578 16.4268 0.423562C16.4268 0.50952 16.3022 0.656522 16.0892 0.828439V4.33279H18.7439V6.07687H16.0892V10.386H19.4229V12.1301H5.38182V10.386H8.95094V6.07562H6.14795V4.33155L8.94713 4.33777ZM14.2579 6.08185H10.7697V10.386H14.2579V6.08185ZM19.505 17.6812L17.6788 19.0192C16.2405 17.6115 15.0357 15.9836 14.1097 14.1968L15.5946 13.2002C16.5535 14.9607 17.8886 16.4881 19.505 17.6737V17.6812Z" fill="url(#paint0_linear)"/>
<path d="M31.5442 1.33794V0.170654L33.2882 0.3189C33.6083 0.341324 33.7754 0.423547 33.7754 0.592971C33.7754 0.700108 33.672 0.870775 33.4577 1.0838V1.33296H37.854V4.15712H39.7463V5.81524H37.8503V8.64189H33.4539V9.95992H38.0845V11.6143H33.4539V12.9548H38.5965V14.6988H33.4539V17.0371C34.5813 17.0795 35.8557 17.1007 37.2572 17.1007C37.8926 17.1007 38.7235 17.0795 39.7425 17.0135L38.8281 19.0976C35.9639 19.1284 33.1001 19.0149 30.2473 18.7575C28.8837 18.638 27.5375 18.3677 26.2334 17.9515C25.5029 17.7009 24.8039 17.3665 24.1505 16.9549C23.4539 17.9109 22.5817 18.7256 21.5805 19.3555L20.179 17.8456C21.1481 17.3482 21.985 16.6274 22.6206 15.7428C21.7692 14.8082 21.056 13.7565 20.5029 12.6196L22.009 12.0478C22.4805 12.7736 23.0065 13.4624 23.5825 14.1083C24.18 12.5452 24.5166 10.8946 24.579 9.22242H22.8349L22.1549 10.6227L20.4991 10.0509L23.7481 3.25269H20.5838V1.50861H24.1517L24.6613 1.34043C24.837 1.34783 25.0066 1.40627 25.1496 1.50861L26.1911 2.14644C26.2448 2.17409 26.2916 2.2132 26.3285 2.26099C26.3653 2.30879 26.3911 2.3641 26.4042 2.42301C26.4042 2.61485 26.2347 2.80546 25.8934 2.99731L23.6845 7.48208H26.4042C26.4227 10.0447 26.0134 12.5924 25.1932 15.0202C25.1511 15.1308 25.1011 15.2382 25.0438 15.3416C26.003 15.9457 27.0711 16.3563 28.188 16.55C29.2923 16.7855 30.4156 16.9214 31.5442 16.9562V14.6988H26.4042V12.9548H31.5442V11.618H27.0593V9.96366H31.5442V8.64189H27.5514V6.98502H31.5442V5.81648H25.8135V4.15712H31.5442V2.98983H27.5514V1.33296L31.5442 1.33794ZM33.4551 4.1621H36.0251V2.99481H33.4551V4.1621ZM33.4551 6.98876H36.0251V5.82022H33.4551V6.98876Z" fill="white"/>
<path d="M31.5442 1.33794V0.170654L33.2882 0.3189C33.6083 0.341324 33.7754 0.423547 33.7754 0.592971C33.7754 0.700108 33.672 0.870775 33.4577 1.0838V1.33296H37.854V4.15712H39.7463V5.81524H37.8503V8.64189H33.4539V9.95992H38.0845V11.6143H33.4539V12.9548H38.5965V14.6988H33.4539V17.0371C34.5813 17.0795 35.8557 17.1007 37.2572 17.1007C37.8926 17.1007 38.7235 17.0795 39.7425 17.0135L38.8281 19.0976C35.9639 19.1284 33.1001 19.0149 30.2473 18.7575C28.8837 18.638 27.5375 18.3677 26.2334 17.9515C25.5029 17.7009 24.8039 17.3665 24.1505 16.9549C23.4539 17.9109 22.5817 18.7256 21.5805 19.3555L20.179 17.8456C21.1481 17.3482 21.985 16.6274 22.6206 15.7428C21.7692 14.8082 21.056 13.7565 20.5029 12.6196L22.009 12.0478C22.4805 12.7736 23.0065 13.4624 23.5825 14.1083C24.18 12.5452 24.5166 10.8946 24.579 9.22242H22.8349L22.1549 10.6227L20.4991 10.0509L23.7481 3.25269H20.5838V1.50861H24.1517L24.6613 1.34043C24.837 1.34783 25.0066 1.40627 25.1496 1.50861L26.1911 2.14644C26.2448 2.17409 26.2916 2.2132 26.3285 2.26099C26.3653 2.30879 26.3911 2.3641 26.4042 2.42301C26.4042 2.61485 26.2347 2.80546 25.8934 2.99731L23.6845 7.48208H26.4042C26.4227 10.0447 26.0134 12.5924 25.1932 15.0202C25.1511 15.1308 25.1011 15.2382 25.0438 15.3416C26.003 15.9457 27.0711 16.3563 28.188 16.55C29.2923 16.7855 30.4156 16.9214 31.5442 16.9562V14.6988H26.4042V12.9548H31.5442V11.618H27.0593V9.96366H31.5442V8.64189H27.5514V6.98502H31.5442V5.81648H25.8135V4.15712H31.5442V2.98983H27.5514V1.33296L31.5442 1.33794ZM33.4551 4.1621H36.0251V2.99481H33.4551V4.1621ZM33.4551 6.98876H36.0251V5.82022H33.4551V6.98876Z" fill="url(#paint1_linear)"/>
<path d="M44.4952 2.42056V0.593018H51.9512C52.8345 2.20357 54.0416 3.61387 55.4966 4.7352C56.8675 5.75661 58.3499 6.61922 59.9153 7.30648L58.4291 9.05055C57.8349 8.70921 57.283 8.38905 56.7747 8.07262V9.63855H51.2074V12.2933H56.1993V14.0374H51.2074V16.8404H59.3435V18.5844H40.9273V16.8404H49.2317V14.0374H44.4977V12.2933H49.2317V9.63855H43.8299V8.00784C43.278 8.34669 42.6825 8.66685 42.0858 8.96335L40.3419 7.39243C42.1634 6.67166 43.9065 5.76668 45.5441 4.6916C46.5007 4.03793 47.3787 3.27586 48.1603 2.42056H44.4952ZM56.4757 7.88077C55.4435 7.25308 54.4692 6.53476 53.5643 5.73431C52.469 4.75919 51.5059 3.64519 50.6991 2.42056H50.1049C49.1551 3.71146 48.066 4.89377 46.8572 5.94609C45.9764 6.66589 45.0386 7.31291 44.053 7.88077H56.4757Z" fill="white"/>
<path d="M44.4952 2.42056V0.593018H51.9512C52.8345 2.20357 54.0416 3.61387 55.4966 4.7352C56.8675 5.75661 58.3499 6.61922 59.9153 7.30648L58.4291 9.05055C57.8349 8.70921 57.283 8.38905 56.7747 8.07262V9.63855H51.2074V12.2933H56.1993V14.0374H51.2074V16.8404H59.3435V18.5844H40.9273V16.8404H49.2317V14.0374H44.4977V12.2933H49.2317V9.63855H43.8299V8.00784C43.278 8.34669 42.6825 8.66685 42.0858 8.96335L40.3419 7.39243C42.1634 6.67166 43.9065 5.76668 45.5441 4.6916C46.5007 4.03793 47.3787 3.27586 48.1603 2.42056H44.4952ZM56.4757 7.88077C55.4435 7.25308 54.4692 6.53476 53.5643 5.73431C52.469 4.75919 51.5059 3.64519 50.6991 2.42056H50.1049C49.1551 3.71146 48.066 4.89377 46.8572 5.94609C45.9764 6.66589 45.0386 7.31291 44.053 7.88077H56.4757Z" fill="url(#paint2_linear)"/>
<path d="M5.05912 23.2348V21.1519H5.97231V23.2348H13.6823V21.1519H14.598V23.2348H18.5918V24.062H14.598V31.4544H19.332V32.2803H13.3834C15.1569 34.1299 17.289 35.5983 19.6495 36.5957L18.902 37.4241C16.3606 36.2161 14.1188 34.4593 12.3382 32.2803H7.304C6.48277 33.3189 5.51796 34.2354 4.43867 35.0023C3.17134 35.9091 1.81969 36.6917 0.402381 37.3394L0 36.5919C1.35158 35.9992 2.63307 35.258 3.8208 34.3819C4.70038 33.7839 5.50037 33.0764 6.20148 32.2766H0.147053V31.4506H5.0541V24.062H0.914407V23.2348H5.05912ZM9.28595 35.3437V33.1972H10.2004V35.3437H14.7686V36.1908H10.1941V39.0822H17.9902V39.9107H1.56968V39.0847H9.27971V36.1908H4.88089V35.3437H9.28595ZM13.6823 25.8061V24.062H5.97231V25.8061H13.6823ZM13.6823 28.5467V26.632H5.97231V28.543L13.6823 28.5467ZM13.6823 31.4581V29.3752H5.97231V31.4544L13.6823 31.4581Z" fill="white"/>
<path d="M5.05912 23.2348V21.1519H5.97231V23.2348H13.6823V21.1519H14.598V23.2348H18.5918V24.062H14.598V31.4544H19.332V32.2803H13.3834C15.1569 34.1299 17.289 35.5983 19.6495 36.5957L18.902 37.4241C16.3606 36.2161 14.1188 34.4593 12.3382 32.2803H7.304C6.48277 33.3189 5.51796 34.2354 4.43867 35.0023C3.17134 35.9091 1.81969 36.6917 0.402381 37.3394L0 36.5919C1.35158 35.9992 2.63307 35.258 3.8208 34.3819C4.70038 33.7839 5.50037 33.0764 6.20148 32.2766H0.147053V31.4506H5.0541V24.062H0.914407V23.2348H5.05912ZM9.28595 35.3437V33.1972H10.2004V35.3437H14.7686V36.1908H10.1941V39.0822H17.9902V39.9107H1.56968V39.0847H9.27971V36.1908H4.88089V35.3437H9.28595ZM13.6823 25.8061V24.062H5.97231V25.8061H13.6823ZM13.6823 28.5467V26.632H5.97231V28.543L13.6823 28.5467ZM13.6823 31.4581V29.3752H5.97231V31.4544L13.6823 31.4581Z" fill="url(#paint3_linear)"/>
<path d="M31.1231 21.6639C30.8927 21.9367 30.6571 22.1934 30.4453 22.4288C31.8787 23.8072 33.4358 25.0507 35.0971 26.1437C36.5909 27.1712 38.1755 28.0602 39.831 28.7997L39.258 29.7963C37.568 29.0009 35.9602 28.0412 34.4581 26.931C32.8047 25.7813 31.2615 24.4805 29.8486 23.0455C28.6971 24.1889 27.4694 25.2527 26.1737 26.2296C24.4156 27.5744 22.5469 28.7679 20.5876 29.7975L20.0993 28.8856C22.0336 27.9657 23.8633 26.8406 25.557 25.5295C27.3132 24.2202 28.9289 22.7323 30.3781 21.0896L31.1231 21.6639ZM35.0311 27.4605V28.3736H30.4666V31.6238H38.1767V32.5382H30.4666V38.6774H39.5134V39.5905H20.5041V38.6774H29.4738V32.5382H21.7611V31.6238H29.4738V28.3736H24.8943V27.4605H35.0311ZM27.3222 37.3394L26.4714 38.1691C25.5427 36.68 24.4614 35.2918 23.2449 34.0269L23.9026 33.3679C25.1616 34.5829 26.3047 35.9125 27.3172 37.3394H27.3222ZM36.774 33.6856C35.9025 35.2702 34.8083 36.7218 33.5249 37.996L32.6952 37.3394C34.0064 36.1533 35.1059 34.7525 35.9467 33.1972L36.774 33.6856Z" fill="white"/>
<path d="M31.1231 21.6639C30.8927 21.9367 30.6571 22.1934 30.4453 22.4288C31.8787 23.8072 33.4358 25.0507 35.0971 26.1437C36.5909 27.1712 38.1755 28.0602 39.831 28.7997L39.258 29.7963C37.568 29.0009 35.9602 28.0412 34.4581 26.931C32.8047 25.7813 31.2615 24.4805 29.8486 23.0455C28.6971 24.1889 27.4694 25.2527 26.1737 26.2296C24.4156 27.5744 22.5469 28.7679 20.5876 29.7975L20.0993 28.8856C22.0336 27.9657 23.8633 26.8406 25.557 25.5295C27.3132 24.2202 28.9289 22.7323 30.3781 21.0896L31.1231 21.6639ZM35.0311 27.4605V28.3736H30.4666V31.6238H38.1767V32.5382H30.4666V38.6774H39.5134V39.5905H20.5041V38.6774H29.4738V32.5382H21.7611V31.6238H29.4738V28.3736H24.8943V27.4605H35.0311ZM27.3222 37.3394L26.4714 38.1691C25.5427 36.68 24.4614 35.2918 23.2449 34.0269L23.9026 33.3679C25.1616 34.5829 26.3047 35.9125 27.3172 37.3394H27.3222ZM36.774 33.6856C35.9025 35.2702 34.8083 36.7218 33.5249 37.996L32.6952 37.3394C34.0064 36.1533 35.1059 34.7525 35.9467 33.1972L36.774 33.6856Z" fill="url(#paint4_linear)"/>
<path d="M51.038 21.5765C50.9109 21.7052 50.7834 21.8323 50.6555 21.9577C52.1044 23.181 53.6619 24.2698 55.3084 25.2104C56.7999 26.1267 58.3699 26.9084 60 27.5462L59.5141 28.4594C58.8033 28.1688 58.1078 27.8424 57.43 27.4814V32.3686H42.7523V27.4814C42.031 27.8651 41.3733 28.184 40.7591 28.4594L40.2695 27.6297C42.1534 26.8674 43.9544 25.9139 45.6438 24.7843C47.3447 23.6861 48.9306 22.4194 50.3777 21.0034L51.038 21.5765ZM56.624 27.0579C55.9887 26.7165 55.3496 26.3577 54.7554 25.9753C53.104 24.9468 51.5469 23.7741 50.1024 22.4709C49.0938 23.3799 48.0227 24.217 46.8971 24.9762C46.6628 25.1456 46.4286 25.3175 46.2181 25.4409C45.2613 26.0637 44.3681 26.5907 43.5185 27.0604L56.624 27.0579ZM49.5518 31.5426V27.8875H43.6692V31.5389L49.5518 31.5426ZM48.0631 30.6295L47.4912 31.2038C46.7318 30.2996 45.8926 29.4657 44.9835 28.7122L45.5791 28.2252C46.4705 28.9578 47.302 29.7606 48.0656 30.6257L48.0631 30.6295ZM53.0338 24.9799V25.8096H46.8971V24.9799H53.0338ZM50.4637 31.5426H56.5182V27.8875H50.4637V31.5426ZM55.2849 28.6325C54.5761 29.6494 53.7088 30.5461 52.7161 31.2885L52.0371 30.713C52.9972 30.047 53.8432 29.23 54.5423 28.2937L55.2849 28.6325Z" fill="white"/>
<path d="M51.038 21.5765C50.9109 21.7052 50.7834 21.8323 50.6555 21.9577C52.1044 23.181 53.6619 24.2698 55.3084 25.2104C56.7999 26.1267 58.3699 26.9084 60 27.5462L59.5141 28.4594C58.8033 28.1688 58.1078 27.8424 57.43 27.4814V32.3686H42.7523V27.4814C42.031 27.8651 41.3733 28.184 40.7591 28.4594L40.2695 27.6297C42.1534 26.8674 43.9544 25.9139 45.6438 24.7843C47.3447 23.6861 48.9306 22.4194 50.3777 21.0034L51.038 21.5765ZM56.624 27.0579C55.9887 26.7165 55.3496 26.3577 54.7554 25.9753C53.104 24.9468 51.5469 23.7741 50.1024 22.4709C49.0938 23.3799 48.0227 24.217 46.8971 24.9762C46.6628 25.1456 46.4286 25.3175 46.2181 25.4409C45.2613 26.0637 44.3681 26.5907 43.5185 27.0604L56.624 27.0579ZM49.5518 31.5426V27.8875H43.6692V31.5389L49.5518 31.5426ZM48.0631 30.6295L47.4912 31.2038C46.7318 30.2996 45.8926 29.4657 44.9835 28.7122L45.5791 28.2252C46.4705 28.9578 47.302 29.7606 48.0656 30.6257L48.0631 30.6295ZM53.0338 24.9799V25.8096H46.8971V24.9799H53.0338ZM50.4637 31.5426H56.5182V27.8875H50.4637V31.5426ZM55.2849 28.6325C54.5761 29.6494 53.7088 30.5461 52.7161 31.2885L52.0371 30.713C52.9972 30.047 53.8432 29.23 54.5423 28.2937L55.2849 28.6325Z" fill="url(#paint5_linear)"/>
<path d="M7.84218 54.8599V50.0823H3.55163V54.8599H1.5011V44.231H3.55163V48.3819H7.84218V44.231H9.91385V54.8599H7.84218Z" fill="white"/>
<path d="M7.84218 54.8599V50.0823H3.55163V54.8599H1.5011V44.231H3.55163V48.3819H7.84218V44.231H9.91385V54.8599H7.84218Z" fill="url(#paint6_linear)"/>
<path d="M22.4638 51.8103C22.292 52.3984 21.9897 52.9401 21.5793 53.3949C21.1435 53.9265 20.5887 54.3482 19.9598 54.6258C18.5382 55.1093 16.9996 55.1272 15.5672 54.6768C14.9706 54.4397 14.4354 54.0709 14.0013 53.598C13.5172 53.0692 13.1388 52.4526 12.8863 51.7817C12.6294 51.0466 12.5054 50.2717 12.5201 49.4932C12.4361 48.037 12.9207 46.6051 13.8717 45.4992C14.3471 45.0081 14.9222 44.6245 15.5582 44.3741C16.1943 44.1238 16.8765 44.0126 17.5592 44.0479C18.3599 44.0277 19.1551 44.1868 19.8863 44.5138C20.5227 44.8103 21.0877 45.2403 21.5431 45.7746C21.9537 46.2442 22.2587 46.7965 22.4376 47.3941C22.6384 48.1085 22.7342 48.8483 22.7217 49.5904C22.7389 50.3387 22.6521 51.0858 22.4638 51.8103ZM20.3311 48.1228C20.2665 47.7132 20.1323 47.3177 19.9348 46.953C19.7171 46.5447 19.3701 46.22 18.9482 46.0299C18.4889 45.8364 17.994 45.7426 17.4957 45.7546C17.0598 45.7521 16.6277 45.8368 16.225 46.0038C15.8694 46.1381 15.5615 46.3748 15.3404 46.684C15.1263 47.011 14.9779 47.3766 14.9032 47.7603C14.8078 48.2695 14.7636 48.787 14.7712 49.3051C14.7645 49.9125 14.8224 50.5188 14.9443 51.1139C15.0354 51.5825 15.2106 52.0307 15.4613 52.4369C15.6678 52.7615 15.9736 53.0106 16.3333 53.147C16.7728 53.3193 17.2417 53.4039 17.7137 53.3962C18.2322 53.4132 18.7466 53.2983 19.2087 53.0623C19.6027 52.8433 19.9083 52.494 20.0732 52.0744C20.0869 52.0345 20.1018 51.9922 20.1229 51.9498C20.1443 51.8998 20.1619 51.8481 20.1754 51.7954C20.2714 51.515 20.3394 51.2258 20.3784 50.932C20.422 50.5599 20.4419 50.1855 20.4382 49.8108C20.4486 49.2462 20.4128 48.6816 20.3311 48.1228V48.1228Z" fill="white"/>
<path d="M22.4638 51.8103C22.292 52.3984 21.9897 52.9401 21.5793 53.3949C21.1435 53.9265 20.5887 54.3482 19.9598 54.6258C18.5382 55.1093 16.9996 55.1272 15.5672 54.6768C14.9706 54.4397 14.4354 54.0709 14.0013 53.598C13.5172 53.0692 13.1388 52.4526 12.8863 51.7817C12.6294 51.0466 12.5054 50.2717 12.5201 49.4932C12.4361 48.037 12.9207 46.6051 13.8717 45.4992C14.3471 45.0081 14.9222 44.6245 15.5582 44.3741C16.1943 44.1238 16.8765 44.0126 17.5592 44.0479C18.3599 44.0277 19.1551 44.1868 19.8863 44.5138C20.5227 44.8103 21.0877 45.2403 21.5431 45.7746C21.9537 46.2442 22.2587 46.7965 22.4376 47.3941C22.6384 48.1085 22.7342 48.8483 22.7217 49.5904C22.7389 50.3387 22.6521 51.0858 22.4638 51.8103ZM20.3311 48.1228C20.2665 47.7132 20.1323 47.3177 19.9348 46.953C19.7171 46.5447 19.3701 46.22 18.9482 46.0299C18.4889 45.8364 17.994 45.7426 17.4957 45.7546C17.0598 45.7521 16.6277 45.8368 16.225 46.0038C15.8694 46.1381 15.5615 46.3748 15.3404 46.684C15.1263 47.011 14.9779 47.3766 14.9032 47.7603C14.8078 48.2695 14.7636 48.787 14.7712 49.3051C14.7645 49.9125 14.8224 50.5188 14.9443 51.1139C15.0354 51.5825 15.2106 52.0307 15.4613 52.4369C15.6678 52.7615 15.9736 53.0106 16.3333 53.147C16.7728 53.3193 17.2417 53.4039 17.7137 53.3962C18.2322 53.4132 18.7466 53.2983 19.2087 53.0623C19.6027 52.8433 19.9083 52.494 20.0732 52.0744C20.0869 52.0345 20.1018 51.9922 20.1229 51.9498C20.1443 51.8998 20.1619 51.8481 20.1754 51.7954C20.2714 51.515 20.3394 51.2258 20.3784 50.932C20.422 50.5599 20.4419 50.1855 20.4382 49.8108C20.4486 49.2462 20.4128 48.6816 20.3311 48.1228V48.1228Z" fill="url(#paint7_linear)"/>
<path d="M31.5368 54.8599L28.0622 49.3511L27.9377 49.1393C27.8891 49.0658 27.8443 48.9935 27.8057 48.9263C27.7671 48.859 27.7458 48.8179 27.7134 48.7618C27.681 48.7058 27.6499 48.6534 27.6212 48.5999C27.5266 48.4255 27.4294 48.2548 27.3285 48.1016C27.2276 47.9483 27.1355 47.7802 27.0532 47.6294C27.0794 47.8624 27.098 48.1277 27.1042 48.4143C27.1104 48.7008 27.1142 49.0371 27.1142 49.4208L27.2176 54.8661H25.0997V44.231H27.3148L30.829 49.8593C30.8577 49.9017 30.8839 49.9428 30.9113 49.9839C30.9387 50.025 30.9662 50.0711 30.9936 50.1247C31.1269 50.3265 31.2538 50.5346 31.3672 50.7476C31.4806 50.9606 31.589 51.1475 31.6849 51.3256C31.6699 51.069 31.6551 50.7874 31.6339 50.4847C31.6128 50.182 31.6028 49.8706 31.6028 49.5604L31.5416 44.2347H33.5748V54.8599H31.5368Z" fill="white"/>
<path d="M31.5368 54.8599L28.0622 49.3511L27.9377 49.1393C27.8891 49.0658 27.8443 48.9935 27.8057 48.9263C27.7671 48.859 27.7458 48.8179 27.7134 48.7618C27.681 48.7058 27.6499 48.6534 27.6212 48.5999C27.5266 48.4255 27.4294 48.2548 27.3285 48.1016C27.2276 47.9483 27.1355 47.7802 27.0532 47.6294C27.0794 47.8624 27.098 48.1277 27.1042 48.4143C27.1104 48.7008 27.1142 49.0371 27.1142 49.4208L27.2176 54.8661H25.0997V44.231H27.3148L30.829 49.8593C30.8577 49.9017 30.8839 49.9428 30.9113 49.9839C30.9387 50.025 30.9662 50.0711 30.9936 50.1247C31.1269 50.3265 31.2538 50.5346 31.3672 50.7476C31.4806 50.9606 31.589 51.1475 31.6849 51.3256C31.6699 51.069 31.6551 50.7874 31.6339 50.4847C31.6128 50.182 31.6028 49.8706 31.6028 49.5604L31.5416 44.2347H33.5748V54.8599H31.5368Z" fill="url(#paint8_linear)"/>
<path d="M43.4463 54.7667C42.8193 54.9118 42.1775 54.9829 41.534 54.9785C40.7528 54.9933 39.9755 54.8667 39.2394 54.6048C38.5977 54.3692 38.0106 54.0055 37.514 53.5359C37.0112 53.0542 36.6252 52.4641 36.3853 51.8105C36.1217 51.0671 35.995 50.282 36.0115 49.4934C35.9866 48.576 36.1632 47.6643 36.5285 46.8224C36.8756 46.0821 37.4211 45.4526 38.1045 45.0036C38.5562 44.7089 39.049 44.4826 39.5669 44.3321C40.1295 44.1767 40.7112 44.1017 41.2948 44.1092C41.6179 44.1072 41.9407 44.1301 42.2603 44.1777C42.5663 44.2273 42.8682 44.2998 43.1634 44.3944C43.4752 44.4936 43.7782 44.6186 44.0692 44.7682C44.4007 44.9441 44.7221 45.1383 45.0321 45.3499L43.9969 46.6705L43.3978 46.3353C43.2246 46.2378 43.0437 46.1545 42.857 46.0862C42.6256 46.0034 42.3883 45.9384 42.147 45.8918C41.8786 45.843 41.6062 45.8188 41.3334 45.8196C40.7603 45.8045 40.1914 45.9195 39.6691 46.1559C39.2338 46.3526 38.8865 46.7031 38.6937 47.1401C38.538 47.5058 38.4218 47.8871 38.3473 48.2775C38.2626 48.7197 38.2209 49.169 38.2228 49.6192C38.2008 50.3204 38.318 51.0191 38.5678 51.6747C38.7742 52.1889 39.1559 52.6135 39.6454 52.8731C39.8839 52.9982 40.1343 53.0992 40.3928 53.1746C40.6575 53.2576 40.9303 53.3128 41.2064 53.3391C41.2805 53.3374 41.3546 53.3412 41.4281 53.3503C41.4979 53.3503 41.5652 53.3602 41.6325 53.3602C41.901 53.3598 42.1691 53.3398 42.4347 53.3004C42.6768 53.2672 42.9128 53.1983 43.1348 53.0961V50.6731H40.8614L40.4938 48.944H45.1467V54.0878C44.6156 54.3948 44.0428 54.6235 43.4463 54.7667V54.7667Z" fill="white"/>
<path d="M43.4463 54.7667C42.8193 54.9118 42.1775 54.9829 41.534 54.9785C40.7528 54.9933 39.9755 54.8667 39.2394 54.6048C38.5977 54.3692 38.0106 54.0055 37.514 53.5359C37.0112 53.0542 36.6252 52.4641 36.3853 51.8105C36.1217 51.0671 35.995 50.282 36.0115 49.4934C35.9866 48.576 36.1632 47.6643 36.5285 46.8224C36.8756 46.0821 37.4211 45.4526 38.1045 45.0036C38.5562 44.7089 39.049 44.4826 39.5669 44.3321C40.1295 44.1767 40.7112 44.1017 41.2948 44.1092C41.6179 44.1072 41.9407 44.1301 42.2603 44.1777C42.5663 44.2273 42.8682 44.2998 43.1634 44.3944C43.4752 44.4936 43.7782 44.6186 44.0692 44.7682C44.4007 44.9441 44.7221 45.1383 45.0321 45.3499L43.9969 46.6705L43.3978 46.3353C43.2246 46.2378 43.0437 46.1545 42.857 46.0862C42.6256 46.0034 42.3883 45.9384 42.147 45.8918C41.8786 45.843 41.6062 45.8188 41.3334 45.8196C40.7603 45.8045 40.1914 45.9195 39.6691 46.1559C39.2338 46.3526 38.8865 46.7031 38.6937 47.1401C38.538 47.5058 38.4218 47.8871 38.3473 48.2775C38.2626 48.7197 38.2209 49.169 38.2228 49.6192C38.2008 50.3204 38.318 51.0191 38.5678 51.6747C38.7742 52.1889 39.1559 52.6135 39.6454 52.8731C39.8839 52.9982 40.1343 53.0992 40.3928 53.1746C40.6575 53.2576 40.9303 53.3128 41.2064 53.3391C41.2805 53.3374 41.3546 53.3412 41.4281 53.3503C41.4979 53.3503 41.5652 53.3602 41.6325 53.3602C41.901 53.3598 42.1691 53.3398 42.4347 53.3004C42.6768 53.2672 42.9128 53.1983 43.1348 53.0961V50.6731H40.8614L40.4938 48.944H45.1467V54.0878C44.6156 54.3948 44.0428 54.6235 43.4463 54.7667V54.7667Z" fill="url(#paint9_linear)"/>
<path d="M57.1821 53.2404C56.8474 53.7593 56.3775 54.1771 55.8231 54.4488C55.4228 54.6605 54.9932 54.8116 54.5485 54.8973C54.0438 54.9956 53.5305 55.0432 53.0163 55.0393C52.3007 55.0372 51.5876 54.9536 50.8909 54.7901C50.1613 54.6232 49.4603 54.3495 48.8106 53.9779L49.6826 52.3522C50.0816 52.5648 50.4922 52.7553 50.9122 52.9227C51.2837 53.0672 51.6684 53.1753 52.0608 53.2454C52.2365 53.2747 52.4137 53.2946 52.5915 53.3052C52.7659 53.3226 52.9416 53.3264 53.1172 53.3264C53.4179 53.3324 53.7183 53.3052 54.0129 53.2454C54.258 53.1923 54.4916 53.0961 54.703 52.9613C54.915 52.8438 55.0984 52.6809 55.24 52.4842C55.3705 52.303 55.4391 52.0846 55.4356 51.8613C55.4362 51.6908 55.3958 51.5226 55.318 51.3709C55.2402 51.2192 55.1272 51.0883 54.9883 50.9893C54.5505 50.6995 54.0598 50.4988 53.5444 50.3988L51.9785 50.0151C51.2302 49.8554 50.545 49.4799 50.0077 48.935C49.5394 48.4664 49.2765 47.831 49.2765 47.1685C49.2711 46.7193 49.3732 46.2753 49.5746 45.8737C49.7759 45.472 50.0706 45.1245 50.4338 44.8601C51.2988 44.2279 52.3533 43.9089 53.4237 43.9557C53.5732 43.9557 53.7214 43.9619 53.8721 43.9656C54.0229 43.9694 54.1711 43.9856 54.3194 43.9968C54.8793 44.0648 55.4306 44.19 55.9649 44.3705C56.4925 44.5446 56.9923 44.7938 57.4487 45.1105L56.492 46.573C56.0518 46.3238 55.5898 46.1154 55.1117 45.9501C54.6962 45.8149 54.2656 45.7312 53.8297 45.701C53.7771 45.6879 53.7233 45.6808 53.6691 45.6798H53.5072C52.9985 45.6586 52.4932 45.7716 52.0421 46.0075C51.8706 46.09 51.7261 46.2195 51.6253 46.3809C51.5245 46.5423 51.4716 46.7291 51.4727 46.9194C51.4729 47.1231 51.5498 47.3192 51.6882 47.4687C51.861 47.6519 52.0743 47.7919 52.3111 47.8774L52.3946 47.916C52.4197 47.9316 52.4459 47.9454 52.4731 47.9571C52.5159 47.9708 52.5575 47.9879 52.5976 48.0082C52.638 48.0283 52.6797 48.0458 52.7223 48.0605C52.7759 48.0717 52.8393 48.0866 52.9141 48.0979C52.9888 48.1091 53.0748 48.134 53.172 48.1589L54.6332 48.5252C55.0629 48.635 55.4803 48.7882 55.879 48.9824C56.2348 49.1514 56.5669 49.3662 56.8669 49.6214C57.1286 49.8745 57.3331 50.1808 57.4662 50.5196C57.6084 50.8675 57.6802 51.2401 57.6779 51.6159C57.6771 52.1946 57.5046 52.7599 57.1821 53.2404V53.2404Z" fill="white"/>
<path d="M57.1821 53.2404C56.8474 53.7593 56.3775 54.1771 55.8231 54.4488C55.4228 54.6605 54.9932 54.8116 54.5485 54.8973C54.0438 54.9956 53.5305 55.0432 53.0163 55.0393C52.3007 55.0372 51.5876 54.9536 50.8909 54.7901C50.1613 54.6232 49.4603 54.3495 48.8106 53.9779L49.6826 52.3522C50.0816 52.5648 50.4922 52.7553 50.9122 52.9227C51.2837 53.0672 51.6684 53.1753 52.0608 53.2454C52.2365 53.2747 52.4137 53.2946 52.5915 53.3052C52.7659 53.3226 52.9416 53.3264 53.1172 53.3264C53.4179 53.3324 53.7183 53.3052 54.0129 53.2454C54.258 53.1923 54.4916 53.0961 54.703 52.9613C54.915 52.8438 55.0984 52.6809 55.24 52.4842C55.3705 52.303 55.4391 52.0846 55.4356 51.8613C55.4362 51.6908 55.3958 51.5226 55.318 51.3709C55.2402 51.2192 55.1272 51.0883 54.9883 50.9893C54.5505 50.6995 54.0598 50.4988 53.5444 50.3988L51.9785 50.0151C51.2302 49.8554 50.545 49.4799 50.0077 48.935C49.5394 48.4664 49.2765 47.831 49.2765 47.1685C49.2711 46.7193 49.3732 46.2753 49.5746 45.8737C49.7759 45.472 50.0706 45.1245 50.4338 44.8601C51.2988 44.2279 52.3533 43.9089 53.4237 43.9557C53.5732 43.9557 53.7214 43.9619 53.8721 43.9656C54.0229 43.9694 54.1711 43.9856 54.3194 43.9968C54.8793 44.0648 55.4306 44.19 55.9649 44.3705C56.4925 44.5446 56.9923 44.7938 57.4487 45.1105L56.492 46.573C56.0518 46.3238 55.5898 46.1154 55.1117 45.9501C54.6962 45.8149 54.2656 45.7312 53.8297 45.701C53.7771 45.6879 53.7233 45.6808 53.6691 45.6798H53.5072C52.9985 45.6586 52.4932 45.7716 52.0421 46.0075C51.8706 46.09 51.7261 46.2195 51.6253 46.3809C51.5245 46.5423 51.4716 46.7291 51.4727 46.9194C51.4729 47.1231 51.5498 47.3192 51.6882 47.4687C51.861 47.6519 52.0743 47.7919 52.3111 47.8774L52.3946 47.916C52.4197 47.9316 52.4459 47.9454 52.4731 47.9571C52.5159 47.9708 52.5575 47.9879 52.5976 48.0082C52.638 48.0283 52.6797 48.0458 52.7223 48.0605C52.7759 48.0717 52.8393 48.0866 52.9141 48.0979C52.9888 48.1091 53.0748 48.134 53.172 48.1589L54.6332 48.5252C55.0629 48.635 55.4803 48.7882 55.879 48.9824C56.2348 49.1514 56.5669 49.3662 56.8669 49.6214C57.1286 49.8745 57.3331 50.1808 57.4662 50.5196C57.6084 50.8675 57.6802 51.2401 57.6779 51.6159C57.6771 52.1946 57.5046 52.7599 57.1821 53.2404V53.2404Z" fill="url(#paint10_linear)"/>
<path d="M1.48743 59.0171H5.04788L4.92333 59.7708H2.40442V61.4451H4.47974V62.1926H2.40442V64.9507H1.49001L1.48743 59.0171Z" fill="white"/>
<path d="M1.48743 59.0171H5.04788L4.92333 59.7708H2.40442V61.4451H4.47974V62.1926H2.40442V64.9507H1.49001L1.48743 59.0171Z" fill="url(#paint11_linear)"/>
<path d="M6.75212 59.7048C7.00203 59.4318 7.30906 59.2173 7.65147 59.0767C7.99387 58.936 8.36316 58.8728 8.73285 58.8914C9.16205 58.8815 9.58792 58.9688 9.97862 59.1467C10.3244 59.3119 10.6294 59.5514 10.8719 59.8481C11.0975 60.1122 11.2614 60.4233 11.3515 60.7588C11.4569 61.1654 11.5066 61.5845 11.4996 62.0045C11.5086 62.4239 11.4629 62.8427 11.3638 63.2503C11.2731 63.578 11.1135 63.8826 10.8955 64.1435C10.6637 64.4364 10.3646 64.669 10.0235 64.8212C9.63407 64.9749 9.21724 65.0469 8.79885 65.033C8.41345 65.0435 8.0293 64.984 7.66515 64.8574C7.34027 64.729 7.05172 64.5233 6.82435 64.2581C6.55804 63.9586 6.35282 63.6099 6.22017 63.2316C6.08375 62.8153 6.01806 62.379 6.02582 61.941C5.9816 61.1313 6.24053 60.3341 6.75212 59.7048V59.7048ZM9.58004 59.8082C9.30223 59.6866 9.00121 59.6271 8.69803 59.6338C8.4316 59.6324 8.16806 59.689 7.92565 59.7995C7.70742 59.8914 7.51978 60.0435 7.38489 60.238C7.25382 60.4336 7.16479 60.6541 7.12332 60.8858C7.06484 61.1984 7.03764 61.5159 7.04227 61.8339C7.03832 62.2051 7.07259 62.5758 7.14446 62.9401C7.19834 63.222 7.30308 63.4917 7.45347 63.7362C7.57771 63.9357 7.76105 64.0916 7.97797 64.1821C8.24519 64.2956 8.53358 64.3504 8.82379 64.3428C9.13813 64.3533 9.44964 64.2807 9.72694 64.1323C9.97478 63.9924 10.1637 63.7677 10.2589 63.4995C10.2649 63.478 10.2729 63.4572 10.2826 63.4372C10.2901 63.4172 10.2975 63.3961 10.3037 63.3749C10.3666 63.1994 10.4108 63.0177 10.4357 62.833C10.4639 62.5961 10.4774 62.3577 10.4757 62.1192C10.4806 61.7811 10.4576 61.4432 10.4072 61.1088C10.3698 60.864 10.2932 60.6267 10.1804 60.4062C10.0539 60.1445 9.84225 59.9337 9.58004 59.8082V59.8082Z" fill="white"/>
<path d="M6.75212 59.7048C7.00203 59.4318 7.30906 59.2173 7.65147 59.0767C7.99387 58.936 8.36316 58.8728 8.73285 58.8914C9.16205 58.8815 9.58792 58.9688 9.97862 59.1467C10.3244 59.3119 10.6294 59.5514 10.8719 59.8481C11.0975 60.1122 11.2614 60.4233 11.3515 60.7588C11.4569 61.1654 11.5066 61.5845 11.4996 62.0045C11.5086 62.4239 11.4629 62.8427 11.3638 63.2503C11.2731 63.578 11.1135 63.8826 10.8955 64.1435C10.6637 64.4364 10.3646 64.669 10.0235 64.8212C9.63407 64.9749 9.21724 65.0469 8.79885 65.033C8.41345 65.0435 8.0293 64.984 7.66515 64.8574C7.34027 64.729 7.05172 64.5233 6.82435 64.2581C6.55804 63.9586 6.35282 63.6099 6.22017 63.2316C6.08375 62.8153 6.01806 62.379 6.02582 61.941C5.9816 61.1313 6.24053 60.3341 6.75212 59.7048V59.7048ZM9.58004 59.8082C9.30223 59.6866 9.00121 59.6271 8.69803 59.6338C8.4316 59.6324 8.16806 59.689 7.92565 59.7995C7.70742 59.8914 7.51978 60.0435 7.38489 60.238C7.25382 60.4336 7.16479 60.6541 7.12332 60.8858C7.06484 61.1984 7.03764 61.5159 7.04227 61.8339C7.03832 62.2051 7.07259 62.5758 7.14446 62.9401C7.19834 63.222 7.30308 63.4917 7.45347 63.7362C7.57771 63.9357 7.76105 64.0916 7.97797 64.1821C8.24519 64.2956 8.53358 64.3504 8.82379 64.3428C9.13813 64.3533 9.44964 64.2807 9.72694 64.1323C9.97478 63.9924 10.1637 63.7677 10.2589 63.4995C10.2649 63.478 10.2729 63.4572 10.2826 63.4372C10.2901 63.4172 10.2975 63.3961 10.3037 63.3749C10.3666 63.1994 10.4108 63.0177 10.4357 62.833C10.4639 62.5961 10.4774 62.3577 10.4757 62.1192C10.4806 61.7811 10.4576 61.4432 10.4072 61.1088C10.3698 60.864 10.2932 60.6267 10.1804 60.4062C10.0539 60.1445 9.84225 59.9337 9.58004 59.8082V59.8082Z" fill="url(#paint12_linear)"/>
<path d="M13.0071 58.9849H13.9201V62.5602C13.9201 62.7969 13.9289 63 13.9438 63.1719C13.9506 63.3009 13.9698 63.429 14.0012 63.5543C14.0805 63.7802 14.2443 63.9665 14.4583 64.0738C14.7137 64.2081 14.9997 64.2733 15.288 64.2632C15.5189 64.2683 15.749 64.2337 15.9682 64.161C16.1395 64.1039 16.2888 63.9951 16.3955 63.8496C16.4104 63.831 16.4233 63.811 16.4342 63.7898C16.447 63.7713 16.4606 63.7534 16.4752 63.7362C16.5359 63.6189 16.5779 63.4928 16.5998 63.3625C16.6261 63.1768 16.6375 62.9894 16.6335 62.8019V58.9849H17.5441V62.7757C17.5551 63.1172 17.5263 63.4588 17.4582 63.7935C17.4002 64.0241 17.2794 64.2341 17.1094 64.4002C17.0957 64.4221 17.0784 64.4414 17.0583 64.4575C17.0399 64.4718 17.0225 64.4872 17.006 64.5036C16.7951 64.6927 16.5449 64.8326 16.2734 64.9135C15.9444 65.0032 15.6041 65.0452 15.2631 65.0381C14.7837 65.0688 14.3054 64.9639 13.8829 64.7353C13.5967 64.5683 13.3635 64.3239 13.2101 64.0302C13.1934 64.0027 13.1797 63.9734 13.169 63.943L13.1316 63.8496C13.0811 63.7169 13.0477 63.5784 13.032 63.4372C13.0098 63.2175 13.0002 62.9966 13.0033 62.7757L13.0071 58.9849Z" fill="white"/>
<path d="M13.0071 58.9849H13.9201V62.5602C13.9201 62.7969 13.9289 63 13.9438 63.1719C13.9506 63.3009 13.9698 63.429 14.0012 63.5543C14.0805 63.7802 14.2443 63.9665 14.4583 64.0738C14.7137 64.2081 14.9997 64.2733 15.288 64.2632C15.5189 64.2683 15.749 64.2337 15.9682 64.161C16.1395 64.1039 16.2888 63.9951 16.3955 63.8496C16.4104 63.831 16.4233 63.811 16.4342 63.7898C16.447 63.7713 16.4606 63.7534 16.4752 63.7362C16.5359 63.6189 16.5779 63.4928 16.5998 63.3625C16.6261 63.1768 16.6375 62.9894 16.6335 62.8019V58.9849H17.5441V62.7757C17.5551 63.1172 17.5263 63.4588 17.4582 63.7935C17.4002 64.0241 17.2794 64.2341 17.1094 64.4002C17.0957 64.4221 17.0784 64.4414 17.0583 64.4575C17.0399 64.4718 17.0225 64.4872 17.006 64.5036C16.7951 64.6927 16.5449 64.8326 16.2734 64.9135C15.9444 65.0032 15.6041 65.0452 15.2631 65.0381C14.7837 65.0688 14.3054 64.9639 13.8829 64.7353C13.5967 64.5683 13.3635 64.3239 13.2101 64.0302C13.1934 64.0027 13.1797 63.9734 13.169 63.943L13.1316 63.8496C13.0811 63.7169 13.0477 63.5784 13.032 63.4372C13.0098 63.2175 13.0002 62.9966 13.0033 62.7757L13.0071 58.9849Z" fill="url(#paint13_linear)"/>
<path d="M19.3718 58.9849H20.4232L22.3629 62.2239C22.3766 62.245 22.3891 62.2687 22.4015 62.2849C22.4125 62.3075 22.4258 62.3288 22.4414 62.3484C22.6145 62.6549 22.7703 62.9352 22.9011 63.1918C23.0319 63.4485 23.1115 63.593 23.1252 63.6179C23.104 63.3949 23.0829 63.2018 23.0667 63.0336C23.0605 62.909 23.0542 62.762 23.0468 62.6063C23.0393 62.4506 23.0305 62.2911 23.0218 62.1317V61.9834L22.987 58.9936H23.8789V64.9509H22.9297L21.0149 61.7891C20.9838 61.7393 20.9526 61.6795 20.9178 61.6184C20.8829 61.5574 20.8479 61.4938 20.8105 61.439L20.7707 61.3568C20.7582 61.3331 20.7446 61.307 20.7309 61.2771C20.5864 61.0167 20.402 60.6741 20.1828 60.2406C20.1914 60.2871 20.1967 60.3341 20.1989 60.3814C20.2039 60.437 20.2064 60.5043 20.2064 60.5832C20.2151 60.7339 20.2226 60.9171 20.2351 61.1338C20.2476 61.3506 20.25 61.6047 20.25 61.8937L20.3073 64.9509H19.3718V58.9849Z" fill="white"/>
<path d="M19.3718 58.9849H20.4232L22.3629 62.2239C22.3766 62.245 22.3891 62.2687 22.4015 62.2849C22.4125 62.3075 22.4258 62.3288 22.4414 62.3484C22.6145 62.6549 22.7703 62.9352 22.9011 63.1918C23.0319 63.4485 23.1115 63.593 23.1252 63.6179C23.104 63.3949 23.0829 63.2018 23.0667 63.0336C23.0605 62.909 23.0542 62.762 23.0468 62.6063C23.0393 62.4506 23.0305 62.2911 23.0218 62.1317V61.9834L22.987 58.9936H23.8789V64.9509H22.9297L21.0149 61.7891C20.9838 61.7393 20.9526 61.6795 20.9178 61.6184C20.8829 61.5574 20.8479 61.4938 20.8105 61.439L20.7707 61.3568C20.7582 61.3331 20.7446 61.307 20.7309 61.2771C20.5864 61.0167 20.402 60.6741 20.1828 60.2406C20.1914 60.2871 20.1967 60.3341 20.1989 60.3814C20.2039 60.437 20.2064 60.5043 20.2064 60.5832C20.2151 60.7339 20.2226 60.9171 20.2351 61.1338C20.2476 61.3506 20.25 61.6047 20.25 61.8937L20.3073 64.9509H19.3718V58.9849Z" fill="url(#paint14_linear)"/>
<path d="M25.8522 59.0295H27.1977C27.402 59.0295 27.5988 59.0295 27.7906 59.0383C27.9825 59.047 28.142 59.0594 28.2678 59.0744C28.5131 59.1042 28.7532 59.1671 28.9817 59.2613C29.2204 59.3615 29.4419 59.4985 29.6381 59.6674C29.9412 59.9205 30.1759 60.2456 30.3208 60.6129C30.4787 61.052 30.5527 61.5169 30.5389 61.9833C30.5684 62.5974 30.4162 63.2066 30.1015 63.7348C29.86 64.1222 29.5283 64.4453 29.1348 64.6766C29.0125 64.7416 28.8851 64.7961 28.7537 64.8398C28.6421 64.8804 28.5256 64.9059 28.4073 64.9158C28.3076 64.922 28.1894 64.932 28.0523 64.937C27.9153 64.942 27.7596 64.9507 27.5852 64.9507H25.8522V59.0295ZM26.7641 59.777V64.192H27.4917C27.6162 64.192 27.7172 64.192 27.8019 64.192C27.8866 64.192 27.9651 64.1808 28.0411 64.1721C28.071 64.1721 28.1059 64.1571 28.1433 64.1509L28.2566 64.1272C28.623 64.0447 28.9486 63.8356 29.176 63.5367C29.4599 63.0924 29.5911 62.5675 29.5496 62.0418C29.5599 61.6875 29.5179 61.3337 29.4251 60.9916C29.3484 60.7292 29.2066 60.4905 29.0128 60.2977C28.8376 60.1009 28.6111 59.9564 28.3588 59.8804C28.0853 59.8109 27.8038 59.7778 27.5216 59.782L26.7641 59.777Z" fill="white"/>
<path d="M25.8522 59.0295H27.1977C27.402 59.0295 27.5988 59.0295 27.7906 59.0383C27.9825 59.047 28.142 59.0594 28.2678 59.0744C28.5131 59.1042 28.7532 59.1671 28.9817 59.2613C29.2204 59.3615 29.4419 59.4985 29.6381 59.6674C29.9412 59.9205 30.1759 60.2456 30.3208 60.6129C30.4787 61.052 30.5527 61.5169 30.5389 61.9833C30.5684 62.5974 30.4162 63.2066 30.1015 63.7348C29.86 64.1222 29.5283 64.4453 29.1348 64.6766C29.0125 64.7416 28.8851 64.7961 28.7537 64.8398C28.6421 64.8804 28.5256 64.9059 28.4073 64.9158C28.3076 64.922 28.1894 64.932 28.0523 64.937C27.9153 64.942 27.7596 64.9507 27.5852 64.9507H25.8522V59.0295ZM26.7641 59.777V64.192H27.4917C27.6162 64.192 27.7172 64.192 27.8019 64.192C27.8866 64.192 27.9651 64.1808 28.0411 64.1721C28.071 64.1721 28.1059 64.1571 28.1433 64.1509L28.2566 64.1272C28.623 64.0447 28.9486 63.8356 29.176 63.5367C29.4599 63.0924 29.5911 62.5675 29.5496 62.0418C29.5599 61.6875 29.5179 61.3337 29.4251 60.9916C29.3484 60.7292 29.2066 60.4905 29.0128 60.2977C28.8376 60.1009 28.6111 59.9564 28.3588 59.8804C28.0853 59.8109 27.8038 59.7778 27.5216 59.782L26.7641 59.777Z" fill="url(#paint15_linear)"/>
<path d="M34.8069 58.9849L37.0056 64.9484H35.9779L35.3737 63.2927H32.9793L32.3689 64.9509H31.4458L33.6706 58.9874L34.8069 58.9849ZM33.231 62.5415H35.1568C35.1494 62.5278 35.0971 62.3771 34.9987 62.1018C34.9003 61.8265 34.7944 61.5188 34.6798 61.1836C34.5652 60.8485 34.397 60.3814 34.1989 59.8033L33.231 62.5415Z" fill="white"/>
<path d="M34.8069 58.9849L37.0056 64.9484H35.9779L35.3737 63.2927H32.9793L32.3689 64.9509H31.4458L33.6706 58.9874L34.8069 58.9849ZM33.231 62.5415H35.1568C35.1494 62.5278 35.0971 62.3771 34.9987 62.1018C34.9003 61.8265 34.7944 61.5188 34.6798 61.1836C34.5652 60.8485 34.397 60.3814 34.1989 59.8033L33.231 62.5415Z" fill="url(#paint16_linear)"/>
<path d="M37.1999 58.9849H41.7482L41.6462 59.7585H39.856V64.9509H38.9665V59.7585H37.1999V58.9849Z" fill="white"/>
<path d="M37.1999 58.9849H41.7482L41.6462 59.7585H39.856V64.9509H38.9665V59.7585H37.1999V58.9849Z" fill="url(#paint17_linear)"/>
<path d="M43.1062 58.9849H44.018V64.9509H43.1062V58.9849Z" fill="white"/>
<path d="M43.1062 58.9849H44.018V64.9509H43.1062V58.9849Z" fill="url(#paint18_linear)"/>
<path d="M46.4861 59.7046C46.7361 59.4321 47.043 59.2179 47.3851 59.0773C47.7272 58.9368 48.0961 58.8732 48.4656 58.8912C48.8948 58.8814 49.3206 58.9687 49.7113 59.1465C50.0569 59.3121 50.3617 59.5515 50.6045 59.8479C50.8287 60.1129 50.9924 60.4237 51.0841 60.7586C51.1901 61.1651 51.24 61.5843 51.2324 62.0043C51.2413 62.4237 51.1957 62.8425 51.0966 63.2501C51.0064 63.578 50.8467 63.8827 50.6282 64.1433C50.3963 64.4361 50.0972 64.6686 49.7562 64.821C49.3664 64.9747 48.9492 65.0467 48.5304 65.0328C48.1442 65.0429 47.7594 64.9834 47.3942 64.8572C47.071 64.7278 46.7836 64.5222 46.5569 64.2579C46.2902 63.9584 46.0846 63.6097 45.9515 63.2314C45.816 62.8149 45.7512 62.3787 45.7598 61.9408C45.716 61.1311 45.9749 60.3341 46.4861 59.7046V59.7046ZM49.3164 59.808C49.0376 59.6867 48.7358 59.6272 48.4318 59.6336C48.1658 59.6325 47.9029 59.689 47.6608 59.7993C47.4421 59.8898 47.2545 60.0422 47.1213 60.2378C46.9887 60.4327 46.8992 60.6535 46.8585 60.8856C46.7992 61.198 46.7725 61.5158 46.7788 61.8337C46.7741 62.2049 46.8075 62.5755 46.8784 62.9399C46.934 63.2213 47.0386 63.4908 47.1874 63.736C47.3124 63.9358 47.4966 64.0918 47.7143 64.182C47.9806 64.2955 48.2683 64.3504 48.5577 64.3427C48.8728 64.3527 49.185 64.2801 49.4633 64.1321C49.7101 63.992 49.8979 63.7672 49.9916 63.4993C49.9984 63.4777 50.0071 63.4569 50.0178 63.437C50.024 63.417 50.0315 63.3959 50.0377 63.3747C50.1005 63.1992 50.1447 63.0175 50.1697 62.8328C50.1979 62.5959 50.2112 62.3575 50.2095 62.119C50.2138 61.7809 50.1909 61.443 50.1411 61.1086C50.1026 60.864 50.0261 60.627 49.9144 60.406C49.7867 60.1443 49.5742 59.9335 49.3114 59.808H49.3164Z" fill="white"/>
<path d="M46.4861 59.7046C46.7361 59.4321 47.043 59.2179 47.3851 59.0773C47.7272 58.9368 48.0961 58.8732 48.4656 58.8912C48.8948 58.8814 49.3206 58.9687 49.7113 59.1465C50.0569 59.3121 50.3617 59.5515 50.6045 59.8479C50.8287 60.1129 50.9924 60.4237 51.0841 60.7586C51.1901 61.1651 51.24 61.5843 51.2324 62.0043C51.2413 62.4237 51.1957 62.8425 51.0966 63.2501C51.0064 63.578 50.8467 63.8827 50.6282 64.1433C50.3963 64.4361 50.0972 64.6686 49.7562 64.821C49.3664 64.9747 48.9492 65.0467 48.5304 65.0328C48.1442 65.0429 47.7594 64.9834 47.3942 64.8572C47.071 64.7278 46.7836 64.5222 46.5569 64.2579C46.2902 63.9584 46.0846 63.6097 45.9515 63.2314C45.816 62.8149 45.7512 62.3787 45.7598 61.9408C45.716 61.1311 45.9749 60.3341 46.4861 59.7046V59.7046ZM49.3164 59.808C49.0376 59.6867 48.7358 59.6272 48.4318 59.6336C48.1658 59.6325 47.9029 59.689 47.6608 59.7993C47.4421 59.8898 47.2545 60.0422 47.1213 60.2378C46.9887 60.4327 46.8992 60.6535 46.8585 60.8856C46.7992 61.198 46.7725 61.5158 46.7788 61.8337C46.7741 62.2049 46.8075 62.5755 46.8784 62.9399C46.934 63.2213 47.0386 63.4908 47.1874 63.736C47.3124 63.9358 47.4966 64.0918 47.7143 64.182C47.9806 64.2955 48.2683 64.3504 48.5577 64.3427C48.8728 64.3527 49.185 64.2801 49.4633 64.1321C49.7101 63.992 49.8979 63.7672 49.9916 63.4993C49.9984 63.4777 50.0071 63.4569 50.0178 63.437C50.024 63.417 50.0315 63.3959 50.0377 63.3747C50.1005 63.1992 50.1447 63.0175 50.1697 62.8328C50.1979 62.5959 50.2112 62.3575 50.2095 62.119C50.2138 61.7809 50.1909 61.443 50.1411 61.1086C50.1026 60.864 50.0261 60.627 49.9144 60.406C49.7867 60.1443 49.5742 59.9335 49.3114 59.808H49.3164Z" fill="url(#paint19_linear)"/>
<path d="M52.8207 58.9849H53.8721L55.8092 62.2239C55.8242 62.245 55.838 62.2687 55.8504 62.2849C55.8629 62.3011 55.8754 62.3273 55.8891 62.3484C56.0647 62.6549 56.2204 62.9352 56.3524 63.1918C56.4845 63.4485 56.558 63.593 56.5729 63.6179C56.5505 63.3949 56.5306 63.2018 56.5182 63.0336C56.5095 62.909 56.502 62.762 56.492 62.6063C56.4821 62.4506 56.4782 62.2911 56.4707 62.1317V61.9834L56.4371 58.9936H57.3254V64.9509H56.3812L54.4626 61.7891C54.434 61.7393 54.4003 61.6795 54.3679 61.6184C54.3355 61.5574 54.2957 61.4938 54.2596 61.439C54.2475 61.4106 54.2333 61.3832 54.2172 61.3568C54.2072 61.3331 54.1935 61.307 54.1773 61.2771C54.0353 61.0167 53.8522 60.6741 53.6317 60.2406C53.6416 60.2869 53.6466 60.334 53.6466 60.3814C53.6527 60.4485 53.6551 60.5158 53.6541 60.5832C53.6603 60.7339 53.6704 60.9171 53.6816 61.1338C53.6928 61.3506 53.7001 61.6047 53.7001 61.8937L53.7575 64.9509H52.8207V58.9849Z" fill="white"/>
<path d="M52.8207 58.9849H53.8721L55.8092 62.2239C55.8242 62.245 55.838 62.2687 55.8504 62.2849C55.8629 62.3011 55.8754 62.3273 55.8891 62.3484C56.0647 62.6549 56.2204 62.9352 56.3524 63.1918C56.4845 63.4485 56.558 63.593 56.5729 63.6179C56.5505 63.3949 56.5306 63.2018 56.5182 63.0336C56.5095 62.909 56.502 62.762 56.492 62.6063C56.4821 62.4506 56.4782 62.2911 56.4707 62.1317V61.9834L56.4371 58.9936H57.3254V64.9509H56.3812L54.4626 61.7891C54.434 61.7393 54.4003 61.6795 54.3679 61.6184C54.3355 61.5574 54.2957 61.4938 54.2596 61.439C54.2475 61.4106 54.2333 61.3832 54.2172 61.3568C54.2072 61.3331 54.1935 61.307 54.1773 61.2771C54.0353 61.0167 53.8522 60.6741 53.6317 60.2406C53.6416 60.2869 53.6466 60.334 53.6466 60.3814C53.6527 60.4485 53.6551 60.5158 53.6541 60.5832C53.6603 60.7339 53.6704 60.9171 53.6816 61.1338C53.6928 61.3506 53.7001 61.6047 53.7001 61.8937L53.7575 64.9509H52.8207V58.9849Z" fill="url(#paint20_linear)"/>
<path d="M43.9869 33.6008V39.5905H47.0466V45.3472L51.9512 39.5905H56.1993V33.6008H43.9869ZM55.2849 38.7645H51.5538L47.8849 43.0674V38.7645H44.895V34.4293H55.2799L55.2849 38.7645Z" fill="white"/>
<path d="M43.9869 33.6008V39.5905H47.0466V45.3472L51.9512 39.5905H56.1993V33.6008H43.9869ZM55.2849 38.7645H51.5538L47.8849 43.0674V38.7645H44.895V34.4293H55.2799L55.2849 38.7645Z" fill="url(#paint21_linear)"/>
<path d="M45.812 36.9356H51.2647L51.3756 36.1084H45.812V36.9356Z" fill="white"/>
<path d="M45.812 36.9356H51.2647L51.3756 36.1084H45.812V36.9356Z" fill="url(#paint22_linear)"/>
<g opacity="0.5">
<path d="M16.7037 91.0507C17.4765 91.0507 17.6273 90.7723 17.7106 88.8C18.2503 89.1193 18.8376 89.3508 19.4501 89.4856C19.2341 92.124 18.6772 92.7446 16.8974 92.7446H13.5526C11.2785 92.7446 10.7424 92.2242 10.7424 90.4496V88.3927H7.99729C7.35459 90.879 5.70481 92.2958 1.00816 93.066C0.773113 92.4666 0.431637 91.9148 0 91.4371C4.01102 90.9167 5.36135 90.0424 5.92078 88.3927H3.17312V79.473H3.6024C3.2535 78.5396 2.75382 77.6698 2.1232 76.8983L3.98626 76.3649C4.70763 77.1492 5.26929 78.0666 5.63984 79.0658L4.33232 79.473H13.403L12.9086 79.3234C13.7629 78.168 14.5035 76.9328 15.1203 75.635L17.332 76.2569C16.6268 77.3719 15.7891 78.5506 15.0827 79.473H16.1742V88.3927H12.6965V90.4301C12.6965 90.9648 12.8682 91.0507 13.7672 91.0507H16.7037ZM18.356 74.7763C12.7858 75.6589 7.16086 76.1537 1.52208 76.2569C1.40758 75.7195 1.205 75.2047 0.922398 74.7334C6.1794 74.6266 11.4233 74.168 16.619 73.3608L18.356 74.7763ZM5.06096 82.0243H14.1939V80.8456H5.06096V82.0243ZM5.06096 84.5118H14.1939V83.3097H5.06096V84.5118ZM5.06096 86.9981H14.1939V85.8193H5.06096V86.9981ZM9.02641 79.3871C8.81374 78.3382 8.41493 77.3358 7.84896 76.4273L9.7784 75.9355C10.38 76.8346 10.8292 77.8267 11.108 78.8719L9.02641 79.3871Z" fill="white"/>
<path d="M29.6357 78.4855H20.7784V76.8983H24.7465C24.3152 75.8915 23.7985 74.9235 23.2022 74.0048L24.7634 73.2112C25.3771 74.101 25.9146 75.0411 26.3701 76.0214L24.7842 76.8983H29.6318L29.6357 78.4855ZM21.6995 79.7514H28.7328V81.3126H21.6995V79.7514ZM28.6677 84.1254H21.6995V82.5811H28.6677V84.1254ZM28.7536 91.7584H23.543V92.7238H21.8283V85.4758H28.7536V91.7584ZM23.543 90.1504H27.0193V87.0839H23.543V90.1504ZM39.8162 82.516H35.6152V93.0022H33.5557V82.516H29.5902V80.5645H33.5557V73.7251H35.6152V80.5645H39.8162V82.516Z" fill="white"/>
<path d="M60 83.0093V84.3194H40.8752V83.0093H49.3019V82.0673H42.4586V80.9094H49.3019V79.987H43.0179V78.8499H49.3019V77.869H40.9193V76.6903H49.3019V75.7678H43.148V74.6308H49.3019V73.3154H51.3171V74.6243H57.6426V76.6838H59.9376V77.8625H57.6426V79.9844H51.3171V80.9068H58.5441V82.0647H51.3171V83.0067L60 83.0093ZM40.8752 91.0508H60V92.4234H40.8752V91.0508ZM57.7493 90.2351H43.2703V85.1612H57.744L57.7493 90.2351ZM45.2258 87.1699H49.4528V86.2046H45.2218L45.2258 87.1699ZM45.2258 89.1852H49.4528V88.199H45.2218L45.2258 89.1852ZM51.3171 76.6864H55.6482V75.7639H51.3171V76.6864ZM51.3171 78.8499H55.6482V77.869H51.3171V78.8499ZM55.7145 86.2046H51.3146V87.1686H55.7145V86.2046ZM55.7145 88.199H51.3146V89.1852H55.7145V88.199Z" fill="white"/>
<path d="M1.59369 97.834H4.36485C5.25315 97.7516 6.14528 97.9446 6.92003 98.387C7.37734 98.6778 7.75114 99.0826 8.00458 99.5616C8.25801 100.041 8.38229 100.577 8.3654 101.119C8.39345 101.608 8.31132 102.098 8.12512 102.551C7.93891 103.005 7.65333 103.411 7.28943 103.739C6.50246 104.359 5.51372 104.664 4.51446 104.597H2.51736V109.353H1.59369V97.834ZM4.46634 103.83C4.84087 103.867 5.21887 103.826 5.57693 103.71C5.93499 103.594 6.26546 103.406 6.54792 103.158C6.79539 102.915 6.99144 102.624 7.12442 102.304C7.2574 101.983 7.32456 101.639 7.32199 101.292C7.35184 100.897 7.28446 100.501 7.12569 100.138C6.96693 99.7751 6.72168 99.4566 6.41134 99.2105C5.73055 98.7649 4.91865 98.5635 4.10853 98.6393H2.51355V103.83H4.46634Z" fill="white"/>
<path d="M10.2961 97.8329H12.6809C13.6911 97.72 14.7079 97.9769 15.5431 98.5563C15.9036 98.8498 16.1925 99.2218 16.3875 99.6439C16.5825 100.066 16.6787 100.527 16.6686 100.992C16.6961 101.408 16.633 101.826 16.4839 102.216C16.3348 102.606 16.1031 102.959 15.8046 103.252C15.5062 103.544 15.1479 103.768 14.7547 103.908C14.3615 104.049 13.9426 104.103 13.5266 104.066H13.4096C14.0361 104.457 14.5468 105.008 14.8888 105.662C15.6433 106.82 16.9535 108.888 17.258 109.357H16.0635C15.2704 107.864 14.3663 106.431 13.3587 105.073C13.1981 104.787 12.9676 104.546 12.6887 104.373C12.4097 104.2 12.0915 104.101 11.7638 104.084H11.2278V109.353H10.3014L10.2961 97.8329ZM12.6666 103.477C13.4473 103.545 14.2278 103.344 14.8783 102.907C15.1453 102.664 15.3536 102.364 15.4873 102.029C15.621 101.694 15.6766 101.333 15.6498 100.974C15.6607 100.58 15.5649 100.191 15.3725 99.8471C15.1801 99.5035 14.8983 99.2184 14.557 99.0221C13.9881 98.7276 13.3503 98.5928 12.7109 98.6318H11.2173V103.469L12.6666 103.477Z" fill="white"/>
<path d="M19.852 107.879C19.0013 106.612 18.5834 105.103 18.6604 103.578C18.6001 102.128 18.9673 100.691 19.7167 99.4475C20.1043 98.8849 20.6258 98.4274 21.234 98.1163C21.8423 97.8051 22.5182 97.6501 23.2013 97.6651C23.8843 97.68 24.5529 97.8645 25.1469 98.202C25.7409 98.5395 26.2418 99.0194 26.6044 99.5984C27.3159 100.854 27.654 102.288 27.5788 103.729C27.6985 105.316 27.1991 106.887 26.1854 108.114C25.8196 108.57 25.3535 108.937 24.8234 109.185C24.2933 109.433 23.7133 109.556 23.128 109.545C22.4876 109.557 21.8538 109.412 21.2826 109.122C20.7114 108.832 20.2201 108.406 19.852 107.882V107.879ZM25.682 107.479C26.3217 106.388 26.6088 105.127 26.5041 103.867C26.57 102.597 26.3522 101.329 25.8667 100.154C25.6242 99.6271 25.2317 99.1835 24.7383 98.8787C24.2449 98.5739 23.6726 98.4215 23.093 98.4405C22.5398 98.4264 21.9934 98.5645 21.5134 98.8399C21.0334 99.1152 20.6383 99.5171 20.3712 100.002C19.8895 101.066 19.6666 102.228 19.7207 103.395C19.6667 104.741 19.9259 106.081 20.4779 107.31C20.7619 107.77 21.1596 108.149 21.633 108.411C22.1063 108.673 22.6392 108.808 23.1801 108.804C23.6767 108.818 24.1682 108.703 24.6073 108.47C25.0463 108.238 25.4177 107.896 25.6858 107.477" fill="white"/>
<path d="M29.0463 110.869C29.658 110.656 30.1832 110.249 30.5413 109.71C30.8225 108.983 30.9259 108.199 30.843 107.424V97.834H31.8007V107.402C31.9153 108.313 31.7752 109.238 31.396 110.074C30.9554 110.747 30.2894 111.241 29.5174 111.467L29.0463 110.869Z" fill="white"/>
<path d="M35.3627 97.8328H41.3605L41.2303 98.6225H36.3256V102.939H40.3404V103.763H36.3256V108.534H41.549V109.357H35.3667L35.3627 97.8328Z" fill="white"/>
<path d="M47.5636 109.525C46.9268 109.541 46.2953 109.406 45.7203 109.131C45.1452 108.857 44.6429 108.452 44.2539 107.947C43.3583 106.692 42.9134 105.17 42.9918 103.63C42.9585 102.244 43.3132 100.877 44.0157 99.6817C44.387 99.0744 44.9086 98.573 45.53 98.2257C46.1514 97.8784 46.8518 97.697 47.5636 97.699C48.5586 97.6751 49.531 97.9969 50.3153 98.6097L49.8156 99.2316C49.1732 98.7177 48.369 98.4493 47.5468 98.4744C46.9324 98.4628 46.3284 98.6357 45.8133 98.9708C45.2982 99.306 44.8955 99.7879 44.6571 100.354C44.1996 101.432 43.9807 102.596 44.0157 103.766C43.9753 104.8 44.1766 105.829 44.6038 106.772C44.8639 107.372 45.2979 107.88 45.8497 108.23C46.4015 108.58 47.0457 108.757 47.6989 108.737C48.5446 108.738 49.3661 108.455 50.0316 107.933L50.552 108.583C49.6724 109.192 48.6292 109.52 47.5597 109.524" fill="white"/>
<path d="M55.0693 98.6393H51.8792V97.834H59.2871L59.2194 98.6393H55.9955V109.353H55.0693V98.6393Z" fill="white"/>
<path d="M6.81858 131.211C4.89121 131.19 2.9996 130.688 1.31659 129.748L2.5239 127.219C3.86599 128.024 5.39202 128.472 6.95643 128.52C8.81428 128.52 9.78874 127.752 9.78874 126.308C9.78874 125.267 9.11608 124.617 7.67586 124.227L5.8884 123.74C5.24941 123.627 4.63917 123.388 4.09331 123.037C3.54745 122.686 3.07675 122.231 2.7086 121.696C2.25978 120.955 2.02649 120.103 2.03475 119.236C2.03475 116.288 4.40255 114.244 7.81641 114.244C9.73456 114.228 11.6125 114.794 13.2014 115.869L11.6701 118.191C10.5615 117.426 9.25508 116.999 7.90884 116.962C6.58441 116.962 5.65669 117.727 5.65669 118.817C5.65669 119.654 6.09776 120.073 7.44431 120.442L9.39583 120.975C12.0447 121.696 13.4823 123.39 13.4823 125.781C13.4823 129.053 10.8373 131.213 6.82112 131.213" fill="white"/>
<path d="M18.4743 130.865V114.732H27.6646L27.2471 117.378H21.7697V121.115H26.3428V123.762H21.7697V128.08H27.8754V130.865H18.4743Z" fill="white"/>
<path d="M32.8622 130.865V114.732H42.0539L41.6362 117.378H36.159V121.115H40.7321V123.762H36.159V128.08H42.2647V130.865H32.8622Z" fill="white"/>
<path d="M55.4803 130.865L50.5807 122.438V130.865H47.2592V114.732H50.5807V122.09L55.1773 114.732H59.17L54.0166 122.206L59.7502 130.865H55.4803Z" fill="white"/>
</g>
<defs>
<linearGradient id="paint0_linear" x1="9.82915" y1="0" x2="9.82915" y2="19.0989" gradientUnits="userSpaceOnUse">
<stop stop-color="white"/>
<stop offset="1" stop-color="white" stop-opacity="0"/>
</linearGradient>
<linearGradient id="paint1_linear" x1="29.9627" y1="0.170654" x2="29.9627" y2="19.3555" gradientUnits="userSpaceOnUse">
<stop stop-color="white"/>
<stop offset="1" stop-color="white" stop-opacity="0"/>
</linearGradient>
<linearGradient id="paint2_linear" x1="50.1286" y1="0.593018" x2="50.1286" y2="18.5844" gradientUnits="userSpaceOnUse">
<stop stop-color="white"/>
<stop offset="1" stop-color="white" stop-opacity="0"/>
</linearGradient>
<linearGradient id="paint3_linear" x1="9.82474" y1="21.1519" x2="9.82474" y2="39.9107" gradientUnits="userSpaceOnUse">
<stop stop-color="white"/>
<stop offset="1" stop-color="white" stop-opacity="0"/>
</linearGradient>
<linearGradient id="paint4_linear" x1="29.9652" y1="21.0896" x2="29.9652" y2="39.5905" gradientUnits="userSpaceOnUse">
<stop stop-color="white"/>
<stop offset="1" stop-color="white" stop-opacity="0"/>
</linearGradient>
<linearGradient id="paint5_linear" x1="50.1347" y1="21.0034" x2="50.1347" y2="32.3686" gradientUnits="userSpaceOnUse">
<stop stop-color="white"/>
<stop offset="1" stop-color="white" stop-opacity="0"/>
</linearGradient>
<linearGradient id="paint6_linear" x1="5.70748" y1="44.231" x2="5.70748" y2="54.8599" gradientUnits="userSpaceOnUse">
<stop stop-color="white"/>
<stop offset="1" stop-color="white" stop-opacity="0"/>
</linearGradient>
<linearGradient id="paint7_linear" x1="17.6173" y1="44.0415" x2="17.6173" y2="55.002" gradientUnits="userSpaceOnUse">
<stop stop-color="white"/>
<stop offset="1" stop-color="white" stop-opacity="0"/>
</linearGradient>
<linearGradient id="paint8_linear" x1="29.3373" y1="44.231" x2="29.3373" y2="54.8661" gradientUnits="userSpaceOnUse">
<stop stop-color="white"/>
<stop offset="1" stop-color="white" stop-opacity="0"/>
</linearGradient>
<linearGradient id="paint9_linear" x1="40.578" y1="44.1086" x2="40.578" y2="54.9797" gradientUnits="userSpaceOnUse">
<stop stop-color="white"/>
<stop offset="1" stop-color="white" stop-opacity="0"/>
</linearGradient>
<linearGradient id="paint10_linear" x1="53.2443" y1="43.9512" x2="53.2443" y2="55.0395" gradientUnits="userSpaceOnUse">
<stop stop-color="white"/>
<stop offset="1" stop-color="white" stop-opacity="0"/>
</linearGradient>
<linearGradient id="paint11_linear" x1="3.26765" y1="59.0171" x2="3.26765" y2="64.9507" gradientUnits="userSpaceOnUse">
<stop stop-color="white"/>
<stop offset="1" stop-color="white" stop-opacity="0"/>
</linearGradient>
<linearGradient id="paint12_linear" x1="8.76085" y1="58.8882" x2="8.76085" y2="65.0347" gradientUnits="userSpaceOnUse">
<stop stop-color="white"/>
<stop offset="1" stop-color="white" stop-opacity="0"/>
</linearGradient>
<linearGradient id="paint13_linear" x1="15.2746" y1="58.9849" x2="15.2746" y2="65.0433" gradientUnits="userSpaceOnUse">
<stop stop-color="white"/>
<stop offset="1" stop-color="white" stop-opacity="0"/>
</linearGradient>
<linearGradient id="paint14_linear" x1="21.6253" y1="58.9849" x2="21.6253" y2="64.9509" gradientUnits="userSpaceOnUse">
<stop stop-color="white"/>
<stop offset="1" stop-color="white" stop-opacity="0"/>
</linearGradient>
<linearGradient id="paint15_linear" x1="28.1973" y1="59.0295" x2="28.1973" y2="64.9507" gradientUnits="userSpaceOnUse">
<stop stop-color="white"/>
<stop offset="1" stop-color="white" stop-opacity="0"/>
</linearGradient>
<linearGradient id="paint16_linear" x1="34.2257" y1="58.9849" x2="34.2257" y2="64.9509" gradientUnits="userSpaceOnUse">
<stop stop-color="white"/>
<stop offset="1" stop-color="white" stop-opacity="0"/>
</linearGradient>
<linearGradient id="paint17_linear" x1="39.474" y1="58.9849" x2="39.474" y2="64.9509" gradientUnits="userSpaceOnUse">
<stop stop-color="white"/>
<stop offset="1" stop-color="white" stop-opacity="0"/>
</linearGradient>
<linearGradient id="paint18_linear" x1="43.5621" y1="58.9849" x2="43.5621" y2="64.9509" gradientUnits="userSpaceOnUse">
<stop stop-color="white"/>
<stop offset="1" stop-color="white" stop-opacity="0"/>
</linearGradient>
<linearGradient id="paint19_linear" x1="48.4942" y1="58.8882" x2="48.4942" y2="65.0345" gradientUnits="userSpaceOnUse">
<stop stop-color="white"/>
<stop offset="1" stop-color="white" stop-opacity="0"/>
</linearGradient>
<linearGradient id="paint20_linear" x1="55.073" y1="58.9849" x2="55.073" y2="64.9509" gradientUnits="userSpaceOnUse">
<stop stop-color="white"/>
<stop offset="1" stop-color="white" stop-opacity="0"/>
</linearGradient>
<linearGradient id="paint21_linear" x1="50.0931" y1="33.6008" x2="50.0931" y2="45.3472" gradientUnits="userSpaceOnUse">
<stop stop-color="white"/>
<stop offset="1" stop-color="white" stop-opacity="0"/>
</linearGradient>
<linearGradient id="paint22_linear" x1="48.5938" y1="36.1084" x2="48.5938" y2="36.9356" gradientUnits="userSpaceOnUse">
<stop stop-color="white"/>
<stop offset="1" stop-color="white" stop-opacity="0"/>
</linearGradient>
</defs>
</svg>
