<svg width="49" height="106" viewBox="0 0 49 106" fill="none" xmlns="http://www.w3.org/2000/svg">
<path d="M3.92297 6.206L2.92297 7.264C2.03923 6.61302 1.10271 6.03702 0.123047 5.542L1.19702 4.468C2.16591 4.94696 3.07989 5.52971 3.92297 6.206ZM4.13 10.406C3.43 11.855 2.69505 13.199 1.93005 14.465C1.93005 14.856 1.79402 15.065 1.52002 15.065L0.19104 13.937C1.33757 12.4546 2.342 10.8676 3.19104 9.197L4.13 10.406ZM4.65698 2.271L3.651 3.345C2.81081 2.69846 1.92224 2.11741 0.993042 1.607L2.06506 0.548C2.98932 1.02451 3.85843 1.60095 4.65698 2.267V2.271ZM8.81799 11.291C8.91799 11.376 8.98901 11.461 8.98901 11.531C8.98901 11.631 8.88906 11.7 8.71606 11.731C7.84007 13.0443 6.81554 14.2523 5.66296 15.331L4.26306 14.255C5.61251 13.2341 6.78269 11.9958 7.72595 10.591L8.81799 11.291ZM7.18201 3.482V0L8.54602 0.118C8.78502 0.153 8.92102 0.218 8.92102 0.34C8.92102 0.409 8.82095 0.527001 8.64795 0.665001V3.478H11.448V0L12.811 0.118C13.05 0.153 13.186 0.218 13.186 0.34C13.186 0.409 13.086 0.527001 12.915 0.665001V3.478H15.046V4.878H12.915V8.337H15.5911V9.737H4.32007V8.337H7.18506V4.877H4.93506V3.477L7.18201 3.482ZM11.4451 4.882H8.64502V8.337H11.4451V4.882ZM15.657 14.193L14.191 15.267C13.0365 14.137 12.0694 12.8303 11.326 11.396L12.5181 10.596C13.2877 12.0092 14.3594 13.2353 15.657 14.187V14.193Z" fill="white"/>
<path d="M25.321 1.07372V0.136719L26.7209 0.255718C26.9779 0.273718 27.1121 0.339719 27.1121 0.475719C27.1121 0.561719 27.0291 0.698717 26.8571 0.869717V1.06972H30.386V3.33672H31.905V4.66772H30.3831V6.93672H26.854V7.99472H30.571V9.32272H26.854V10.3987H30.9821V11.7987H26.854V13.6757C27.759 13.7097 28.782 13.7267 29.907 13.7267C30.417 13.7267 31.084 13.7097 31.902 13.6567L31.168 15.3297C28.8688 15.3544 26.57 15.2633 24.28 15.0567C23.1854 14.9607 22.1048 14.7437 21.058 14.4097C20.4716 14.2086 19.9105 13.9401 19.386 13.6097C18.8268 14.3771 18.1267 15.0311 17.323 15.5367L16.198 14.3247C16.9759 13.9254 17.6477 13.3468 18.158 12.6367C17.4745 11.8865 16.902 11.0423 16.458 10.1297L17.667 9.67072C18.0454 10.2533 18.4677 10.8062 18.9301 11.3247C19.4097 10.07 19.6798 8.74503 19.73 7.40272H18.33L17.7841 8.52672L16.455 8.06772L19.063 2.61072H16.5229V1.21072H19.387L19.796 1.07572C19.937 1.08166 20.0732 1.12857 20.188 1.21072L21.024 1.72272C21.0671 1.74491 21.1047 1.7763 21.1343 1.81467C21.1638 1.85303 21.1846 1.89743 21.1951 1.94472C21.1951 2.09872 21.059 2.25172 20.785 2.40572L19.012 6.00572H21.1951C21.2099 8.06275 20.8814 10.1078 20.223 12.0567C20.1892 12.1454 20.1491 12.2317 20.103 12.3147C20.873 12.7996 21.7304 13.1292 22.627 13.2847C23.5134 13.4737 24.4151 13.5828 25.321 13.6107V11.7987H21.1951V10.3987H25.321V9.32572H21.7209V7.99772H25.321V6.93672H22.116V5.60672H25.321V4.66872H20.7209V3.33672H25.321V2.39972H22.116V1.06972L25.321 1.07372ZM26.855 3.34072H28.918V2.40372H26.855V3.34072ZM26.855 5.60972H28.918V4.67172H26.855V5.60972Z" fill="white"/>
<path d="M35.717 1.94307V0.476074H41.702C42.4111 1.76889 43.3801 2.90096 44.548 3.80107C45.6485 4.62098 46.8384 5.31341 48.095 5.86507L46.902 7.26507C46.425 6.99107 45.982 6.73407 45.574 6.48007V7.73707H41.105V9.86807H45.1121V11.2681H41.105V13.5181H47.636V14.9181H32.853V13.5181H39.519V11.2681H35.719V9.86807H39.519V7.73707H35.183V6.42807C34.74 6.70007 34.262 6.95707 33.783 7.19507L32.3831 5.93407C33.8453 5.3555 35.2444 4.62906 36.559 3.76607C37.3269 3.24136 38.0317 2.62964 38.6591 1.94307H35.717ZM45.334 6.32607C44.5054 5.82221 43.7233 5.2456 42.9969 4.60307C42.1177 3.82033 41.3446 2.9261 40.697 1.94307H40.22C39.4576 2.9793 38.5833 3.92835 37.613 4.77307C36.906 5.35087 36.1532 5.87024 35.3621 6.32607H45.334Z" fill="white"/>
<path d="M4.06104 18.651V16.979H4.79407V18.651H10.983V16.979H11.718V18.651H14.924V19.315H11.718V25.249H15.5181V25.912H10.743C12.1667 27.3967 13.8782 28.5754 15.7729 29.376L15.173 30.041C13.1329 29.0713 11.3334 27.6611 9.90405 25.912H5.86304C5.20383 26.7457 4.42936 27.4814 3.56299 28.097C2.54568 28.8249 1.46069 29.4531 0.322998 29.973L0 29.373C1.08493 28.8972 2.11361 28.3022 3.06702 27.599C3.77307 27.1189 4.41523 26.5511 4.97803 25.909H0.118042V25.246H4.05701V19.315H0.734009V18.651H4.06104ZM7.45398 28.371V26.648H8.18799V28.371H11.855V29.051H8.18298V31.372H14.441V32.037H1.26001V31.374H7.44897V29.051H3.91797V28.371H7.45398ZM10.983 20.715V19.315H4.79407V20.715H10.983ZM10.983 22.915V21.378H4.79407V22.912L10.983 22.915ZM10.983 25.252V23.58H4.79407V25.249L10.983 25.252Z" fill="white"/>
<path d="M24.983 17.3902C24.798 17.6092 24.609 17.8152 24.439 18.0042C25.5895 19.1106 26.8395 20.1088 28.173 20.9862C29.3721 21.811 30.6441 22.5246 31.973 23.1182L31.5131 23.9182C30.1564 23.2797 28.8659 22.5093 27.66 21.6182C26.3328 20.6953 25.0941 19.6511 23.96 18.4992C23.0357 19.417 22.0501 20.271 21.01 21.0552C19.5988 22.1346 18.0988 23.0927 16.526 23.9192L16.134 23.1872C17.6867 22.4488 19.1554 21.5456 20.515 20.4932C21.9247 19.4422 23.2217 18.2478 24.385 16.9292L24.983 17.3902ZM28.12 22.0432V22.7762H24.4561V25.3852H30.645V26.1192H24.4561V31.0472H31.718V31.7802H16.459V31.0472H23.6591V26.1192H17.468V25.3852H23.6591V22.7762H19.983V22.0432H28.12ZM21.932 29.9732L21.249 30.6392C20.5036 29.4439 19.6356 28.3295 18.6591 27.3142L19.187 26.7852C20.1976 27.7605 21.1152 28.8278 21.928 29.9732H21.932ZM29.519 27.0402C28.8195 28.3122 27.9412 29.4774 26.911 30.5002L26.245 29.9732C27.2974 29.0211 28.18 27.8967 28.855 26.6482L29.519 27.0402Z" fill="white"/>
<path d="M40.969 17.3199C40.867 17.4232 40.7647 17.5252 40.662 17.6259C41.8251 18.6079 43.0752 19.4818 44.397 20.2369C45.5942 20.9724 46.8545 21.5999 48.163 22.1119L47.7729 22.8449C47.2024 22.6116 46.644 22.3496 46.1 22.0599V25.9829H34.318V22.0599C33.739 22.3679 33.211 22.6239 32.718 22.8449L32.325 22.1789C33.8372 21.567 35.2829 20.8016 36.639 19.8949C38.0043 19.0133 39.2773 17.9965 40.439 16.8599L40.969 17.3199ZM45.453 21.7199C44.943 21.4459 44.43 21.1579 43.953 20.8509C42.6274 20.0253 41.3775 19.084 40.218 18.0379C39.4084 18.7675 38.5486 19.4395 37.645 20.0489C37.457 20.1849 37.269 20.3229 37.1 20.4219C36.332 20.9219 35.615 21.3449 34.933 21.7219L45.453 21.7199ZM39.776 25.3199V22.3859H35.054V25.3169L39.776 25.3199ZM38.5811 24.5869L38.1219 25.0479C37.5124 24.3221 36.8387 23.6527 36.109 23.0479L36.587 22.6569C37.3026 23.245 37.9701 23.8894 38.583 24.5839L38.5811 24.5869ZM42.571 20.0519V20.7179H37.645V20.0519H42.571ZM40.5081 25.3199H45.368V22.3859H40.5081V25.3199ZM44.3781 22.9839C43.8091 23.8002 43.1129 24.52 42.316 25.1159L41.771 24.6539C42.5417 24.1193 43.2208 23.4635 43.782 22.7119L44.3781 22.9839Z" fill="white"/>
<path d="M6.29504 44.0369V40.2019H2.85095V44.0369H1.20496V35.5049H2.85095V38.8369H6.29504V35.5049H7.95801V44.0369H6.29504Z" fill="white"/>
<path d="M18.032 41.5892C17.8942 42.0612 17.6515 42.496 17.3221 42.8612C16.9722 43.2879 16.5268 43.6264 16.022 43.8492C14.8809 44.2373 13.6458 44.2517 12.496 43.8902C12.0172 43.6999 11.5875 43.4038 11.2391 43.0242C10.8505 42.5997 10.5467 42.1048 10.344 41.5662C10.1378 40.9761 10.0383 40.3541 10.0501 39.7292C9.9827 38.5603 10.3716 37.4109 11.1351 36.5232C11.5167 36.1289 11.9783 35.821 12.4888 35.62C12.9994 35.4191 13.5471 35.3298 14.095 35.3582C14.7378 35.3419 15.3761 35.4697 15.9631 35.7322C16.4739 35.9701 16.9275 36.3153 17.293 36.7442C17.6226 37.1212 17.8675 37.5645 18.011 38.0442C18.1722 38.6177 18.2491 39.2116 18.2391 39.8072C18.2529 40.4079 18.1832 41.0076 18.032 41.5892ZM16.3201 38.6292C16.2682 38.3004 16.1606 37.9828 16.002 37.6902C15.8273 37.3624 15.5487 37.1018 15.21 36.9492C14.8414 36.7938 14.444 36.7185 14.0441 36.7282C13.6942 36.7261 13.3474 36.7941 13.0241 36.9282C12.7387 37.036 12.4915 37.226 12.314 37.4742C12.1421 37.7367 12.023 38.0301 11.9631 38.3382C11.8865 38.7469 11.851 39.1623 11.8571 39.5782C11.8517 40.0657 11.8982 40.5525 11.996 41.0302C12.0692 41.4063 12.2098 41.7661 12.4111 42.0922C12.5768 42.3527 12.8223 42.5527 13.111 42.6622C13.4638 42.8004 13.8402 42.8684 14.219 42.8622C14.6353 42.8758 15.0482 42.7836 15.4191 42.5942C15.7354 42.4183 15.9807 42.138 16.1131 41.8012C16.1241 41.7692 16.136 41.7352 16.153 41.7012C16.1702 41.661 16.1843 41.6195 16.1951 41.5772C16.2722 41.3521 16.3268 41.12 16.3581 40.8842C16.3931 40.5855 16.4091 40.2849 16.4061 39.9842C16.4144 39.5309 16.3857 39.0777 16.3201 38.6292Z" fill="white"/>
<path d="M25.3151 44.0369L22.526 39.6149L22.426 39.4449C22.387 39.3859 22.3511 39.3279 22.3201 39.2739C22.2891 39.2199 22.272 39.1869 22.246 39.1419C22.22 39.0969 22.195 39.0549 22.172 39.0119C22.096 38.8719 22.018 38.7349 21.937 38.6119C21.856 38.4889 21.7821 38.3539 21.7161 38.2329C21.7371 38.4199 21.752 38.6329 21.757 38.8629C21.762 39.0929 21.765 39.3629 21.765 39.6709L21.848 44.0419H20.1479V35.5049H21.926L24.7469 40.0229C24.7699 40.0569 24.791 40.0899 24.813 40.1229C24.835 40.1559 24.857 40.1929 24.879 40.2359C24.986 40.3979 25.088 40.5649 25.179 40.7359C25.27 40.9069 25.357 41.0569 25.434 41.1999C25.422 40.9939 25.4101 40.7679 25.3931 40.5249C25.3761 40.2819 25.368 40.0319 25.368 39.7829L25.319 35.5079H26.951V44.0369H25.3151Z" fill="white"/>
<path d="M34.875 43.9621C34.3718 44.0786 33.8565 44.1357 33.34 44.1321C32.7129 44.144 32.0889 44.0424 31.4981 43.8321C30.983 43.643 30.5118 43.3511 30.1131 42.9741C29.7095 42.5875 29.3996 42.1138 29.2071 41.5891C28.9955 40.9924 28.8938 40.3622 28.907 39.7291C28.887 38.9927 29.0287 38.2609 29.322 37.5851C29.6006 36.9909 30.0385 36.4855 30.5871 36.1251C30.9497 35.8886 31.3452 35.7069 31.761 35.5861C32.2126 35.4614 32.6795 35.4011 33.148 35.4071C33.4073 35.4056 33.6665 35.4239 33.923 35.4621C34.1687 35.502 34.411 35.5602 34.648 35.6361C34.8982 35.7158 35.1414 35.8161 35.375 35.9361C35.6411 36.0774 35.8992 36.2333 36.148 36.4031L35.317 37.4631L34.8361 37.1941C34.6971 37.1159 34.5518 37.049 34.402 36.9941C34.2163 36.9277 34.0258 36.8755 33.832 36.8381C33.6166 36.7989 33.398 36.7795 33.179 36.7801C32.719 36.768 32.2622 36.8603 31.843 37.0501C31.4936 37.208 31.2148 37.4893 31.0601 37.8401C30.9351 38.1337 30.8418 38.4398 30.782 38.7531C30.714 39.1081 30.6806 39.4688 30.682 39.8301C30.6644 40.393 30.7585 40.9539 30.959 41.4801C31.1247 41.8929 31.4311 42.2337 31.824 42.4421C32.0155 42.5425 32.2164 42.6236 32.424 42.6841C32.6364 42.7508 32.8554 42.795 33.077 42.8161C33.1365 42.8148 33.196 42.8178 33.255 42.8251C33.311 42.8251 33.3651 42.8331 33.4191 42.8331C33.6346 42.8328 33.8498 42.8167 34.063 42.7851C34.2574 42.7584 34.4468 42.7032 34.625 42.6211V40.6761H32.8001L32.505 39.2881H36.24V43.4171C35.8136 43.6636 35.3539 43.8472 34.875 43.9621Z" fill="white"/>
<path d="M45.901 42.7369C45.6323 43.1534 45.2551 43.4888 44.8101 43.7069C44.4887 43.8768 44.1439 43.9981 43.787 44.0669C43.3818 44.1458 42.9698 44.184 42.557 44.1809C41.9826 44.1792 41.4102 44.1121 40.851 43.9809C40.2652 43.8469 39.7026 43.6272 39.181 43.3289L39.881 42.0239C40.2013 42.1946 40.5309 42.3475 40.868 42.4819C41.1663 42.5979 41.475 42.6846 41.79 42.7409C41.9311 42.7644 42.0733 42.7804 42.2161 42.7889C42.3561 42.8029 42.4971 42.8059 42.6381 42.8059C42.8794 42.8107 43.1205 42.7889 43.3571 42.7409C43.5538 42.6983 43.7413 42.6211 43.911 42.5129C44.0811 42.4185 44.2284 42.2878 44.342 42.1299C44.4468 41.9845 44.5018 41.8091 44.499 41.6299C44.4995 41.493 44.4671 41.358 44.4047 41.2362C44.3422 41.1144 44.2515 41.0094 44.14 40.9299C43.7886 40.6972 43.3947 40.5362 42.981 40.4559L41.724 40.1479C41.1233 40.0197 40.5733 39.7183 40.142 39.2809C39.7661 38.9047 39.555 38.3947 39.5551 37.8629C39.5507 37.5023 39.6327 37.1459 39.7943 36.8235C39.9559 36.5011 40.1924 36.2221 40.484 36.0099C41.1784 35.5024 42.0248 35.2463 42.884 35.2839C43.004 35.2839 43.123 35.2889 43.244 35.2919C43.365 35.2949 43.484 35.3079 43.603 35.3169C44.0525 35.3715 44.495 35.472 44.924 35.6169C45.3474 35.7566 45.7486 35.9567 46.115 36.2109L45.347 37.3849C44.9937 37.1849 44.6228 37.0175 44.239 36.8849C43.9055 36.7763 43.5599 36.7091 43.21 36.6849C43.1677 36.6744 43.1246 36.6687 43.0811 36.6679H42.951C42.5428 36.6509 42.1372 36.7416 41.775 36.9309C41.6374 36.9971 41.5213 37.1011 41.4404 37.2307C41.3595 37.3603 41.3171 37.5101 41.318 37.6629C41.3181 37.8264 41.3799 37.9839 41.491 38.1039C41.6296 38.2509 41.8009 38.3633 41.991 38.4319L42.058 38.4629C42.0781 38.4754 42.0992 38.4865 42.121 38.4959C42.1553 38.5069 42.1887 38.5206 42.2209 38.5369C42.2533 38.5531 42.2868 38.5671 42.321 38.5789C42.364 38.5879 42.415 38.5999 42.475 38.6089C42.535 38.6179 42.604 38.6379 42.682 38.6579L43.855 38.9519C44.1999 39.0401 44.5349 39.1631 44.855 39.3189C45.1406 39.4545 45.4071 39.627 45.6479 39.8319C45.8581 40.035 46.0222 40.2809 46.129 40.5529C46.2432 40.8321 46.3009 41.1312 46.299 41.4329C46.2983 41.8974 46.1598 42.3512 45.901 42.7369Z" fill="white"/>
<path d="M1.19397 47.374H4.052L3.95203 47.979H1.93005V49.323H3.59595V49.923H1.93005V52.137H1.19604L1.19397 47.374Z" fill="white"/>
<path d="M5.42004 47.9261C5.62065 47.7069 5.86711 47.5347 6.14196 47.4218C6.41682 47.3089 6.71325 47.2581 7.01 47.2731C7.35453 47.2651 7.69638 47.3352 8.01 47.4781C8.28755 47.6106 8.53243 47.8029 8.72704 48.0411C8.90816 48.253 9.0397 48.5028 9.11205 48.7721C9.19661 49.0985 9.23654 49.4349 9.23095 49.7721C9.23813 50.1087 9.20148 50.4449 9.12194 50.7721C9.04914 51.0351 8.92096 51.2796 8.74596 51.4891C8.55992 51.7242 8.3198 51.9108 8.04601 52.0331C7.73343 52.1564 7.39883 52.2142 7.06298 52.2031C6.75362 52.2115 6.44525 52.1637 6.15295 52.0621C5.89216 51.959 5.66053 51.7939 5.47802 51.5811C5.26425 51.3406 5.09951 51.0607 4.99304 50.7571C4.88353 50.4229 4.8308 50.0727 4.83703 49.7211C4.80153 49.0711 5.00938 48.4311 5.42004 47.9261ZM7.69006 48.0091C7.46705 47.9114 7.22542 47.8637 6.98205 47.8691C6.76818 47.8679 6.55663 47.9133 6.36205 48.0021C6.18688 48.0758 6.03625 48.1979 5.92797 48.3541C5.82276 48.511 5.75129 48.6881 5.71801 48.8741C5.67107 49.1249 5.64923 49.3799 5.65295 49.6351C5.64977 49.9331 5.67728 50.2306 5.73498 50.5231C5.77822 50.7493 5.8623 50.9659 5.98303 51.1621C6.08275 51.3222 6.22992 51.4474 6.40405 51.5201C6.61855 51.6111 6.85005 51.6551 7.083 51.6491C7.33533 51.6575 7.58538 51.5992 7.80798 51.4801C8.00692 51.3678 8.15858 51.1874 8.23498 50.9721C8.23981 50.9549 8.24621 50.9381 8.25402 50.9221C8.26002 50.9061 8.26599 50.8891 8.27099 50.8721C8.32144 50.7312 8.35692 50.5854 8.37695 50.4371C8.39957 50.2469 8.41036 50.0555 8.40905 49.8641C8.41294 49.5927 8.39449 49.3214 8.354 49.0531C8.324 48.8565 8.26254 48.6661 8.17199 48.4891C8.07045 48.279 7.90054 48.1097 7.69006 48.0091Z" fill="white"/>
<path d="M10.441 47.3481H11.1739V50.2181C11.1739 50.4081 11.181 50.5711 11.193 50.7091C11.1984 50.8127 11.2138 50.9155 11.239 51.0161C11.3026 51.1975 11.4341 51.347 11.6059 51.4331C11.8109 51.5409 12.0405 51.5933 12.2719 51.5851C12.4573 51.5892 12.642 51.5615 12.818 51.5031C12.9554 51.4573 13.0753 51.37 13.161 51.2531C13.1729 51.2382 13.1833 51.2221 13.192 51.2051C13.2023 51.1903 13.2132 51.1759 13.2249 51.1621C13.2737 51.0679 13.3074 50.9667 13.3249 50.8621C13.346 50.7131 13.3552 50.5626 13.352 50.4121V47.3481H14.083V50.3911C14.0918 50.6652 14.0686 50.9394 14.014 51.2081C13.9674 51.3932 13.8705 51.5618 13.734 51.6951C13.723 51.7127 13.7091 51.7282 13.693 51.7411C13.6782 51.7526 13.6642 51.765 13.651 51.7781C13.4817 51.9299 13.2809 52.0423 13.063 52.1071C12.7988 52.1792 12.5257 52.2129 12.2519 52.2071C11.8671 52.2319 11.4832 52.1476 11.144 51.9641C10.9143 51.8301 10.7271 51.6339 10.604 51.3981C10.5906 51.376 10.5796 51.3526 10.571 51.3281L10.541 51.2531C10.5004 51.1466 10.4736 51.0354 10.461 50.9221C10.4432 50.7457 10.4355 50.5684 10.438 50.3911L10.441 47.3481Z" fill="white"/>
<path d="M15.55 47.3481H16.394L17.951 49.9481C17.962 49.9651 17.9721 49.9841 17.9821 49.9971C17.9909 50.0152 18.0016 50.0323 18.014 50.0481C18.153 50.2941 18.2781 50.5191 18.3831 50.7251C18.4881 50.9311 18.552 51.0471 18.563 51.0671C18.546 50.8881 18.529 50.7331 18.516 50.5981C18.511 50.4981 18.506 50.3801 18.5 50.2551C18.494 50.1301 18.487 50.0021 18.48 49.8741V49.7551L18.452 47.3551H19.168V52.1371H18.406L16.869 49.5991C16.844 49.5591 16.819 49.5111 16.791 49.4621C16.763 49.4131 16.735 49.3621 16.705 49.3181L16.673 49.2521C16.663 49.2331 16.652 49.2121 16.641 49.1881C16.525 48.9791 16.377 48.7041 16.201 48.3561C16.2079 48.3935 16.2122 48.4312 16.214 48.4691C16.218 48.5138 16.22 48.5678 16.22 48.6311C16.227 48.7521 16.233 48.8991 16.243 49.0731C16.253 49.2471 16.255 49.4511 16.255 49.6831L16.301 52.1371H15.55V47.3481Z" fill="white"/>
<path d="M20.752 47.3838H21.832C21.996 47.3838 22.154 47.3838 22.308 47.3908C22.462 47.3978 22.59 47.4078 22.691 47.4198C22.8879 47.4437 23.0807 47.4942 23.264 47.5698C23.4557 47.6502 23.6335 47.7602 23.791 47.8958C24.0343 48.0989 24.2227 48.3599 24.339 48.6548C24.4657 49.0073 24.5251 49.3804 24.514 49.7548C24.5378 50.2478 24.4156 50.7368 24.163 51.1608C23.9691 51.4717 23.7029 51.7311 23.387 51.9168C23.2888 51.9689 23.1865 52.0127 23.0811 52.0478C22.9915 52.0803 22.8979 52.1008 22.803 52.1088C22.723 52.1138 22.6281 52.1218 22.5181 52.1258C22.4081 52.1298 22.2831 52.1368 22.1431 52.1368H20.752V47.3838ZM21.484 47.9838V51.5278H22.068C22.168 51.5278 22.249 51.5278 22.317 51.5278C22.385 51.5278 22.448 51.5188 22.509 51.5118C22.533 51.5118 22.5611 51.4998 22.5911 51.4948L22.682 51.4758C22.9761 51.4096 23.2375 51.2417 23.42 51.0018C23.648 50.6451 23.7532 50.2238 23.72 49.8018C23.7282 49.5174 23.6945 49.2334 23.62 48.9588C23.5584 48.7482 23.4446 48.5565 23.2891 48.4018C23.1484 48.2438 22.9666 48.1278 22.764 48.0668C22.5445 48.011 22.3185 47.9845 22.092 47.9878L21.484 47.9838Z" fill="white"/>
<path d="M27.9401 47.3481L29.705 52.1351H28.88L28.395 50.8061H26.473L25.983 52.1371H25.2421L27.028 47.3501L27.9401 47.3481ZM26.675 50.2031H28.2209C28.2149 50.1921 28.173 50.0711 28.094 49.8501C28.015 49.6291 27.93 49.3821 27.838 49.1131C27.746 48.8441 27.611 48.4691 27.452 48.0051L26.675 50.2031Z" fill="white"/>
<path d="M29.861 47.3481H33.512L33.4301 47.9691H31.993V52.1371H31.2791V47.9691H29.861V47.3481Z" fill="white"/>
<path d="M34.6021 47.3481H35.334V52.1371H34.6021V47.3481Z" fill="white"/>
<path d="M37.3151 47.9259C37.5158 47.7071 37.7622 47.5352 38.0368 47.4224C38.3114 47.3095 38.6075 47.2585 38.9041 47.2729C39.2486 47.2651 39.5904 47.3351 39.9041 47.4779C40.1814 47.6108 40.4261 47.803 40.621 48.0409C40.801 48.2536 40.9324 48.5031 41.006 48.7719C41.0911 49.0983 41.1311 49.4347 41.125 49.7719C41.1322 50.1085 41.0956 50.4447 41.016 50.7719C40.9437 51.0351 40.8154 51.2797 40.6401 51.4889C40.4539 51.7239 40.2138 51.9105 39.9401 52.0329C39.6272 52.1562 39.2923 52.2141 38.9561 52.2029C38.6461 52.211 38.3372 52.1632 38.0441 52.0619C37.7846 51.958 37.554 51.793 37.372 51.5809C37.1579 51.3405 36.9929 51.0606 36.886 50.7569C36.7772 50.4226 36.7253 50.0724 36.7321 49.7209C36.697 49.071 36.9048 48.4312 37.3151 47.9259ZM39.5871 48.0089C39.3633 47.9115 39.121 47.8637 38.877 47.8689C38.6635 47.868 38.4524 47.9133 38.2581 48.0019C38.0825 48.0745 37.9319 48.1969 37.825 48.3539C37.7186 48.5103 37.6467 48.6876 37.6141 48.8739C37.5665 49.1247 37.5451 49.3797 37.5501 49.6349C37.5463 49.9329 37.5731 50.2304 37.63 50.5229C37.6746 50.7488 37.7586 50.9651 37.8781 51.1619C37.9784 51.3223 38.1262 51.4475 38.3011 51.5199C38.5148 51.6111 38.7457 51.6551 38.9781 51.6489C39.231 51.657 39.4816 51.5987 39.705 51.4799C39.9031 51.3674 40.0538 51.1869 40.1291 50.9719C40.1345 50.9546 40.1415 50.9379 40.1501 50.9219C40.1551 50.9059 40.1611 50.8889 40.1661 50.8719C40.2165 50.731 40.252 50.5852 40.272 50.4369C40.2946 50.2468 40.3053 50.0554 40.304 49.8639C40.3074 49.5925 40.2891 49.3213 40.2491 49.0529C40.2182 48.8566 40.1567 48.6663 40.0671 48.4889C39.9646 48.2788 39.794 48.1096 39.583 48.0089H39.5871Z" fill="white"/>
<path d="M42.4 47.3481H43.244L44.799 49.9481C44.811 49.9651 44.822 49.9841 44.832 49.9971C44.842 50.0101 44.852 50.0311 44.863 50.0481C45.004 50.2941 45.129 50.5191 45.235 50.7251C45.341 50.9311 45.4 51.0471 45.412 51.0671C45.394 50.8881 45.378 50.7331 45.368 50.5981C45.361 50.4981 45.355 50.3801 45.347 50.2551C45.339 50.1301 45.336 50.0021 45.33 49.8741V49.7551L45.303 47.3551H46.016V52.1371H45.2581L43.718 49.5991C43.695 49.5591 43.668 49.5111 43.642 49.4621C43.616 49.4131 43.5841 49.3621 43.5551 49.3181C43.5453 49.2953 43.5339 49.2733 43.521 49.2521C43.513 49.2331 43.502 49.2121 43.489 49.1881C43.375 48.9791 43.228 48.7041 43.051 48.3561C43.059 48.3933 43.063 48.4312 43.063 48.4691C43.0678 48.523 43.0698 48.5771 43.069 48.6311C43.074 48.7521 43.0821 48.8991 43.0911 49.0731C43.1001 49.2471 43.106 49.4511 43.106 49.6831L43.152 52.1371H42.4V47.3481Z" fill="white"/>
<path d="M35.309 26.9722V31.7802H37.765V36.4012L41.702 31.7802H45.1121V26.9722H35.309ZM44.3781 31.1172H41.3831L38.438 34.5712V31.1172H36.038V27.6372H44.374L44.3781 31.1172Z" fill="white"/>
<path d="M36.774 29.6489H41.151L41.24 28.9849H36.774V29.6489Z" fill="white"/>
<path opacity="0.5" d="M13.863 74.7689C14.457 74.7689 14.573 74.5549 14.637 73.0389C15.0518 73.2844 15.5032 73.4623 15.974 73.5659C15.808 75.5939 15.38 76.0709 14.012 76.0709H11.441C9.69304 76.0709 9.28101 75.6709 9.28101 74.3069V72.7259H7.17102C6.67702 74.6369 5.40895 75.7259 1.79895 76.3179C1.61829 75.8572 1.35582 75.433 1.02405 75.0659C4.10705 74.6659 5.14495 73.9939 5.57495 72.7259H3.46301V65.8699H3.79297C3.52479 65.1524 3.14072 64.4839 2.65601 63.8909L4.08801 63.4809C4.64249 64.0838 5.07419 64.7889 5.35901 65.5569L4.354 65.8699H11.326L10.946 65.7549C11.6026 64.8668 12.1719 63.9174 12.646 62.9199L14.3459 63.3979C13.8039 64.2549 13.1601 65.1609 12.6171 65.8699H13.4561V72.7259H10.783V74.2919C10.783 74.7029 10.915 74.7689 11.606 74.7689H13.863ZM15.1331 62.2599C10.8516 62.9383 6.52811 63.3185 2.19397 63.3979C2.10596 62.9848 1.95025 62.5891 1.73303 62.2269C5.77373 62.1448 9.80435 61.7923 13.798 61.1719L15.1331 62.2599ZM4.91406 67.8309H11.934V66.9249H4.91406V67.8309ZM4.91406 69.7429H11.934V68.8189H4.91406V69.7429ZM4.91406 71.6539H11.934V70.7479H4.91406V71.6539ZM7.96204 65.8039C7.79857 64.9976 7.49203 64.2271 7.05701 63.5289L8.54004 63.1509C9.00244 63.8419 9.34771 64.6045 9.56201 65.4079L7.96204 65.8039Z" fill="white"/>
<path opacity="0.5" d="M23.803 65.1111H16.995V63.8911H20.045C19.7135 63.1173 19.3164 62.3733 18.858 61.6671L20.058 61.0571C20.5297 61.7411 20.9429 62.4636 21.293 63.2171L20.074 63.8911H23.8L23.803 65.1111ZM17.703 66.0841H23.109V67.2841H17.703V66.0841ZM23.059 69.4461H17.703V68.2591H23.059V69.4461ZM23.125 75.3131H19.12V76.0551H17.802V70.4841H23.125V75.3131ZM19.12 74.0771H21.792V71.7201H19.12V74.0771ZM31.6281 68.2091H28.399V76.2691H26.816V68.2091H23.7681V66.7091H26.816V61.4521H28.399V66.7091H31.6281V68.2091Z" fill="white"/>
<path opacity="0.5" d="M47.142 68.5882V69.5952H32.442V68.5882H38.9191V67.8642H33.6591V66.9742H38.9191V66.2652H34.089V65.3912H38.9191V64.6372H32.476V63.7312H38.9191V63.0222H34.189V62.1482H38.9191V61.1372H40.468V62.1432H45.33V63.7262H47.094V64.6322H45.33V66.2632H40.468V66.9722H46.0229V67.8622H40.468V68.5862L47.142 68.5882ZM32.442 74.7692H47.142V75.8242H32.442V74.7692ZM45.412 74.1422H34.283V70.2422H45.408L45.412 74.1422ZM35.786 71.7862H39.035V71.0442H35.783L35.786 71.7862ZM35.786 73.3352H39.035V72.5772H35.783L35.786 73.3352ZM40.468 63.7282H43.797V63.0192H40.468V63.7282ZM40.468 65.3912H43.797V64.6372H40.468V65.3912ZM43.848 71.0442H40.4661V71.7852H43.848V71.0442ZM43.848 72.5772H40.4661V73.3352H43.848V72.5772Z" fill="white"/>
<path opacity="0.5" d="M2.24902 79.983H4.37903C5.0618 79.9197 5.74752 80.0681 6.34302 80.408C6.69452 80.6316 6.98184 80.9427 7.17664 81.3109C7.37143 81.6791 7.46696 82.0917 7.45398 82.508C7.47554 82.8842 7.41241 83.2604 7.26929 83.609C7.12616 83.9576 6.90665 84.2696 6.62695 84.522C6.02206 84.9982 5.26209 85.233 4.49402 85.181H2.95898V88.837H2.24902V79.983ZM4.45703 84.592C4.74491 84.62 5.03545 84.5885 5.31067 84.4995C5.58589 84.4106 5.8399 84.2661 6.05701 84.075C6.24722 83.8881 6.39791 83.6648 6.50012 83.4185C6.60234 83.1721 6.65396 82.9077 6.65198 82.641C6.67492 82.3375 6.62313 82.0329 6.5011 81.7539C6.37907 81.475 6.19056 81.2302 5.95203 81.041C5.42874 80.6985 4.80469 80.5438 4.18201 80.602H2.95605V84.592H4.45703Z" fill="white"/>
<path opacity="0.5" d="M8.93799 79.9819H10.771C11.5474 79.8951 12.329 80.0926 12.9709 80.5379C13.2481 80.7636 13.4701 81.0495 13.62 81.3739C13.7699 81.6983 13.8438 82.0527 13.8361 82.4099C13.8572 82.7302 13.8087 83.0513 13.6941 83.3511C13.5795 83.6509 13.4014 83.9223 13.172 84.1468C12.9426 84.3713 12.6672 84.5435 12.365 84.6516C12.0628 84.7596 11.7408 84.801 11.421 84.7729H11.3311C11.8126 85.0733 12.2052 85.4969 12.468 85.9999C13.048 86.8899 14.0551 88.4789 14.2891 88.8399H13.371C12.7613 87.6918 12.0664 86.591 11.292 85.5469C11.1686 85.3269 10.9914 85.1418 10.777 85.0089C10.5626 84.876 10.318 84.7996 10.066 84.7869H9.65405V88.8369H8.94202L8.93799 79.9819ZM10.76 84.3199C11.3601 84.3724 11.9599 84.2178 12.46 83.8819C12.6652 83.6956 12.8253 83.4649 12.9281 83.2074C13.0309 82.9499 13.0736 82.6724 13.053 82.3959C13.0614 82.0934 12.9877 81.7942 12.8398 81.5301C12.692 81.266 12.4754 81.0469 12.213 80.8959C11.7758 80.6696 11.2855 80.566 10.7941 80.5959H9.646V84.3139L10.76 84.3199Z" fill="white"/>
<path opacity="0.5" d="M16.2829 87.7043C15.629 86.73 15.3078 85.5703 15.367 84.3983C15.3207 83.2833 15.6029 82.1792 16.1789 81.2233C16.4768 80.7909 16.8777 80.4393 17.3452 80.2001C17.8127 79.961 18.3323 79.8418 18.8573 79.8533C19.3823 79.8648 19.8962 80.0066 20.3528 80.266C20.8094 80.5254 21.1943 80.8943 21.473 81.3393C22.0199 82.3048 22.2798 83.4063 22.222 84.5143C22.314 85.7339 21.9301 86.9417 21.151 87.8843C20.8698 88.2355 20.5116 88.5174 20.1041 88.7081C19.6966 88.8989 19.2508 88.9934 18.801 88.9843C18.3087 88.9938 17.8216 88.8823 17.3825 88.6594C16.9435 88.4366 16.5659 88.1093 16.2829 87.7063V87.7043ZM20.764 87.3963C21.2558 86.5583 21.4765 85.5887 21.396 84.6203C21.4466 83.6444 21.2792 82.6695 20.906 81.7663C20.7196 81.3614 20.4179 81.0204 20.0387 80.7861C19.6594 80.5519 19.2196 80.4347 18.774 80.4493C18.3488 80.4385 17.9288 80.5447 17.5599 80.7563C17.191 80.9679 16.8873 81.2768 16.682 81.6493C16.3117 82.467 16.1404 83.3607 16.182 84.2573C16.1405 85.2919 16.3398 86.3219 16.764 87.2663C16.9823 87.6202 17.288 87.9118 17.6518 88.1131C18.0156 88.3144 18.4253 88.4185 18.841 88.4153C19.2227 88.4256 19.6005 88.3371 19.938 88.1584C20.2754 87.9797 20.5609 87.7168 20.7669 87.3953" fill="white"/>
<path opacity="0.5" d="M23.35 90.0024C23.8201 89.8391 24.2238 89.5261 24.499 89.1114C24.7152 88.5526 24.7946 87.9502 24.731 87.3544V79.9834H25.467V87.3374C25.5552 88.0377 25.4475 88.7486 25.156 89.3914C24.8173 89.9088 24.3054 90.2885 23.712 90.4624L23.35 90.0024Z" fill="white"/>
<path opacity="0.5" d="M28.205 79.9819H32.8151L32.715 80.5889H28.9451V83.9069H32.031V84.5399H28.9451V88.2069H32.96V88.8399H28.208L28.205 79.9819Z" fill="white"/>
<path opacity="0.5" d="M37.583 88.9689C37.0935 88.9806 36.6081 88.877 36.1661 88.6662C35.7241 88.4555 35.338 88.1436 35.039 87.7559C34.3506 86.791 34.0087 85.6216 34.0689 84.4379C34.0434 83.3727 34.3159 82.3215 34.8559 81.4029C35.1413 80.9361 35.5422 80.5506 36.0199 80.2837C36.4975 80.0168 37.0358 79.8774 37.583 79.8789C38.3477 79.8605 39.0952 80.1079 39.698 80.5789L39.3139 81.0569C38.8202 80.6619 38.202 80.4556 37.57 80.4749C37.0978 80.4659 36.6336 80.5988 36.2376 80.8564C35.8417 81.114 35.5321 81.4845 35.349 81.9199C34.9973 82.7481 34.829 83.6425 34.8559 84.5419C34.8248 85.3369 34.9796 86.1282 35.3079 86.8529C35.5078 87.3137 35.8415 87.704 36.2656 87.9732C36.6897 88.2424 37.1849 88.3782 37.687 88.3629C38.337 88.3637 38.9684 88.146 39.4799 87.7449L39.88 88.2449C39.2038 88.7125 38.402 88.9645 37.5799 88.9679" fill="white"/>
<path opacity="0.5" d="M43.3521 80.6024H40.9V79.9834H46.594L46.542 80.6024H44.064V88.8374H43.3521V80.6024Z" fill="white"/>
<path opacity="0.5" d="M6.26501 105.637C4.78358 105.622 3.32963 105.235 2.03601 104.513L2.96399 102.569C3.99556 103.188 5.16852 103.532 6.37097 103.569C7.79897 103.569 8.54797 102.979 8.54797 101.869C8.54797 101.069 8.03095 100.569 6.92395 100.269L5.55005 99.895C5.05891 99.8081 4.58985 99.6245 4.17029 99.3548C3.75072 99.0851 3.38893 98.7347 3.10596 98.324C2.76098 97.754 2.58166 97.0992 2.58801 96.433C2.58801 94.167 4.40798 92.596 7.03198 92.596C8.50633 92.5833 9.94977 93.0189 11.171 93.845L9.99402 95.63C9.14197 95.0421 8.13779 94.7139 7.10303 94.685C6.08503 94.685 5.37195 95.273 5.37195 96.111C5.37195 96.754 5.71097 97.076 6.74597 97.36L8.24597 97.77C10.282 98.324 11.387 99.626 11.387 101.464C11.387 103.979 9.35397 105.639 6.26697 105.639" fill="white"/>
<path opacity="0.5" d="M15.224 105.371V92.9712H22.288L21.967 95.0052H17.757V97.8772H21.272V99.9122H17.757V103.231H22.45V105.371H15.224Z" fill="white"/>
<path opacity="0.5" d="M26.283 105.371V92.9712H33.348L33.027 95.0052H28.817V97.8772H32.332V99.9122H28.817V103.231H33.51V105.371H26.283Z" fill="white"/>
<path opacity="0.5" d="M43.668 105.371L39.902 98.8942V105.371H37.349V92.9712H39.902V98.6272L43.4351 92.9712H46.504L42.543 98.7162L46.95 105.371H43.668Z" fill="white"/>
</svg>
