<svg width="49" height="106" viewBox="0 0 49 106" fill="none" xmlns="http://www.w3.org/2000/svg">
<path d="M3.92297 6.206L2.92297 7.264C2.03923 6.61302 1.10271 6.03702 0.123047 5.542L1.19702 4.468C2.16591 4.94696 3.07989 5.52971 3.92297 6.206ZM4.13 10.406C3.43 11.855 2.69505 13.199 1.93005 14.465C1.93005 14.856 1.79402 15.065 1.52002 15.065L0.19104 13.937C1.33757 12.4546 2.342 10.8676 3.19104 9.197L4.13 10.406ZM4.65698 2.271L3.651 3.345C2.81081 2.69846 1.92224 2.11741 0.993042 1.607L2.06506 0.548C2.98932 1.02451 3.85843 1.60095 4.65698 2.267V2.271ZM8.81799 11.291C8.91799 11.376 8.98901 11.461 8.98901 11.531C8.98901 11.631 8.88906 11.7 8.71606 11.731C7.84007 13.0443 6.81554 14.2523 5.66296 15.331L4.26306 14.255C5.61251 13.2341 6.78269 11.9958 7.72595 10.591L8.81799 11.291ZM7.18201 3.482V0L8.54602 0.118C8.78502 0.153 8.92102 0.218 8.92102 0.34C8.92102 0.409 8.82095 0.527001 8.64795 0.665001V3.478H11.448V0L12.811 0.118C13.05 0.153 13.186 0.218 13.186 0.34C13.186 0.409 13.086 0.527001 12.915 0.665001V3.478H15.046V4.878H12.915V8.337H15.5911V9.737H4.32007V8.337H7.18506V4.877H4.93506V3.477L7.18201 3.482ZM11.4451 4.882H8.64502V8.337H11.4451V4.882ZM15.657 14.193L14.191 15.267C13.0365 14.137 12.0694 12.8303 11.326 11.396L12.5181 10.596C13.2877 12.0092 14.3594 13.2353 15.657 14.187V14.193Z" fill="black"/>
<path d="M25.321 1.07372V0.136719L26.7209 0.255718C26.9779 0.273718 27.1121 0.339719 27.1121 0.475719C27.1121 0.561719 27.0291 0.698717 26.8571 0.869717V1.06972H30.386V3.33672H31.905V4.66772H30.3831V6.93672H26.854V7.99472H30.571V9.32272H26.854V10.3987H30.9821V11.7987H26.854V13.6757C27.759 13.7097 28.782 13.7267 29.907 13.7267C30.417 13.7267 31.084 13.7097 31.902 13.6567L31.168 15.3297C28.8688 15.3544 26.57 15.2633 24.28 15.0567C23.1854 14.9607 22.1048 14.7437 21.058 14.4097C20.4716 14.2086 19.9105 13.9401 19.386 13.6097C18.8268 14.3771 18.1267 15.0311 17.323 15.5367L16.198 14.3247C16.9759 13.9254 17.6477 13.3468 18.158 12.6367C17.4745 11.8865 16.902 11.0423 16.458 10.1297L17.667 9.67072C18.0454 10.2533 18.4677 10.8062 18.9301 11.3247C19.4097 10.07 19.6798 8.74503 19.73 7.40272H18.33L17.7841 8.52672L16.455 8.06772L19.063 2.61072H16.5229V1.21072H19.387L19.796 1.07572C19.937 1.08166 20.0732 1.12857 20.188 1.21072L21.024 1.72272C21.0671 1.74491 21.1047 1.7763 21.1343 1.81467C21.1638 1.85303 21.1846 1.89743 21.1951 1.94472C21.1951 2.09872 21.059 2.25172 20.785 2.40572L19.012 6.00572H21.1951C21.2099 8.06275 20.8814 10.1078 20.223 12.0567C20.1892 12.1454 20.1491 12.2317 20.103 12.3147C20.873 12.7996 21.7304 13.1292 22.627 13.2847C23.5134 13.4737 24.4151 13.5828 25.321 13.6107V11.7987H21.1951V10.3987H25.321V9.32572H21.7209V7.99772H25.321V6.93672H22.116V5.60672H25.321V4.66872H20.7209V3.33672H25.321V2.39972H22.116V1.06972L25.321 1.07372ZM26.855 3.34072H28.918V2.40372H26.855V3.34072ZM26.855 5.60972H28.918V4.67172H26.855V5.60972Z" fill="black"/>
<path d="M35.717 1.94258V0.475586H41.702C42.4111 1.7684 43.3801 2.90047 44.548 3.80058C45.6485 4.62049 46.8384 5.31292 48.095 5.86459L46.902 7.26458C46.425 6.99058 45.982 6.73358 45.574 6.47958V7.73658H41.105V9.86758H45.1121V11.2676H41.105V13.5176H47.636V14.9176H32.853V13.5176H39.519V11.2676H35.719V9.86758H39.519V7.73658H35.183V6.42759C34.74 6.69959 34.262 6.95658 33.783 7.19458L32.3831 5.93359C33.8453 5.35501 35.2444 4.62857 36.559 3.76558C37.3269 3.24088 38.0317 2.62915 38.6591 1.94258H35.717ZM45.334 6.32558C44.5054 5.82172 43.7233 5.24512 42.9969 4.60258C42.1177 3.81984 41.3446 2.92561 40.697 1.94258H40.22C39.4576 2.97881 38.5833 3.92787 37.613 4.77258C36.906 5.35038 36.1532 5.86976 35.3621 6.32558H45.334Z" fill="black"/>
<path d="M4.06104 18.6505V16.9785H4.79407V18.6505H10.983V16.9785H11.718V18.6505H14.924V19.3145H11.718V25.2485H15.5181V25.9115H10.743C12.1667 27.3962 13.8782 28.5749 15.7729 29.3755L15.173 30.0405C13.1329 29.0708 11.3334 27.6606 9.90405 25.9115H5.86304C5.20383 26.7452 4.42936 27.4809 3.56299 28.0965C2.54568 28.8244 1.46069 29.4526 0.322998 29.9725L0 29.3725C1.08493 28.8967 2.11361 28.3017 3.06702 27.5985C3.77307 27.1185 4.41523 26.5506 4.97803 25.9085H0.118042V25.2455H4.05701V19.3145H0.734009V18.6505H4.06104ZM7.45398 28.3705V26.6475H8.18799V28.3705H11.855V29.0505H8.18298V31.3715H14.441V32.0365H1.26001V31.3735H7.44897V29.0505H3.91797V28.3705H7.45398ZM10.983 20.7145V19.3145H4.79407V20.7145H10.983ZM10.983 22.9145V21.3775H4.79407V22.9115L10.983 22.9145ZM10.983 25.2515V23.5795H4.79407V25.2485L10.983 25.2515Z" fill="black"/>
<path d="M24.983 17.3897C24.798 17.6087 24.609 17.8147 24.439 18.0037C25.5895 19.1101 26.8395 20.1083 28.173 20.9857C29.3721 21.8105 30.6441 22.5242 31.973 23.1177L31.5131 23.9177C30.1564 23.2792 28.8659 22.5088 27.66 21.6177C26.3328 20.6948 25.0941 19.6507 23.96 18.4987C23.0357 19.4165 22.0501 20.2705 21.01 21.0547C19.5988 22.1341 18.0988 23.0922 16.526 23.9187L16.134 23.1867C17.6867 22.4483 19.1554 21.5451 20.515 20.4927C21.9247 19.4417 23.2217 18.2473 24.385 16.9287L24.983 17.3897ZM28.12 22.0427V22.7757H24.4561V25.3847H30.645V26.1187H24.4561V31.0467H31.718V31.7797H16.459V31.0467H23.6591V26.1187H17.468V25.3847H23.6591V22.7757H19.983V22.0427H28.12ZM21.932 29.9727L21.249 30.6387C20.5036 29.4434 19.6356 28.329 18.6591 27.3137L19.187 26.7847C20.1976 27.76 21.1152 28.8273 21.928 29.9727H21.932ZM29.519 27.0397C28.8195 28.3117 27.9412 29.4769 26.911 30.4997L26.245 29.9727C27.2974 29.0206 28.18 27.8962 28.855 26.6477L29.519 27.0397Z" fill="black"/>
<path d="M40.969 17.3204C40.867 17.4237 40.7647 17.5257 40.662 17.6264C41.8251 18.6084 43.0752 19.4823 44.397 20.2374C45.5942 20.9729 46.8545 21.6003 48.163 22.1124L47.7729 22.8454C47.2024 22.6121 46.644 22.3501 46.1 22.0604V25.9833H34.318V22.0604C33.739 22.3684 33.211 22.6244 32.718 22.8454L32.325 22.1794C33.8372 21.5674 35.2829 20.8021 36.639 19.8954C38.0043 19.0138 39.2773 17.997 40.439 16.8604L40.969 17.3204ZM45.453 21.7204C44.943 21.4464 44.43 21.1584 43.953 20.8514C42.6274 20.0258 41.3775 19.0844 40.218 18.0384C39.4084 18.768 38.5486 19.4399 37.645 20.0494C37.457 20.1854 37.269 20.3234 37.1 20.4224C36.332 20.9224 35.615 21.3454 34.933 21.7224L45.453 21.7204ZM39.776 25.3204V22.3864H35.054V25.3174L39.776 25.3204ZM38.5811 24.5874L38.1219 25.0484C37.5124 24.3226 36.8387 23.6532 36.109 23.0484L36.587 22.6574C37.3026 23.2455 37.9701 23.8899 38.583 24.5844L38.5811 24.5874ZM42.571 20.0524V20.7183H37.645V20.0524H42.571ZM40.5081 25.3204H45.368V22.3864H40.5081V25.3204ZM44.3781 22.9844C43.8091 23.8007 43.1129 24.5205 42.316 25.1164L41.771 24.6544C42.5417 24.1198 43.2208 23.464 43.782 22.7124L44.3781 22.9844Z" fill="black"/>
<path d="M6.29517 44.0369V40.2019H2.85107V44.0369H1.20508V35.5049H2.85107V38.8369H6.29517V35.5049H7.95813V44.0369H6.29517Z" fill="black"/>
<path d="M18.0319 41.5887C17.894 42.0607 17.6514 42.4955 17.322 42.8607C16.9721 43.2874 16.5267 43.6259 16.0219 43.8487C14.8808 44.2368 13.6457 44.2512 12.4959 43.8897C12.017 43.6994 11.5874 43.4033 11.2389 43.0237C10.8504 42.5992 10.5466 42.1043 10.3439 41.5657C10.1377 40.9756 10.0382 40.3536 10.05 39.7287C9.98257 38.5598 10.3715 37.4104 11.1349 36.5227C11.5166 36.1284 11.9781 35.8205 12.4887 35.6195C12.9993 35.4186 13.5469 35.3293 14.0949 35.3577C14.7377 35.3414 15.376 35.4692 15.9629 35.7317C16.4738 35.9697 16.9273 36.3148 17.2929 36.7437C17.6225 37.1207 17.8673 37.564 18.0109 38.0437C18.1721 38.6172 18.249 39.2111 18.2389 39.8067C18.2528 40.4074 18.1831 41.0071 18.0319 41.5887ZM16.32 38.6287C16.2681 38.2999 16.1604 37.9824 16.0019 37.6897C15.8271 37.3619 15.5486 37.1013 15.2099 36.9487C14.8412 36.7933 14.4439 36.718 14.044 36.7277C13.6941 36.7256 13.3472 36.7936 13.024 36.9277C12.7385 37.0355 12.4914 37.2255 12.3139 37.4737C12.142 37.7362 12.0228 38.0297 11.9629 38.3377C11.8864 38.7465 11.8509 39.1618 11.857 39.5777C11.8516 40.0652 11.8981 40.552 11.9959 41.0297C12.0691 41.4058 12.2097 41.7656 12.4109 42.0917C12.5767 42.3522 12.8222 42.5522 13.1109 42.6617C13.4637 42.7999 13.8401 42.8679 14.2189 42.8617C14.6352 42.8753 15.0481 42.7831 15.419 42.5937C15.7353 42.4179 15.9806 42.1375 16.113 41.8007C16.124 41.7687 16.1359 41.7347 16.1529 41.7007C16.17 41.6605 16.1842 41.619 16.195 41.5767C16.2721 41.3516 16.3267 41.1195 16.358 40.8837C16.3929 40.585 16.4089 40.2844 16.4059 39.9837C16.4143 39.5304 16.3856 39.0773 16.32 38.6287Z" fill="black"/>
<path d="M25.3151 44.0369L22.526 39.6149L22.426 39.4449C22.387 39.3859 22.3511 39.3279 22.3201 39.2739C22.2891 39.2199 22.272 39.1869 22.246 39.1419C22.22 39.0969 22.195 39.0549 22.172 39.0119C22.096 38.8719 22.018 38.7349 21.937 38.6119C21.856 38.4889 21.7821 38.3539 21.7161 38.2329C21.7371 38.4199 21.752 38.6329 21.757 38.8629C21.762 39.0929 21.765 39.3629 21.765 39.6709L21.848 44.0419H20.1479V35.5049H21.926L24.7469 40.0229C24.7699 40.0569 24.791 40.0899 24.813 40.1229C24.835 40.1559 24.857 40.1929 24.879 40.2359C24.986 40.3979 25.088 40.5649 25.179 40.7359C25.27 40.9069 25.357 41.0569 25.434 41.1999C25.422 40.9939 25.4101 40.7679 25.3931 40.5249C25.3761 40.2819 25.368 40.0319 25.368 39.7829L25.319 35.5079H26.951V44.0369H25.3151Z" fill="black"/>
<path d="M34.8751 43.9617C34.3719 44.0781 33.8567 44.1352 33.3401 44.1317C32.713 44.1436 32.0891 44.0419 31.4982 43.8317C30.9831 43.6426 30.5119 43.3506 30.1132 42.9737C29.7096 42.587 29.3997 42.1133 29.2072 41.5887C28.9956 40.9919 28.8939 40.3617 28.9071 39.7287C28.8872 38.9923 29.0289 38.2604 29.3222 37.5847C29.6008 36.9904 30.0387 36.485 30.5872 36.1247C30.9498 35.8881 31.3454 35.7064 31.7611 35.5857C32.2127 35.4609 32.6796 35.4007 33.1481 35.4067C33.4075 35.4051 33.6666 35.4235 33.9231 35.4617C34.1688 35.5015 34.4111 35.5597 34.6481 35.6357C34.8983 35.7153 35.1416 35.8156 35.3751 35.9357C35.6413 36.0769 35.8993 36.2328 36.1481 36.4027L35.3172 37.4627L34.8362 37.1937C34.6972 37.1154 34.552 37.0485 34.4021 36.9937C34.2164 36.9272 34.0259 36.875 33.8322 36.8377C33.6167 36.7984 33.3981 36.779 33.1791 36.7797C32.7191 36.7676 32.2624 36.8599 31.8432 37.0497C31.4937 37.2075 31.2149 37.4888 31.0602 37.8397C30.9352 38.1332 30.8419 38.4393 30.7821 38.7527C30.7141 39.1076 30.6807 39.4683 30.6821 39.8297C30.6645 40.3926 30.7586 40.9534 30.9591 41.4797C31.1248 41.8924 31.4312 42.2332 31.8241 42.4417C32.0156 42.542 32.2166 42.6231 32.4241 42.6837C32.6366 42.7503 32.8555 42.7945 33.0772 42.8157C33.1366 42.8143 33.1961 42.8174 33.2551 42.8247C33.3111 42.8247 33.3652 42.8327 33.4192 42.8327C33.6348 42.8323 33.8499 42.8162 34.0631 42.7847C34.2575 42.7579 34.4469 42.7027 34.6251 42.6207V40.6757H32.8002L32.5051 39.2877H36.2401V43.4167C35.8138 43.6631 35.354 43.8467 34.8751 43.9617Z" fill="black"/>
<path d="M45.9011 42.7369C45.6324 43.1534 45.2553 43.4888 44.8102 43.7069C44.4889 43.8768 44.144 43.9981 43.7871 44.0669C43.3819 44.1458 42.9699 44.184 42.5571 44.1809C41.9827 44.1792 41.4103 44.1121 40.8511 43.9809C40.2654 43.8469 39.7027 43.6272 39.1812 43.3289L39.8811 42.0239C40.2014 42.1946 40.531 42.3475 40.8682 42.4819C41.1664 42.5979 41.4752 42.6846 41.7902 42.7409C41.9312 42.7644 42.0734 42.7804 42.2162 42.7889C42.3562 42.8029 42.4972 42.8059 42.6382 42.8059C42.8795 42.8107 43.1206 42.7889 43.3572 42.7409C43.5539 42.6983 43.7414 42.6211 43.9111 42.5129C44.0813 42.4185 44.2285 42.2878 44.3422 42.1299C44.4469 41.9845 44.502 41.8091 44.4991 41.6299C44.4996 41.493 44.4673 41.358 44.4048 41.2362C44.3423 41.1144 44.2516 41.0094 44.1401 40.9299C43.7887 40.6972 43.3948 40.5362 42.9811 40.4559L41.7241 40.1479C41.1234 40.0197 40.5734 39.7183 40.1421 39.2809C39.7662 38.9047 39.5552 38.3947 39.5552 37.8629C39.5508 37.5023 39.6328 37.1459 39.7944 36.8235C39.9561 36.5011 40.1926 36.2221 40.4841 36.0099C41.1785 35.5024 42.0249 35.2463 42.8842 35.2839C43.0042 35.2839 43.1231 35.2889 43.2441 35.2919C43.3651 35.2949 43.4841 35.3079 43.6031 35.3169C44.0526 35.3715 44.4951 35.472 44.9241 35.6169C45.3476 35.7566 45.7487 35.9567 46.1151 36.2109L45.3472 37.3849C44.9938 37.1849 44.6229 37.0175 44.2391 36.8849C43.9056 36.7763 43.56 36.7091 43.2101 36.6849C43.1679 36.6744 43.1247 36.6687 43.0812 36.6679H42.9512C42.5429 36.6509 42.1373 36.7416 41.7751 36.9309C41.6375 36.9971 41.5215 37.1011 41.4406 37.2307C41.3597 37.3603 41.3172 37.5101 41.3181 37.6629C41.3183 37.8264 41.38 37.9839 41.4911 38.1039C41.6297 38.2509 41.801 38.3633 41.9911 38.4319L42.0581 38.4629C42.0782 38.4754 42.0993 38.4865 42.1211 38.4959C42.1555 38.5069 42.1889 38.5206 42.2211 38.5369C42.2535 38.5531 42.287 38.5671 42.3212 38.5789C42.3642 38.5879 42.4151 38.5999 42.4751 38.6089C42.5351 38.6179 42.6041 38.6379 42.6821 38.6579L43.8551 38.9519C44.2 39.0401 44.535 39.1631 44.8551 39.3189C45.1407 39.4545 45.4073 39.627 45.6481 39.8319C45.8582 40.035 46.0223 40.2809 46.1292 40.5529C46.2433 40.8321 46.301 41.1312 46.2991 41.4329C46.2984 41.8974 46.16 42.3512 45.9011 42.7369Z" fill="black"/>
<path d="M1.19385 47.374H4.05188L3.9519 47.979H1.92993V49.323H3.59583V49.923H1.92993V52.137H1.19592L1.19385 47.374Z" fill="black"/>
<path d="M5.41992 47.9261C5.62052 47.7069 5.86698 47.5347 6.14184 47.4218C6.41669 47.3089 6.71312 47.2581 7.00988 47.2731C7.3544 47.2651 7.69626 47.3352 8.00988 47.4781C8.28743 47.6106 8.53231 47.8029 8.72692 48.0411C8.90804 48.253 9.03958 48.5028 9.11193 48.7721C9.19649 49.0985 9.23641 49.4349 9.23083 49.7721C9.23801 50.1087 9.20136 50.4449 9.12182 50.7721C9.04902 51.0351 8.92084 51.2796 8.74584 51.4891C8.55979 51.7242 8.31968 51.9108 8.04589 52.0331C7.7333 52.1564 7.39871 52.2142 7.06286 52.2031C6.75349 52.2115 6.44513 52.1637 6.15283 52.0621C5.89204 51.959 5.66041 51.7939 5.4779 51.5811C5.26413 51.3406 5.09939 51.0607 4.99291 50.7571C4.88341 50.4229 4.83067 50.0727 4.83691 49.7211C4.80141 49.0711 5.00926 48.4311 5.41992 47.9261ZM7.68993 48.0091C7.46693 47.9114 7.2253 47.8637 6.98193 47.8691C6.76806 47.8679 6.55651 47.9133 6.36193 48.0021C6.18675 48.0758 6.03613 48.1979 5.92785 48.3541C5.82264 48.511 5.75117 48.6881 5.71789 48.8741C5.67095 49.1249 5.64911 49.3799 5.65283 49.6351C5.64965 49.9331 5.67716 50.2306 5.73486 50.5231C5.7781 50.7493 5.86218 50.9659 5.9829 51.1621C6.08263 51.3222 6.2298 51.4474 6.40392 51.5201C6.61842 51.6111 6.84992 51.6551 7.08288 51.6491C7.3352 51.6575 7.58526 51.5992 7.80785 51.4801C8.0068 51.3678 8.15846 51.1874 8.23486 50.9721C8.23969 50.9549 8.24609 50.9381 8.2539 50.9221C8.2599 50.9061 8.26587 50.8891 8.27087 50.8721C8.32131 50.7312 8.3568 50.5854 8.37682 50.4371C8.39945 50.2469 8.41024 50.0555 8.40893 49.8641C8.41282 49.5927 8.39437 49.3214 8.35387 49.0531C8.32388 48.8565 8.26242 48.6661 8.17187 48.4891C8.07033 48.279 7.90042 48.1097 7.68993 48.0091Z" fill="black"/>
<path d="M10.441 47.3477H11.1739V50.2177C11.1739 50.4077 11.181 50.5707 11.193 50.7087C11.1984 50.8122 11.2138 50.915 11.239 51.0157C11.3026 51.197 11.4341 51.3465 11.6059 51.4327C11.8109 51.5404 12.0405 51.5928 12.2719 51.5847C12.4573 51.5887 12.642 51.561 12.818 51.5027C12.9554 51.4568 13.0753 51.3695 13.161 51.2527C13.1729 51.2377 13.1833 51.2216 13.192 51.2047C13.2023 51.1898 13.2132 51.1754 13.2249 51.1617C13.2737 51.0675 13.3074 50.9662 13.3249 50.8617C13.346 50.7126 13.3552 50.5621 13.352 50.4117V47.3477H14.083V50.3907C14.0918 50.6647 14.0686 50.9389 14.014 51.2077C13.9674 51.3927 13.8705 51.5613 13.734 51.6947C13.723 51.7122 13.7091 51.7277 13.693 51.7407C13.6782 51.7521 13.6642 51.7645 13.651 51.7777C13.4817 51.9294 13.2809 52.0418 13.063 52.1067C12.7988 52.1787 12.5257 52.2124 12.2519 52.2066C11.8671 52.2314 11.4832 52.1472 11.144 51.9637C10.9143 51.8296 10.7271 51.6334 10.604 51.3977C10.5906 51.3755 10.5796 51.3521 10.571 51.3277L10.541 51.2527C10.5004 51.1462 10.4736 51.0349 10.461 50.9217C10.4432 50.7452 10.4355 50.5679 10.438 50.3907L10.441 47.3477Z" fill="black"/>
<path d="M15.55 47.3477H16.394L17.951 49.9477C17.962 49.9647 17.9721 49.9837 17.9821 49.9967C17.9909 50.0148 18.0016 50.0319 18.014 50.0477C18.153 50.2937 18.2781 50.5187 18.3831 50.7247C18.4881 50.9307 18.552 51.0467 18.563 51.0667C18.546 50.8877 18.529 50.7327 18.516 50.5977C18.511 50.4977 18.506 50.3797 18.5 50.2547C18.494 50.1297 18.487 50.0016 18.48 49.8736V49.7547L18.452 47.3547H19.168V52.1367H18.406L16.869 49.5987C16.844 49.5587 16.819 49.5107 16.791 49.4617C16.763 49.4127 16.735 49.3616 16.705 49.3176L16.673 49.2517C16.663 49.2327 16.652 49.2117 16.641 49.1877C16.525 48.9787 16.377 48.7037 16.201 48.3557C16.2079 48.393 16.2122 48.4307 16.214 48.4687C16.218 48.5133 16.22 48.5673 16.22 48.6307C16.227 48.7517 16.233 48.8987 16.243 49.0727C16.253 49.2467 16.255 49.4507 16.255 49.6827L16.301 52.1367H15.55V47.3477Z" fill="black"/>
<path d="M20.752 47.3838H21.832C21.996 47.3838 22.154 47.3838 22.308 47.3908C22.462 47.3978 22.59 47.4078 22.691 47.4198C22.8879 47.4437 23.0807 47.4942 23.264 47.5698C23.4557 47.6502 23.6335 47.7602 23.791 47.8958C24.0343 48.0989 24.2227 48.3599 24.339 48.6548C24.4657 49.0073 24.5251 49.3804 24.514 49.7548C24.5378 50.2478 24.4156 50.7368 24.163 51.1608C23.9691 51.4717 23.7029 51.7311 23.387 51.9168C23.2888 51.9689 23.1865 52.0127 23.0811 52.0478C22.9915 52.0803 22.8979 52.1008 22.803 52.1088C22.723 52.1138 22.6281 52.1218 22.5181 52.1258C22.4081 52.1298 22.2831 52.1368 22.1431 52.1368H20.752V47.3838ZM21.484 47.9838V51.5278H22.068C22.168 51.5278 22.249 51.5278 22.317 51.5278C22.385 51.5278 22.448 51.5188 22.509 51.5118C22.533 51.5118 22.5611 51.4998 22.5911 51.4948L22.682 51.4758C22.9761 51.4096 23.2375 51.2417 23.42 51.0018C23.648 50.6451 23.7532 50.2238 23.72 49.8018C23.7282 49.5174 23.6945 49.2334 23.62 48.9588C23.5584 48.7482 23.4446 48.5565 23.2891 48.4018C23.1484 48.2438 22.9666 48.1278 22.764 48.0668C22.5445 48.011 22.3185 47.9845 22.092 47.9878L21.484 47.9838Z" fill="black"/>
<path d="M27.9402 47.3477L29.7051 52.1347H28.8801L28.3951 50.8057H26.4731L25.9832 52.1367H25.2422L27.0281 47.3497L27.9402 47.3477ZM26.6752 50.2027H28.2211C28.2151 50.1917 28.1731 50.0707 28.0941 49.8497C28.0151 49.6287 27.9301 49.3817 27.8381 49.1127C27.7461 48.8437 27.6111 48.4687 27.4521 48.0047L26.6752 50.2027Z" fill="black"/>
<path d="M29.8608 47.3477H33.5118L33.4299 47.9687H31.9929V52.1367H31.2789V47.9687H29.8608V47.3477Z" fill="black"/>
<path d="M34.6021 47.3477H35.334V52.1367H34.6021V47.3477Z" fill="black"/>
<path d="M37.3151 47.9259C37.5158 47.7071 37.7622 47.5352 38.0368 47.4224C38.3114 47.3095 38.6075 47.2585 38.9041 47.2729C39.2486 47.2651 39.5904 47.3351 39.9041 47.4779C40.1814 47.6108 40.4261 47.803 40.621 48.0409C40.801 48.2536 40.9324 48.5031 41.006 48.7719C41.0911 49.0983 41.1311 49.4347 41.125 49.7719C41.1322 50.1085 41.0956 50.4447 41.016 50.7719C40.9437 51.0351 40.8154 51.2797 40.6401 51.4889C40.4539 51.7239 40.2138 51.9105 39.9401 52.0329C39.6272 52.1562 39.2923 52.2141 38.9561 52.2029C38.6461 52.211 38.3372 52.1632 38.0441 52.0619C37.7846 51.958 37.554 51.793 37.372 51.5809C37.1579 51.3405 36.9929 51.0606 36.886 50.7569C36.7772 50.4226 36.7253 50.0724 36.7321 49.7209C36.697 49.071 36.9048 48.4312 37.3151 47.9259ZM39.5871 48.0089C39.3633 47.9115 39.121 47.8637 38.877 47.8689C38.6635 47.868 38.4524 47.9133 38.2581 48.0019C38.0825 48.0745 37.9319 48.1969 37.825 48.3539C37.7186 48.5103 37.6467 48.6876 37.6141 48.8739C37.5665 49.1247 37.5451 49.3797 37.5501 49.6349C37.5463 49.9329 37.5731 50.2304 37.63 50.5229C37.6746 50.7488 37.7586 50.9651 37.8781 51.1619C37.9784 51.3223 38.1262 51.4475 38.3011 51.5199C38.5148 51.6111 38.7457 51.6551 38.9781 51.6489C39.231 51.657 39.4816 51.5987 39.705 51.4799C39.9031 51.3674 40.0538 51.1869 40.1291 50.9719C40.1345 50.9546 40.1415 50.9379 40.1501 50.9219C40.1551 50.9059 40.1611 50.8889 40.1661 50.8719C40.2165 50.731 40.252 50.5852 40.272 50.4369C40.2946 50.2468 40.3053 50.0554 40.304 49.8639C40.3074 49.5925 40.2891 49.3213 40.2491 49.0529C40.2182 48.8566 40.1567 48.6663 40.0671 48.4889C39.9646 48.2788 39.794 48.1096 39.583 48.0089H39.5871Z" fill="black"/>
<path d="M42.3999 47.3477H43.2439L44.7988 49.9477C44.8108 49.9647 44.8219 49.9837 44.8319 49.9967C44.8419 50.0097 44.8519 50.0307 44.8629 50.0477C45.0039 50.2937 45.1289 50.5187 45.2349 50.7247C45.3409 50.9307 45.3999 51.0467 45.4119 51.0667C45.3939 50.8877 45.3779 50.7327 45.3679 50.5977C45.3609 50.4977 45.3549 50.3797 45.3469 50.2547C45.3389 50.1297 45.3358 50.0016 45.3298 49.8736V49.7547L45.3029 47.3547H46.0159V52.1367H45.2579L43.7179 49.5987C43.6949 49.5587 43.6678 49.5107 43.6418 49.4617C43.6158 49.4127 43.5839 49.3616 43.5549 49.3176C43.5452 49.2949 43.5338 49.2728 43.5209 49.2517C43.5129 49.2327 43.5019 49.2117 43.4889 49.1877C43.3749 48.9787 43.2279 48.7037 43.0509 48.3557C43.0588 48.3928 43.0628 48.4307 43.0629 48.4687C43.0677 48.5225 43.0697 48.5766 43.0688 48.6307C43.0738 48.7517 43.0819 48.8987 43.0909 49.0727C43.0999 49.2467 43.1058 49.4507 43.1058 49.6827L43.1519 52.1367H42.3999V47.3477Z" fill="black"/>
<path d="M35.3091 26.9717V31.7797H37.7651V36.4007L41.7021 31.7797H45.1122V26.9717H35.3091ZM44.3782 31.1167H41.3832L38.4381 34.5707V31.1167H36.0381V27.6367H44.3741L44.3782 31.1167Z" fill="black"/>
<path d="M36.7739 29.6494H41.1509L41.2399 28.9854H36.7739V29.6494Z" fill="black"/>
<path opacity="0.5" d="M13.8629 74.7689C14.4569 74.7689 14.5728 74.5549 14.6368 73.0389C15.0517 73.2844 15.5031 73.4623 15.9739 73.5659C15.8079 75.5939 15.3798 76.0709 14.0118 76.0709H11.4409C9.69292 76.0709 9.28088 75.6709 9.28088 74.3069V72.7259H7.1709C6.6769 74.6369 5.40883 75.7259 1.79883 76.3179C1.61817 75.8572 1.3557 75.433 1.02393 75.0659C4.10693 74.6659 5.14483 73.9939 5.57483 72.7259H3.46289V65.8699H3.79285C3.52467 65.1524 3.1406 64.4839 2.65588 63.8909L4.08789 63.4809C4.64236 64.0838 5.07407 64.7889 5.35889 65.5569L4.35388 65.8699H11.3259L10.9459 65.7549C11.6025 64.8668 12.1718 63.9174 12.6459 62.9199L14.3458 63.3979C13.8038 64.2549 13.1599 65.1609 12.6169 65.8699H13.4559V72.7259H10.7828V74.2919C10.7828 74.7029 10.9148 74.7689 11.6058 74.7689H13.8629ZM15.1329 62.2599C10.8515 62.9383 6.52799 63.3185 2.19385 63.3979C2.10583 62.9848 1.95013 62.5891 1.73291 62.2269C5.77361 62.1448 9.80422 61.7923 13.7979 61.1719L15.1329 62.2599ZM4.91394 67.8309H11.9338V66.9249H4.91394V67.8309ZM4.91394 69.7429H11.9338V68.8189H4.91394V69.7429ZM4.91394 71.6539H11.9338V70.7479H4.91394V71.6539ZM7.96191 65.8039C7.79844 64.9976 7.49191 64.2271 7.05688 63.5289L8.53992 63.1509C9.00232 63.8419 9.34759 64.6045 9.56189 65.4079L7.96191 65.8039Z" fill="black"/>
<path opacity="0.5" d="M23.8029 65.1106H16.9949V63.8906H20.0449C19.7134 63.1168 19.3162 62.3728 18.8579 61.6666L20.0579 61.0566C20.5296 61.7406 20.9427 62.4631 21.2928 63.2166L20.0739 63.8906H23.7999L23.8029 65.1106ZM17.7029 66.0836H23.1089V67.2836H17.7029V66.0836ZM23.0588 69.4456H17.7029V68.2586H23.0588V69.4456ZM23.1249 75.3126H19.1199V76.0546H17.8019V70.4836H23.1249V75.3126ZM19.1199 74.0766H21.7919V71.7196H19.1199V74.0766ZM31.6279 68.2086H28.3989V76.2686H26.8159V68.2086H23.7679V66.7086H26.8159V61.4516H28.3989V66.7086H31.6279V68.2086Z" fill="black"/>
<path opacity="0.5" d="M47.1418 68.5877V69.5947H32.4419V68.5877H38.9189V67.8637H33.6589V66.9737H38.9189V66.2647H34.0889V65.3907H38.9189V64.6367H32.4758V63.7307H38.9189V63.0217H34.1888V62.1477H38.9189V61.1367H40.4679V62.1427H45.3298V63.7257H47.0939V64.6317H45.3298V66.2627H40.4679V66.9717H46.0228V67.8617H40.4679V68.5857L47.1418 68.5877ZM32.4419 74.7687H47.1418V75.8237H32.4419V74.7687ZM45.4119 74.1417H34.2828V70.2417H45.4078L45.4119 74.1417ZM35.7859 71.7857H39.0349V71.0437H35.7828L35.7859 71.7857ZM35.7859 73.3347H39.0349V72.5767H35.7828L35.7859 73.3347ZM40.4679 63.7277H43.7969V63.0187H40.4679V63.7277ZM40.4679 65.3907H43.7969V64.6367H40.4679V65.3907ZM43.8479 71.0437H40.4659V71.7847H43.8479V71.0437ZM43.8479 72.5767H40.4659V73.3347H43.8479V72.5767Z" fill="black"/>
<path opacity="0.5" d="M2.24902 79.983H4.37903C5.0618 79.9197 5.74752 80.0681 6.34302 80.408C6.69452 80.6316 6.98184 80.9427 7.17664 81.3109C7.37143 81.6791 7.46696 82.0917 7.45398 82.508C7.47554 82.8842 7.41241 83.2604 7.26929 83.609C7.12616 83.9576 6.90665 84.2696 6.62695 84.522C6.02206 84.9982 5.26209 85.233 4.49402 85.181H2.95898V88.837H2.24902V79.983ZM4.45703 84.592C4.74491 84.62 5.03545 84.5885 5.31067 84.4995C5.58589 84.4106 5.8399 84.2661 6.05701 84.075C6.24722 83.8881 6.39791 83.6648 6.50012 83.4185C6.60234 83.1721 6.65396 82.9077 6.65198 82.641C6.67492 82.3375 6.62313 82.0329 6.5011 81.7539C6.37907 81.475 6.19056 81.2302 5.95203 81.041C5.42874 80.6985 4.80469 80.5438 4.18201 80.602H2.95605V84.592H4.45703Z" fill="black"/>
<path opacity="0.5" d="M8.93799 79.9819H10.771C11.5474 79.8951 12.329 80.0926 12.9709 80.5379C13.2481 80.7636 13.4701 81.0495 13.62 81.3739C13.7699 81.6983 13.8438 82.0527 13.8361 82.4099C13.8572 82.7302 13.8087 83.0513 13.6941 83.3511C13.5795 83.6509 13.4014 83.9223 13.172 84.1468C12.9426 84.3713 12.6672 84.5435 12.365 84.6516C12.0628 84.7596 11.7408 84.801 11.421 84.7729H11.3311C11.8126 85.0733 12.2052 85.4969 12.468 85.9999C13.048 86.8899 14.0551 88.4789 14.2891 88.8399H13.371C12.7613 87.6918 12.0664 86.591 11.292 85.5469C11.1686 85.3269 10.9914 85.1418 10.777 85.0089C10.5626 84.876 10.318 84.7996 10.066 84.7869H9.65405V88.8369H8.94202L8.93799 79.9819ZM10.76 84.3199C11.3601 84.3724 11.9599 84.2178 12.46 83.8819C12.6652 83.6956 12.8253 83.4649 12.9281 83.2074C13.0309 82.9499 13.0736 82.6724 13.053 82.3959C13.0614 82.0934 12.9877 81.7942 12.8398 81.5301C12.692 81.266 12.4754 81.0469 12.213 80.8959C11.7758 80.6696 11.2855 80.566 10.7941 80.5959H9.646V84.3139L10.76 84.3199Z" fill="black"/>
<path opacity="0.5" d="M16.2827 87.7034C15.6288 86.729 15.3076 85.5693 15.3668 84.3974C15.3204 83.2823 15.6027 82.1782 16.1787 81.2224C16.4766 80.7899 16.8774 80.4383 17.3449 80.1992C17.8125 79.96 18.332 79.8408 18.857 79.8523C19.382 79.8638 19.8959 80.0057 20.3525 80.2651C20.8091 80.5245 21.1941 80.8933 21.4728 81.3384C22.0197 82.3038 22.2795 83.4053 22.2218 84.5134C22.3138 85.7329 21.9299 86.9407 21.1507 87.8834C20.8695 88.2346 20.5113 88.5164 20.1039 88.7072C19.6964 88.8979 19.2506 88.9924 18.8008 88.9834C18.3085 88.9929 17.8214 88.8813 17.3823 88.6584C16.9432 88.4356 16.5656 88.1083 16.2827 87.7054V87.7034ZM20.7638 87.3954C21.2555 86.5573 21.4762 85.5877 21.3957 84.6194C21.4464 83.6435 21.279 82.6685 20.9057 81.7654C20.7194 81.3604 20.4177 81.0194 20.0384 80.7852C19.6592 80.5509 19.2193 80.4337 18.7738 80.4484C18.3486 80.4375 17.9286 80.5437 17.5597 80.7553C17.1907 80.9669 16.887 81.2759 16.6817 81.6484C16.3115 82.466 16.1402 83.3598 16.1817 84.2564C16.1403 85.2909 16.3395 86.3209 16.7638 87.2654C16.982 87.6192 17.2878 87.9109 17.6516 88.1121C18.0154 88.3134 18.425 88.4175 18.8408 88.4144C19.2225 88.4246 19.6003 88.3361 19.9377 88.1574C20.2752 87.9787 20.5607 87.7158 20.7667 87.3944" fill="black"/>
<path opacity="0.5" d="M23.3499 90.0014C23.82 89.8381 24.2237 89.5251 24.4989 89.1104C24.7151 88.5516 24.7945 87.9492 24.7308 87.3534V79.9824H25.4669V87.3364C25.555 88.0367 25.4474 88.7477 25.1559 89.3904C24.8172 89.9078 24.3053 90.2875 23.7119 90.4614L23.3499 90.0014Z" fill="black"/>
<path opacity="0.5" d="M28.2048 79.9814H32.8149L32.7148 80.5884H28.9449V83.9064H32.0309V84.5394H28.9449V88.2064H32.9598V88.8394H28.2079L28.2048 79.9814Z" fill="black"/>
<path opacity="0.5" d="M37.5828 88.9689C37.0933 88.9806 36.608 88.877 36.166 88.6662C35.724 88.4555 35.3379 88.1436 35.0389 87.7559C34.3505 86.791 34.0085 85.6216 34.0688 84.4379C34.0432 83.3727 34.3158 82.3215 34.8558 81.4029C35.1412 80.9361 35.5421 80.5506 36.0197 80.2837C36.4974 80.0168 37.0357 79.8774 37.5828 79.8789C38.3476 79.8605 39.0951 80.1079 39.6978 80.5789L39.3138 81.0569C38.82 80.6619 38.2019 80.4556 37.5699 80.4749C37.0976 80.4659 36.6334 80.5988 36.2375 80.8564C35.8416 81.114 35.532 81.4845 35.3488 81.9199C34.9972 82.7481 34.8289 83.6425 34.8558 84.5419C34.8247 85.3369 34.9795 86.1282 35.3078 86.8529C35.5077 87.3137 35.8413 87.704 36.2655 87.9732C36.6896 88.2424 37.1847 88.3782 37.6868 88.3629C38.3369 88.3637 38.9683 88.146 39.4798 87.7449L39.8798 88.2449C39.2037 88.7125 38.4019 88.9645 37.5798 88.9679" fill="black"/>
<path opacity="0.5" d="M43.3519 80.6014H40.8999V79.9824H46.5939L46.5419 80.6014H44.0638V88.8364H43.3519V80.6014Z" fill="black"/>
<path opacity="0.5" d="M6.26489 105.637C4.78346 105.622 3.3295 105.235 2.03589 104.513L2.96387 102.569C3.99544 103.188 5.1684 103.532 6.37085 103.569C7.79885 103.569 8.54785 102.979 8.54785 101.869C8.54785 101.069 8.03083 100.569 6.92383 100.269L5.54993 99.895C5.05878 99.8081 4.58973 99.6245 4.17017 99.3548C3.7506 99.0851 3.38881 98.7347 3.10583 98.324C2.76086 97.754 2.58154 97.0992 2.58789 96.433C2.58789 94.167 4.40786 92.596 7.03186 92.596C8.50621 92.5833 9.94965 93.0189 11.1709 93.845L9.9939 95.63C9.14185 95.0421 8.13766 94.7139 7.10291 94.685C6.08491 94.685 5.37183 95.273 5.37183 96.111C5.37183 96.754 5.71085 97.076 6.74585 97.36L8.24585 97.77C10.2818 98.324 11.3868 99.626 11.3868 101.464C11.3868 103.979 9.35385 105.639 6.26685 105.639" fill="black"/>
<path opacity="0.5" d="M15.2239 105.371V92.9707H22.2878L21.9669 95.0047H17.7568V97.8767H21.2719V99.9117H17.7568V103.231H22.4498V105.371H15.2239Z" fill="black"/>
<path opacity="0.5" d="M26.2827 105.371V92.9707H33.3478L33.0267 95.0047H28.8168V97.8767H32.3318V99.9117H28.8168V103.231H33.5098V105.371H26.2827Z" fill="black"/>
<path opacity="0.5" d="M43.6678 105.371L39.9019 98.8937V105.371H37.3489V92.9707H39.9019V98.6267L43.4349 92.9707H46.5039L42.5428 98.7157L46.9498 105.371H43.6678Z" fill="black"/>
</svg>
